<svg width="89" height="33" viewBox="0 0 89 33" fill="none" xmlns="http://www.w3.org/2000/svg">
<path d="M31.88 32.48C31.32 31.44 30.84 30.32 29.84 27.76L20.96 4.68C20.04 2.24 19.8 1.6 19.6 0.639998H12.64C12.44 1.68 12.12 2.68 11.36 4.68L2.56 27.76C1.84 29.6 1.04 31.4 0.44 32.48H7C7.32 30.8 7.48 30.2 8.2 28.28L9.8 23.92H22.6L24.2 28.28C24.64 29.44 25.08 31.16 25.32 32.48H31.88ZM21.16 19.32H11.24L15.4 7.48C15.52 7.12 15.52 7.12 16.16 5.24C16.6 6.56 16.72 7.04 16.88 7.48L21.16 19.32ZM41.0647 32.48C40.8247 30.96 40.7447 29.44 40.7447 27.28V20.6H48.3847C52.2247 20.6 54.9447 19.68 56.9047 17.72C58.6647 15.88 59.5847 13.4 59.5847 10.36C59.5847 7.48 58.7447 5.08 57.1047 3.48C55.1847 1.56 52.4647 0.639998 48.5847 0.639998H40.2247C38.1047 0.639998 36.8647 0.599999 35.1447 0.519998C35.3847 2.32 35.4647 3.76 35.4647 5.68V27.32C35.4647 29.48 35.3847 30.88 35.1447 32.48H41.0647ZM40.7447 16V5.24H48.3847C50.5047 5.24 51.8247 5.68 52.7447 6.68C53.6247 7.6 54.0647 8.92 54.0647 10.52C54.0647 14.04 52.0647 16 48.3847 16H40.7447ZM69.5022 32.48C69.2622 30.96 69.1822 29.44 69.1822 27.28V20.6H76.8222C80.6622 20.6 83.3822 19.68 85.3422 17.72C87.1022 15.88 88.0222 13.4 88.0222 10.36C88.0222 7.48 87.1822 5.08 85.5422 3.48C83.6222 1.56 80.9022 0.639998 77.0222 0.639998H68.6622C66.5422 0.639998 65.3022 0.599999 63.5822 0.519998C63.8222 2.32 63.9022 3.76 63.9022 5.68V27.32C63.9022 29.48 63.8222 30.88 63.5822 32.48H69.5022ZM69.1822 16V5.24H76.8222C78.9422 5.24 80.2622 5.68 81.1822 6.68C82.0622 7.6 82.5022 8.92 82.5022 10.52C82.5022 14.04 80.5022 16 76.8222 16H69.1822Z" fill="#FD6D16"/>
</svg>
