<svg width="36" height="42" viewBox="0 0 36 42" fill="none" xmlns="http://www.w3.org/2000/svg">
<path fill-rule="evenodd" clip-rule="evenodd" d="M18 22.9091C24.6274 22.9091 30 17.7807 30 11.4545C30 5.12837 24.6274 0 18 0C11.3726 0 6 5.12837 6 11.4545C6 17.7807 11.3726 22.9091 18 22.9091ZM0 31.5C0 27.8499 3.19282 24.6348 8.03817 22.7533C10.5764 25.2068 14.1022 26.7273 18 26.7273C21.8978 26.7273 25.4236 25.2068 27.9618 22.7533C32.8072 24.6348 36 27.8499 36 31.5C36 37.299 27.9411 42 18 42C8.05887 42 0 37.299 0 31.5Z" fill="white"/>
</svg>
