<svg width="18" height="18" viewBox="0 0 18 18" fill="none" xmlns="http://www.w3.org/2000/svg">
<path d="M5.589 10.093C5.55 10.009 5.502 9.886 5.445 9.727L4.794 7.921C4.734 7.762 4.713 7.684 4.692 7.597H3.909C3.894 7.684 3.867 7.774 3.813 7.921L3.165 9.727C3.093 9.931 3.066 10.003 3.021 10.093H3.723C3.738 9.982 3.759 9.889 3.798 9.769L3.879 9.514H4.734L4.815 9.769C4.845 9.871 4.863 9.949 4.887 10.093H5.589ZM4.587 9.01H4.023L4.302 8.11L4.587 9.01ZM7.44335 7.597C7.46135 7.732 7.46735 7.825 7.46735 8.05V9.082C7.46735 9.46 7.29635 9.64 6.93635 9.64C6.58535 9.64 6.41435 9.46 6.41435 9.082V8.05C6.41435 7.828 6.42035 7.708 6.43835 7.597H5.79035C5.80835 7.711 5.81435 7.843 5.81435 8.05V9.076C5.81435 9.412 5.90435 9.673 6.07835 9.859C6.25835 10.048 6.56135 10.153 6.93335 10.153C7.65635 10.153 8.06735 9.766 8.06735 9.082V8.05C8.06735 7.834 8.07335 7.726 8.09135 7.597H7.44335ZM9.73751 8.128H10.0765C10.2925 8.128 10.4095 8.134 10.5445 8.149V7.576C10.4065 7.591 10.2865 7.597 10.0765 7.597H8.76251C8.57951 7.597 8.41451 7.588 8.31551 7.576V8.149C8.52851 8.131 8.57951 8.128 8.76851 8.128H9.12251V9.64C9.12251 9.829 9.11651 9.952 9.09851 10.093H9.76151C9.74351 9.952 9.73751 9.82 9.73751 9.64V8.128ZM11.9138 7.543C11.1758 7.543 10.7018 8.05 10.7018 8.842C10.7018 9.637 11.1758 10.15 11.9108 10.15C12.6398 10.15 13.1228 9.625 13.1228 8.833C13.1228 8.047 12.6518 7.543 11.9138 7.543ZM11.9138 9.631C11.5478 9.631 11.3228 9.328 11.3228 8.839C11.3228 8.356 11.5478 8.059 11.9138 8.059C12.2768 8.059 12.4988 8.353 12.4988 8.839C12.4988 9.331 12.2768 9.631 11.9138 9.631Z" fill="#FD6D16"/>
<path fill-rule="evenodd" clip-rule="evenodd" d="M8.09923 16.6318C9.90887 16.6502 11.6731 16.0263 13.0771 14.8715L12.2339 13.8464C11.0756 14.7991 9.62007 15.3138 8.12708 15.2987C6.63408 15.2835 5.2007 14.7395 4.08263 13.7636C2.96455 12.7878 2.23451 11.4435 2.02273 9.97074C1.81096 8.49796 2.13121 6.9924 2.92638 5.72264C3.72154 4.45288 4.93989 3.50151 6.3641 3.03824C7.7883 2.57497 9.32571 2.62993 10.7021 3.19332C12.0785 3.75671 13.2043 4.79188 13.8787 6.11418C14.5494 7.42907 14.7303 8.94283 14.39 10.3882L12.6359 10.3859L15.0766 13.2962L17.5251 10.3924L15.7528 10.3901C16.0769 8.72681 15.8389 7.00548 15.0707 5.49941C14.2532 3.89667 12.8887 2.64195 11.2204 1.95907C9.55208 1.2762 7.68859 1.20958 5.96234 1.7711C4.23609 2.33262 2.75934 3.48577 1.79553 5.02482C0.831722 6.56388 0.443541 8.38875 0.700235 10.1739C0.956929 11.959 1.8418 13.5883 3.197 14.7712C4.5522 15.954 6.28959 16.6134 8.09923 16.6318Z" fill="#FD6D16"/>
</svg>
