<svg width="21" height="20" viewBox="0 0 21 20" fill="none" xmlns="http://www.w3.org/2000/svg">
<circle cx="10.2451" cy="10" r="9" fill="#477DC0"/>
<path d="M10.917 7.34668V15.7998H9.46387V7.34668H10.917ZM9.35449 5.10449C9.35449 4.87012 9.4248 4.6722 9.56543 4.51074C9.71126 4.34928 9.9248 4.26855 10.2061 4.26855C10.4821 4.26855 10.693 4.34928 10.8389 4.51074C10.9899 4.6722 11.0654 4.87012 11.0654 5.10449C11.0654 5.32845 10.9899 5.52116 10.8389 5.68262C10.693 5.83887 10.4821 5.91699 10.2061 5.91699C9.9248 5.91699 9.71126 5.83887 9.56543 5.68262C9.4248 5.52116 9.35449 5.32845 9.35449 5.10449Z" fill="white"/>
</svg>
