<svg width="28" height="12" viewBox="0 0 28 12" fill="none" xmlns="http://www.w3.org/2000/svg">
<path fill-rule="evenodd" clip-rule="evenodd" d="M2.94737 0C1.31958 0 0 1.34315 0 3V9C0 10.6569 1.31958 12 2.94737 12H11.5854C11.0382 11.6524 10.6057 11.124 10.3756 10.4799L10.1148 9.75H2.94737C2.54042 9.75 2.21053 9.41422 2.21053 9V3C2.21053 2.58578 2.54042 2.25 2.94737 2.25H14C14.4069 2.25 14.7368 2.58578 14.7368 3V8.25H16.9474V3C16.9474 1.34315 15.6278 0 14 0H2.94737ZM11.0526 3.75H13.2632V9C13.2632 9.41422 13.5931 9.75 14 9.75H25.0526C25.4596 9.75 25.7895 9.41421 25.7895 9V3C25.7895 2.58578 25.4596 2.25 25.0526 2.25H17.8753L17.6254 1.56332C17.38 0.888737 16.912 0.342464 16.3231 0H25.0526C26.6804 0 28 1.34315 28 3V9C28 10.6569 26.6804 12 25.0526 12H14C12.3722 12 11.0526 10.6569 11.0526 9V3.75Z" fill="#D259C8"/>
</svg>
