<svg width="12" height="12" viewBox="0 0 12 12" fill="none" xmlns="http://www.w3.org/2000/svg">
<circle cx="6" cy="6" r="6" fill="#EF923F"/>
<path fill-rule="evenodd" clip-rule="evenodd" d="M8.5056 3.81841C8.59486 3.72915 8.59486 3.58443 8.5056 3.49517C8.41634 3.40591 8.27161 3.40591 8.18235 3.49517L6.00108 5.67641L3.8199 3.49518C3.73064 3.40592 3.58591 3.40592 3.49665 3.49518C3.40739 3.58444 3.40738 3.72916 3.49664 3.81842L5.67783 5.99966L3.49663 8.18083C3.40737 8.27009 3.40737 8.41481 3.49663 8.50407C3.5859 8.59334 3.73062 8.59334 3.81988 8.50407L6.00107 6.32291L8.18224 8.50413C8.2715 8.59339 8.41623 8.5934 8.50549 8.50414C8.59475 8.41488 8.59476 8.27015 8.5055 8.18089L6.32432 5.99967L8.5056 3.81841Z" fill="white" stroke="white"/>
</svg>
