<svg width="20" height="20" viewBox="0 0 20 20" fill="none" xmlns="http://www.w3.org/2000/svg">
<path fill-rule="evenodd" clip-rule="evenodd" d="M1.25 12.5V18.75H7.5V12.5H1.25ZM0.625 11.25C0.279822 11.25 0 11.5298 0 11.875V19.375C0 19.7202 0.279822 20 0.625 20H8.125C8.47018 20 8.75 19.7202 8.75 19.375V11.875C8.75 11.5298 8.47018 11.25 8.125 11.25H0.625Z" fill="#FD6D16"/>
<path fill-rule="evenodd" clip-rule="evenodd" d="M12.5 1.25H12.8125V0H12C11.5858 0 11.25 0.335787 11.25 0.75V1.5625H12.5V1.25ZM14.6875 1.25V0H16.5625V1.25H14.6875ZM18.75 1.25H18.4375V0H19.25C19.6642 0 20 0.335786 20 0.75V1.5625H18.75V1.25ZM12.5 3.4375V5.3125H11.25V3.4375H12.5ZM18.75 3.4375H20V5.3125H18.75V3.4375ZM12.5 7.5V7.1875H11.25V8C11.25 8.41421 11.5858 8.75 12 8.75H12.8125V7.5H12.5ZM18.75 7.5V7.1875H20V8C20 8.41421 19.6642 8.75 19.25 8.75H18.4375V7.5H18.75ZM14.6875 7.5H16.5625V8.75H14.6875V7.5Z" fill="#FD6D16"/>
<path fill-rule="evenodd" clip-rule="evenodd" d="M3.93314 9.81588L4.37509 10.2578L4.81702 9.81586L6.69192 7.94086C6.93599 7.69677 6.93598 7.30105 6.69189 7.05697C6.44781 6.8129 6.05208 6.81291 5.80801 7.057L5 7.86505L5 5.62383C5 5.27866 5.27982 4.99883 5.625 4.99883L8.75 4.99883L8.75 3.74883L5.625 3.74883C4.58947 3.74883 3.75 4.5883 3.75 5.62383L3.75 7.86504L2.94189 7.05697C2.69781 6.8129 2.30208 6.81291 2.05801 7.057C1.81394 7.30108 1.81395 7.69681 2.05804 7.94088L3.93314 9.81588Z" fill="#7C7C7C"/>
<path fill-rule="evenodd" clip-rule="evenodd" d="M16.0668 10.1919L15.6249 9.75L15.1829 10.192L13.308 12.067C13.064 12.311 13.064 12.7068 13.3081 12.9508C13.5522 13.1949 13.9479 13.1949 14.192 12.9508L15 12.1427L15 14.384C15 14.7292 14.7202 15.009 14.375 15.009L11.25 15.009V16.259L14.375 16.259C15.4105 16.259 16.25 15.4195 16.25 14.384L16.25 12.1428L17.0581 12.9508C17.3022 13.1949 17.6979 13.1949 17.942 12.9508C18.186 12.7067 18.186 12.311 17.9419 12.0669L16.0668 10.1919Z" fill="#7C7C7C"/>
</svg>
