<svg width="31" height="31" viewBox="0 0 31 31" fill="none" xmlns="http://www.w3.org/2000/svg">
<g opacity="0.3">
<circle cx="15.5" cy="15.5" r="15.5" fill="#FB6800"/>
<path fill-rule="evenodd" clip-rule="evenodd" d="M15.5 17C18.8137 17 21.5 14.3137 21.5 11C21.5 7.68629 18.8137 5 15.5 5C12.1863 5 9.5 7.68629 9.5 11C9.5 14.3137 12.1863 17 15.5 17ZM6.5 21.5C6.5 19.5881 8.09641 17.904 10.5191 16.9184C11.7882 18.2036 13.5511 19 15.5 19C17.4489 19 19.2118 18.2036 20.4809 16.9184C22.9036 17.904 24.5 19.5881 24.5 21.5C24.5 24.5376 20.4706 27 15.5 27C10.5294 27 6.5 24.5376 6.5 21.5Z" fill="white"/>
</g>
</svg>
