<svg width="16" height="16" viewBox="0 0 16 16" fill="none" xmlns="http://www.w3.org/2000/svg">
<path fill-rule="evenodd" clip-rule="evenodd" d="M6.79964 8.10156L9.19964 8.10156L9.19964 3.03829L11.1172 3.03829L7.9995 0.000327965L4.8818 3.03829L6.79964 3.03829L6.79964 8.10156Z" fill="#8A8A83"/>
<path fill-rule="evenodd" clip-rule="evenodd" d="M1 1.82275H4V3.03794H2.2V14.7847H13.8V3.03794H12V1.82275H15V15.9999H1V1.82275Z" fill="#8A8A83"/>
<path d="M0 9.72187C0 9.27445 0.358172 8.91174 0.8 8.91174H15.2C15.6418 8.91174 16 9.27445 16 9.72187V12.9624C16 13.4098 15.6418 13.7725 15.2 13.7725H0.8C0.358172 13.7725 0 13.4098 0 12.9624V9.72187Z" fill="#8A8A83"/>
<path d="M5.87852 12.0238C5.84753 12.4576 5.68893 12.7992 5.40273 13.0484C5.11836 13.2976 4.74284 13.4222 4.27617 13.4222C3.76576 13.4222 3.3638 13.2487 3.07031 12.9016C2.77865 12.5527 2.63281 12.0746 2.63281 11.4673V11.2208C2.63281 10.8332 2.70026 10.4917 2.83516 10.1963C2.97005 9.90096 3.16237 9.67483 3.41211 9.51792C3.66367 9.35916 3.95534 9.27979 4.28711 9.27979C4.74648 9.27979 5.11654 9.40439 5.39727 9.6536C5.67799 9.9028 5.84023 10.2526 5.88398 10.703H5.06367C5.04362 10.4428 4.97161 10.2545 4.84766 10.1382C4.72552 10.02 4.53867 9.96095 4.28711 9.96095C4.01367 9.96095 3.80859 10.0606 3.67188 10.26C3.53698 10.4575 3.46771 10.7649 3.46406 11.1821V11.4867C3.46406 11.9223 3.52878 12.2407 3.6582 12.442C3.78945 12.6432 3.99544 12.7438 4.27617 12.7438C4.52956 12.7438 4.71823 12.6856 4.84219 12.5693C4.96797 12.4512 5.03997 12.2694 5.0582 12.0238H5.87852Z" fill="white"/>
<path d="M8.48164 12.309C8.48164 12.1521 8.42695 12.0321 8.31758 11.9491C8.2082 11.8642 8.01133 11.7756 7.72695 11.6833C7.44258 11.5891 7.21745 11.4968 7.05156 11.4064C6.59948 11.159 6.37344 10.8258 6.37344 10.4068C6.37344 10.1889 6.43359 9.9951 6.55391 9.82527C6.67604 9.6536 6.85013 9.51976 7.07617 9.42377C7.30404 9.32778 7.55924 9.27979 7.8418 9.27979C8.12617 9.27979 8.37956 9.3324 8.60195 9.43762C8.82435 9.54099 8.99661 9.68775 9.11875 9.87788C9.24271 10.068 9.30469 10.284 9.30469 10.5258H8.48438C8.48438 10.3412 8.42695 10.1982 8.31211 10.0966C8.19727 9.99326 8.03594 9.94157 7.82813 9.94157C7.6276 9.94157 7.47174 9.98495 7.36055 10.0717C7.24935 10.1566 7.19375 10.2692 7.19375 10.4095C7.19375 10.5406 7.25846 10.6504 7.38789 10.739C7.51914 10.8276 7.71146 10.9107 7.96484 10.9882C8.43151 11.1304 8.77148 11.3067 8.98477 11.5171C9.19805 11.7276 9.30469 11.9897 9.30469 12.3035C9.30469 12.6524 9.17435 12.9265 8.91367 13.1259C8.65299 13.3234 8.30208 13.4222 7.86094 13.4222C7.55469 13.4222 7.27578 13.3659 7.02422 13.2533C6.77266 13.1388 6.58034 12.9828 6.44727 12.7853C6.31602 12.5878 6.25039 12.3589 6.25039 12.0986H7.07344C7.07344 12.5435 7.33594 12.7659 7.86094 12.7659C8.05599 12.7659 8.2082 12.7262 8.31758 12.6469C8.42695 12.5656 8.48164 12.453 8.48164 12.309Z" fill="white"/>
<path d="M11.3336 12.3672L12.2359 9.33516H13.1492L11.7629 13.3668H10.907L9.52617 9.33516H10.4367L11.3336 12.3672Z" fill="white"/>
</svg>
