<svg width="20" height="20" viewBox="0 0 20 20" fill="none" xmlns="http://www.w3.org/2000/svg">
<path d="M5.57196 2.86773C6.74577 2.19026 8.40378 1.84672 10.1387 1.91654C11.8696 1.98535 13.5908 2.46297 14.8896 3.33169C14.9724 3.38714 15.0653 3.42573 15.1631 3.44526C15.2608 3.46479 15.3614 3.46488 15.4592 3.44552C15.557 3.42617 15.65 3.38774 15.7329 3.33244C15.8158 3.27715 15.887 3.20606 15.9425 3.12324C15.9979 3.04042 16.0365 2.94749 16.056 2.84975C16.0756 2.75202 16.0757 2.65139 16.0563 2.55362C16.0369 2.45585 15.9985 2.36285 15.9432 2.27993C15.8879 2.19701 15.8168 2.1258 15.734 2.07035C14.1519 1.0124 12.1433 0.477106 10.1994 0.399696C8.25958 0.321779 6.29851 0.696184 4.81354 1.55327C4.64337 1.65591 4.52025 1.8212 4.47063 2.01363C4.42101 2.20607 4.44885 2.41028 4.54816 2.58241C4.64748 2.75455 4.81035 2.88085 5.00178 2.9342C5.19322 2.98755 5.39794 2.96369 5.57196 2.86773ZM10.8642 3.31955C10.6674 3.29673 10.4695 3.35177 10.3127 3.47292C10.156 3.59407 10.0528 3.77171 10.0253 3.9679C9.99772 4.1641 10.048 4.36328 10.1653 4.52291C10.2827 4.68255 10.4578 4.78997 10.6532 4.82222C13.5321 5.22699 15.2422 6.86121 16.2713 8.53895C17.3126 10.2364 17.6379 11.9546 17.7072 12.3963C17.7384 12.5952 17.8472 12.7735 18.0099 12.8922C18.1725 13.0108 18.3756 13.0599 18.5744 13.0288C18.7733 12.9976 18.9517 12.8888 19.0703 12.7262C19.1889 12.5635 19.238 12.3604 19.2069 12.1616C19.1234 11.6288 18.7561 9.68645 17.5651 7.74511C16.3619 5.78404 14.2986 3.80172 10.8642 3.31955ZM7.38429 8.63356C5.5325 10.1246 4.43914 13.3511 6.44827 17.513C6.53583 17.6944 6.54776 17.9031 6.48143 18.0932C6.41511 18.2834 6.27597 18.4394 6.09461 18.527C5.91326 18.6145 5.70455 18.6264 5.5144 18.5601C5.32425 18.4938 5.16824 18.3546 5.08068 18.1733C2.83122 13.5114 3.92053 9.47395 6.43208 7.45166C7.6747 6.45088 9.24619 5.97124 10.8389 6.19993C12.4377 6.42913 13.9865 7.36059 15.2053 9.04996C15.3197 9.21328 15.3652 9.41506 15.3321 9.61168C15.2989 9.8083 15.1896 9.98396 15.028 10.1007C14.8663 10.2174 14.6652 10.2658 14.4681 10.2355C14.2711 10.2051 14.0939 10.0984 13.9748 9.93841C12.9644 8.53794 11.7628 7.86553 10.6234 7.70211C9.47741 7.53818 8.32283 7.87767 7.38429 8.63356ZM9.73595 18.5209C8.48473 15.9491 8.12196 13.7993 8.35875 12.3968C8.47512 11.7037 8.7281 11.2468 9.03015 10.9792C9.31854 10.7237 9.72482 10.5744 10.3082 10.6301C11.0929 10.7044 11.441 10.9564 11.6525 11.2372C11.906 11.5752 12.0487 12.0599 12.2116 12.7915C12.2318 12.881 12.2521 12.9731 12.2723 13.0672C12.5698 14.4378 12.971 16.2871 14.8516 17.7184C15.0119 17.8382 15.213 17.8898 15.4112 17.862C15.6093 17.8342 15.7885 17.7293 15.9097 17.5701C16.0309 17.4109 16.0843 17.2103 16.0583 17.0119C16.0323 16.8135 15.9291 16.6334 15.771 16.5107C14.3462 15.4265 14.0507 14.0837 13.7446 12.6948V12.6938L13.6935 12.4611C13.5377 11.7629 13.3434 10.9609 12.8653 10.3255C12.3451 9.63332 11.566 9.22451 10.4514 9.11877C9.51333 9.02972 8.67143 9.26904 8.02381 9.84329C7.38935 10.4049 7.01798 11.2195 6.86164 12.1444C6.55199 13.9805 7.04732 16.4642 8.37089 19.1852C8.45899 19.3662 8.61538 19.5048 8.80567 19.5705C8.99596 19.6362 9.20456 19.6237 9.38558 19.5356C9.5666 19.4475 9.70521 19.2911 9.77092 19.1008C9.83662 18.9105 9.82405 18.7019 9.73595 18.5209ZM3.7303 3.40303C3.8662 3.55145 3.93759 3.74778 3.92877 3.94883C3.91995 4.14988 3.83163 4.3392 3.68324 4.47514C3.02121 5.08968 2.4544 5.79939 2.00146 6.58091C1.90216 6.75603 1.73736 6.88452 1.54332 6.93813C1.34929 6.99174 1.1419 6.96608 0.966784 6.86678C0.79167 6.76748 0.663175 6.60268 0.609565 6.40865C0.555955 6.21461 0.581623 6.00722 0.680921 5.83211C0.898481 5.44758 1.56735 4.35472 2.65818 3.35547C2.73169 3.2881 2.81774 3.23587 2.91144 3.20177C3.00514 3.16767 3.10463 3.15237 3.20424 3.15674C3.30385 3.16111 3.40163 3.18507 3.49198 3.22724C3.58233 3.26941 3.66348 3.32897 3.7308 3.40252L3.7303 3.40303ZM16.3113 12.2633C16.2932 12.165 16.2559 12.0712 16.2014 11.9874C16.147 11.9036 16.0766 11.8314 15.9942 11.7749C15.9117 11.7184 15.819 11.6787 15.7212 11.6581C15.6234 11.6375 15.5225 11.6365 15.4243 11.655C15.3261 11.6735 15.2325 11.7112 15.1489 11.766C15.0653 11.8208 14.9934 11.8916 14.9372 11.9742C14.8811 12.0569 14.8418 12.1498 14.8216 12.2477C14.8015 12.3456 14.8008 12.4465 14.8198 12.5446C15.1031 14.0473 15.7978 15.303 17.0642 16.0852C17.2352 16.1863 17.4391 16.2162 17.632 16.1685C17.8249 16.1209 17.9914 15.9996 18.0958 15.8305C18.2002 15.6615 18.2341 15.4582 18.1903 15.2644C18.1465 15.0706 18.0285 14.9018 17.8615 14.794C17.05 14.2926 16.538 13.4659 16.3113 12.2638V12.2633ZM10.0729 12.2784C10.2735 12.2616 10.4725 12.3252 10.6262 12.4551C10.7799 12.5849 10.8757 12.7706 10.8926 12.9711C11.1213 15.6987 12.4823 17.422 12.8551 17.8459C12.988 17.9972 13.0553 18.195 13.0423 18.3958C13.0293 18.5967 12.9371 18.7842 12.7858 18.917C12.711 18.9828 12.6238 19.0332 12.5295 19.0653C12.4351 19.0974 12.3354 19.1107 12.2359 19.1042C12.0351 19.0912 11.8476 18.999 11.7147 18.8477C11.227 18.2927 9.64589 16.2729 9.37976 13.0981C9.37144 12.9988 9.38277 12.8988 9.41311 12.8038C9.44344 12.7088 9.49218 12.6208 9.55655 12.5447C9.62092 12.4686 9.69965 12.4059 9.78825 12.3602C9.87685 12.3145 9.97358 12.2867 10.0729 12.2784ZM8.02381 5.05952C8.20466 4.977 8.34591 4.82683 8.41721 4.64127C8.48851 4.45571 8.48416 4.24959 8.4051 4.0672C8.32604 3.88482 8.17857 3.74074 7.9944 3.66593C7.81023 3.59112 7.60406 3.59155 7.42021 3.66714C3.94684 5.17336 2.35512 7.73904 1.66854 10.0492C0.989046 12.3321 1.1889 14.3635 1.26074 14.9089C1.2889 15.1069 1.39406 15.2858 1.55337 15.4066C1.71269 15.5275 1.91328 15.5806 2.11154 15.5544C2.3098 15.5282 2.48971 15.4248 2.61215 15.2667C2.7346 15.1086 2.78969 14.9086 2.76545 14.71C2.70675 14.2648 2.53018 12.4748 3.12315 10.4823C3.70803 8.51719 5.03667 6.35526 8.02381 5.05952Z" fill="#E6E7E6"/>
</svg>
