<svg width="18" height="18" viewBox="0 0 18 18" fill="none" xmlns="http://www.w3.org/2000/svg">
<rect x="1" y="4" width="16" height="10" rx="1" fill="#FD6306"/>
<path d="M3.348 8.672H4.204C4.448 8.672 4.6 8.68 4.748 8.7V8.168C4.592 8.188 4.452 8.196 4.204 8.196H3.348V7.348H4.412C4.668 7.348 4.816 7.356 4.96 7.376V6.836C4.792 6.856 4.664 6.864 4.412 6.864H3.292C3.048 6.864 2.948 6.86 2.784 6.852C2.808 7.036 2.816 7.152 2.816 7.372V9.48C2.816 9.744 2.808 9.912 2.784 10.048H3.38C3.356 9.896 3.348 9.756 3.348 9.472V8.672ZM7.47422 9.032C7.46622 8.94 7.46622 8.928 7.46622 8.92C7.45422 8.648 7.42622 8.504 7.35022 8.312C7.19022 7.912 6.82222 7.68 6.35422 7.68C5.67022 7.68 5.22622 8.164 5.22622 8.904C5.22622 9.652 5.67422 10.124 6.38222 10.124C6.71822 10.124 6.99822 10.02 7.20622 9.816C7.30622 9.716 7.35822 9.64 7.45022 9.448L6.97822 9.296C6.93822 9.404 6.91022 9.448 6.86222 9.504C6.74622 9.632 6.57822 9.704 6.38222 9.704C6.17822 9.704 5.99822 9.624 5.88222 9.48C5.79022 9.364 5.75422 9.252 5.73422 9.032H7.47422ZM5.74622 8.636C5.80622 8.3 6.03422 8.092 6.34622 8.092C6.53422 8.092 6.67022 8.144 6.77822 8.252C6.87822 8.352 6.92622 8.46 6.95422 8.636H5.74622ZM7.86909 6.864C7.88909 7.016 7.89709 7.144 7.89709 7.384V9.528C7.89709 9.76 7.88909 9.876 7.86909 10.048H8.44909C8.42909 9.872 8.42109 9.74 8.42109 9.528V7.388C8.42109 7.148 8.42909 7.02 8.44909 6.864H7.86909ZM8.95503 6.864V7.372H9.54303V6.864H8.95503ZM8.95503 7.752C8.97903 7.916 8.98703 8.052 8.98703 8.272V9.528C8.98703 9.728 8.97903 9.868 8.95503 10.048H9.53903C9.51903 9.88 9.51103 9.744 9.51103 9.524V8.276C9.51103 8.032 9.51903 7.9 9.53903 7.752H8.95503ZM12.225 8.976C12.193 9.16 12.161 9.244 12.093 9.344C11.965 9.532 11.725 9.64 11.445 9.64C10.885 9.64 10.533 9.184 10.533 8.452C10.533 7.716 10.877 7.272 11.445 7.272C11.693 7.272 11.893 7.356 12.029 7.52C12.109 7.612 12.145 7.688 12.201 7.864L12.757 7.736C12.709 7.584 12.681 7.512 12.633 7.428C12.533 7.252 12.389 7.104 12.209 6.992C11.989 6.86 11.753 6.8 11.441 6.8C11.041 6.8 10.681 6.936 10.441 7.18C10.141 7.48 9.97297 7.944 9.97297 8.472C9.97297 8.984 10.129 9.436 10.409 9.728C10.653 9.98 11.001 10.112 11.437 10.112C11.917 10.112 12.301 9.956 12.529 9.676C12.649 9.52 12.721 9.364 12.797 9.076L12.225 8.976ZM14.7328 10.048H15.2728C15.2488 9.868 15.2408 9.76 15.2408 9.548V8.472C15.2408 8.2 15.1888 8.048 15.0528 7.92C14.8808 7.752 14.6488 7.684 14.2648 7.684C13.9208 7.684 13.6968 7.744 13.5008 7.888C13.3488 7.996 13.2768 8.1 13.1848 8.332L13.6968 8.424C13.7448 8.28 13.7808 8.224 13.8568 8.168C13.9488 8.096 14.1128 8.052 14.2728 8.052C14.5768 8.052 14.7328 8.172 14.7328 8.404V8.608C14.1608 8.62 13.8648 8.66 13.6048 8.768C13.3288 8.884 13.1528 9.136 13.1528 9.416C13.1528 9.836 13.4488 10.088 13.9368 10.088C14.0648 10.088 14.1928 10.072 14.3088 10.04C14.4728 9.996 14.5728 9.94 14.7328 9.788V10.048ZM14.7328 9.156C14.7328 9.296 14.6848 9.412 14.5888 9.508C14.4528 9.64 14.2448 9.72 14.0328 9.72C13.8088 9.72 13.6688 9.604 13.6688 9.416C13.6688 9.104 13.9688 8.972 14.7328 8.956V9.156Z" fill="white"/>
<line x1="1" y1="12" x2="17" y2="12" stroke="white"/>
</svg>
