<svg width="68" height="43" viewBox="0 0 68 43" fill="none" xmlns="http://www.w3.org/2000/svg">
<path fill-rule="evenodd" clip-rule="evenodd" d="M0 7C0 3.13401 3.13401 0 7 0H61C64.866 0 68 3.13401 68 7V34H0V7ZM68 36H0C0 39.866 3.13401 43 7 43H61C64.866 43 68 39.866 68 36ZM8.566 21.024H12.418C13.516 21.024 14.2 21.06 14.866 21.15V18.756C14.164 18.846 13.534 18.882 12.418 18.882H8.566V15.066H13.354C14.506 15.066 15.172 15.102 15.82 15.192V12.762C15.064 12.852 14.488 12.888 13.354 12.888H8.314C7.216 12.888 6.766 12.87 6.028 12.834C6.136 13.662 6.172 14.184 6.172 15.174V24.66C6.172 25.848 6.136 26.604 6.028 27.216H8.71C8.602 26.532 8.566 25.902 8.566 24.624V21.024ZM27.134 22.644C27.098 22.23 27.098 22.176 27.098 22.14C27.044 20.916 26.918 20.268 26.576 19.404C25.856 17.604 24.2 16.56 22.094 16.56C19.016 16.56 17.018 18.738 17.018 22.068C17.018 25.434 19.034 27.558 22.22 27.558C23.732 27.558 24.992 27.09 25.928 26.172C26.378 25.722 26.612 25.38 27.026 24.516L24.902 23.832C24.722 24.318 24.596 24.516 24.38 24.768C23.858 25.344 23.102 25.668 22.22 25.668C21.302 25.668 20.492 25.308 19.97 24.66C19.556 24.138 19.394 23.634 19.304 22.644H27.134ZM19.358 20.862C19.628 19.35 20.654 18.414 22.058 18.414C22.904 18.414 23.516 18.648 24.002 19.134C24.452 19.584 24.668 20.07 24.794 20.862H19.358ZM28.9109 12.888C29.0009 13.572 29.0369 14.148 29.0369 15.228V24.876C29.0369 25.92 29.0009 26.442 28.9109 27.216H31.5209C31.4309 26.424 31.3949 25.83 31.3949 24.876V15.246C31.3949 14.166 31.4309 13.59 31.5209 12.888H28.9109ZM33.7976 12.888V15.174H36.4436V12.888H33.7976ZM33.7976 16.884C33.9056 17.622 33.9416 18.234 33.9416 19.224V24.876C33.9416 25.776 33.9056 26.406 33.7976 27.216H36.4256C36.3356 26.46 36.2996 25.848 36.2996 24.858V19.242C36.2996 18.144 36.3356 17.55 36.4256 16.884H33.7976ZM48.5124 22.392C48.3684 23.22 48.2244 23.598 47.9184 24.048C47.3424 24.894 46.2624 25.38 45.0024 25.38C42.4824 25.38 40.8984 23.328 40.8984 20.034C40.8984 16.722 42.4464 14.724 45.0024 14.724C46.1184 14.724 47.0184 15.102 47.6304 15.84C47.9904 16.254 48.1524 16.596 48.4044 17.388L50.9064 16.812C50.6904 16.128 50.5644 15.804 50.3484 15.426C49.8984 14.634 49.2504 13.968 48.4404 13.464C47.4504 12.87 46.3884 12.6 44.9844 12.6C43.1844 12.6 41.5644 13.212 40.4844 14.31C39.1344 15.66 38.3784 17.748 38.3784 20.124C38.3784 22.428 39.0804 24.462 40.3404 25.776C41.4384 26.91 43.0044 27.504 44.9664 27.504C47.1264 27.504 48.8544 26.802 49.8804 25.542C50.4204 24.84 50.7444 24.138 51.0864 22.842L48.5124 22.392ZM59.7978 27.216H62.2278C62.1198 26.406 62.0838 25.92 62.0838 24.966V20.124C62.0838 18.9 61.8498 18.216 61.2378 17.64C60.4638 16.884 59.4198 16.578 57.6918 16.578C56.1438 16.578 55.1358 16.848 54.2538 17.496C53.5698 17.982 53.2458 18.45 52.8318 19.494L55.1358 19.908C55.3518 19.26 55.5138 19.008 55.8558 18.756C56.2698 18.432 57.0078 18.234 57.7278 18.234C59.0958 18.234 59.7978 18.774 59.7978 19.818V20.736C57.2238 20.79 55.8918 20.97 54.7218 21.456C53.4798 21.978 52.6878 23.112 52.6878 24.372C52.6878 26.262 54.0198 27.396 56.2158 27.396C56.7918 27.396 57.3678 27.324 57.8898 27.18C58.6278 26.982 59.0778 26.73 59.7978 26.046V27.216ZM59.7978 23.202C59.7978 23.832 59.5818 24.354 59.1498 24.786C58.5378 25.38 57.6018 25.74 56.6478 25.74C55.6398 25.74 55.0098 25.218 55.0098 24.372C55.0098 22.968 56.3598 22.374 59.7978 22.302V23.202Z" fill="#FD6306"/>
</svg>
