<svg width="72" height="43" viewBox="0 0 72 43" fill="none" xmlns="http://www.w3.org/2000/svg">
<rect x="3" y="1" width="66" height="41" rx="6" stroke="#FD6306" stroke-width="2"/>
<path d="M10.566 21.024H14.418C15.516 21.024 16.2 21.06 16.866 21.15V18.756C16.164 18.846 15.534 18.882 14.418 18.882H10.566V15.066H15.354C16.506 15.066 17.172 15.102 17.82 15.192V12.762C17.064 12.852 16.488 12.888 15.354 12.888H10.314C9.216 12.888 8.766 12.87 8.028 12.834C8.136 13.662 8.172 14.184 8.172 15.174V24.66C8.172 25.848 8.136 26.604 8.028 27.216H10.71C10.602 26.532 10.566 25.902 10.566 24.624V21.024ZM29.134 22.644C29.098 22.23 29.098 22.176 29.098 22.14C29.044 20.916 28.918 20.268 28.576 19.404C27.856 17.604 26.2 16.56 24.094 16.56C21.016 16.56 19.018 18.738 19.018 22.068C19.018 25.434 21.034 27.558 24.22 27.558C25.732 27.558 26.992 27.09 27.928 26.172C28.378 25.722 28.612 25.38 29.026 24.516L26.902 23.832C26.722 24.318 26.596 24.516 26.38 24.768C25.858 25.344 25.102 25.668 24.22 25.668C23.302 25.668 22.492 25.308 21.97 24.66C21.556 24.138 21.394 23.634 21.304 22.644H29.134ZM21.358 20.862C21.628 19.35 22.654 18.414 24.058 18.414C24.904 18.414 25.516 18.648 26.002 19.134C26.452 19.584 26.668 20.07 26.794 20.862H21.358ZM30.9109 12.888C31.0009 13.572 31.0369 14.148 31.0369 15.228V24.876C31.0369 25.92 31.0009 26.442 30.9109 27.216H33.5209C33.4309 26.424 33.3949 25.83 33.3949 24.876V15.246C33.3949 14.166 33.4309 13.59 33.5209 12.888H30.9109ZM35.7976 12.888V15.174H38.4436V12.888H35.7976ZM35.7976 16.884C35.9056 17.622 35.9416 18.234 35.9416 19.224V24.876C35.9416 25.776 35.9056 26.406 35.7976 27.216H38.4256C38.3356 26.46 38.2996 25.848 38.2996 24.858V19.242C38.2996 18.144 38.3356 17.55 38.4256 16.884H35.7976ZM50.5124 22.392C50.3684 23.22 50.2244 23.598 49.9184 24.048C49.3424 24.894 48.2624 25.38 47.0024 25.38C44.4824 25.38 42.8984 23.328 42.8984 20.034C42.8984 16.722 44.4464 14.724 47.0024 14.724C48.1184 14.724 49.0184 15.102 49.6304 15.84C49.9904 16.254 50.1524 16.596 50.4044 17.388L52.9064 16.812C52.6904 16.128 52.5644 15.804 52.3484 15.426C51.8984 14.634 51.2504 13.968 50.4404 13.464C49.4504 12.87 48.3884 12.6 46.9844 12.6C45.1844 12.6 43.5644 13.212 42.4844 14.31C41.1344 15.66 40.3784 17.748 40.3784 20.124C40.3784 22.428 41.0804 24.462 42.3404 25.776C43.4384 26.91 45.0044 27.504 46.9664 27.504C49.1264 27.504 50.8544 26.802 51.8804 25.542C52.4204 24.84 52.7444 24.138 53.0864 22.842L50.5124 22.392ZM61.7978 27.216H64.2278C64.1198 26.406 64.0838 25.92 64.0838 24.966V20.124C64.0838 18.9 63.8498 18.216 63.2378 17.64C62.4638 16.884 61.4198 16.578 59.6918 16.578C58.1438 16.578 57.1358 16.848 56.2538 17.496C55.5698 17.982 55.2458 18.45 54.8318 19.494L57.1358 19.908C57.3518 19.26 57.5138 19.008 57.8558 18.756C58.2698 18.432 59.0078 18.234 59.7278 18.234C61.0958 18.234 61.7978 18.774 61.7978 19.818V20.736C59.2238 20.79 57.8918 20.97 56.7218 21.456C55.4798 21.978 54.6878 23.112 54.6878 24.372C54.6878 26.262 56.0198 27.396 58.2158 27.396C58.7918 27.396 59.3678 27.324 59.8898 27.18C60.6278 26.982 61.0778 26.73 61.7978 26.046V27.216ZM61.7978 23.202C61.7978 23.832 61.5818 24.354 61.1498 24.786C60.5378 25.38 59.6018 25.74 58.6478 25.74C57.6398 25.74 57.0098 25.218 57.0098 24.372C57.0098 22.968 58.3598 22.374 61.7978 22.302V23.202Z" fill="#FD6306"/>
<line x1="2" y1="33" x2="70" y2="33" stroke="#FD6306" stroke-width="2"/>
<path d="M2.65234 37H69.3963" stroke="#FD6306" stroke-width="2"/>
<line x1="2" y1="35" x2="70" y2="35" stroke="white" stroke-width="2"/>
</svg>
