<svg width="16" height="16" viewBox="0 0 16 16" fill="none" xmlns="http://www.w3.org/2000/svg">
<path fill-rule="evenodd" clip-rule="evenodd" d="M13.5443 4.40762H15V3.07429H10.7814V0.888887C10.7814 0.397968 10.3833 0 9.89219 0H6.33531C5.84421 0 5.44609 0.397968 5.44609 0.888887V3.07429H1V4.40762H2.45574L2.4741 4.73804L3.1 16H12.2H12.9L13.5259 4.73804L13.5443 4.40762ZM6.77992 3.07429V1.33333H9.44758V3.07429H6.77992ZM3.80999 4.73804L4.36178 14.6667H11.6382L12.19 4.73804H3.80999ZM5.9 6.20355V12.5012H7.23383V6.20355H5.9ZM9.05 12.5012V6.20355H10.3838V12.5012H9.05Z" fill="#8A8A83"/>
</svg>
