<svg width="100" height="100" viewBox="0 0 100 100" fill="none" xmlns="http://www.w3.org/2000/svg">
<path d="M36.88 65.48C36.32 64.44 35.84 63.32 34.84 60.76L25.96 37.68C25.04 35.24 24.8 34.6 24.6 33.64H17.64C17.44 34.68 17.12 35.68 16.36 37.68L7.56 60.76C6.84 62.6 6.04 64.4 5.44 65.48H12C12.32 63.8 12.48 63.2 13.2 61.28L14.8 56.92H27.6L29.2 61.28C29.64 62.44 30.08 64.16 30.32 65.48H36.88ZM26.16 52.32H16.24L20.4 40.48C20.52 40.12 20.52 40.12 21.16 38.24C21.6 39.56 21.72 40.04 21.88 40.48L26.16 52.32ZM46.0647 65.48C45.8247 63.96 45.7447 62.44 45.7447 60.28V53.6H53.3847C57.2247 53.6 59.9447 52.68 61.9047 50.72C63.6647 48.88 64.5847 46.4 64.5847 43.36C64.5847 40.48 63.7447 38.08 62.1047 36.48C60.1847 34.56 57.4647 33.64 53.5847 33.64H45.2247C43.1047 33.64 41.8647 33.6 40.1447 33.52C40.3847 35.32 40.4647 36.76 40.4647 38.68V60.32C40.4647 62.48 40.3847 63.88 40.1447 65.48H46.0647ZM45.7447 49V38.24H53.3847C55.5047 38.24 56.8247 38.68 57.7447 39.68C58.6247 40.6 59.0647 41.92 59.0647 43.52C59.0647 47.04 57.0647 49 53.3847 49H45.7447ZM74.5022 65.48C74.2622 63.96 74.1822 62.44 74.1822 60.28V53.6H81.8222C85.6622 53.6 88.3822 52.68 90.3422 50.72C92.1022 48.88 93.0222 46.4 93.0222 43.36C93.0222 40.48 92.1822 38.08 90.5422 36.48C88.6222 34.56 85.9022 33.64 82.0222 33.64H73.6622C71.5422 33.64 70.3022 33.6 68.5822 33.52C68.8222 35.32 68.9022 36.76 68.9022 38.68V60.32C68.9022 62.48 68.8222 63.88 68.5822 65.48H74.5022ZM74.1822 49V38.24H81.8222C83.9422 38.24 85.2622 38.68 86.1822 39.68C87.0622 40.6 87.5022 41.92 87.5022 43.52C87.5022 47.04 85.5022 49 81.8222 49H74.1822Z" fill="#7F7F7F"/>
<path d="M71.4996 56.8961C72.4586 55.2612 74.856 55.2612 75.815 56.8961L93.0767 86.3252C94.0357 87.9601 92.837 90.0038 90.919 90.0038H56.3956C54.4777 90.0038 53.2789 87.9601 54.2379 86.3252L71.4996 56.8961Z" fill="#FFC200"/>
<path fill-rule="evenodd" clip-rule="evenodd" d="M90.919 87.5514L73.6573 58.1223L56.3956 87.5514H90.919ZM75.815 56.8961C74.856 55.2612 72.4586 55.2612 71.4996 56.8961L54.2379 86.3252C53.2789 87.9601 54.4777 90.0038 56.3956 90.0038H90.919C92.837 90.0038 94.0357 87.9601 93.0767 86.3252L75.815 56.8961Z" fill="black"/>
<path d="M74.8622 78.587C74.8223 78.1946 74.8223 77.9984 74.8223 77.763C74.8223 77.4883 74.8223 77.4883 74.8622 76.3308L75.1412 69.6602C75.1811 68.8165 75.2608 67.7963 75.3206 67.2666H72.0517C72.1315 67.8159 72.1913 68.7969 72.2311 69.6602L72.5102 76.3308C72.57 77.5275 72.57 77.5275 72.57 77.7433C72.57 77.9788 72.55 78.175 72.5301 78.587H74.8622ZM75.1412 82.8836V80.1958H72.251V82.8836H75.1412Z" fill="black"/>
</svg>
