<svg width="100" height="100" viewBox="0 0 100 100" fill="none" xmlns="http://www.w3.org/2000/svg">
<path fill-rule="evenodd" clip-rule="evenodd" d="M20.0286 35C20.3625 38.8759 23.58 41.9167 27.5 41.9167C31.42 41.9167 34.6375 38.8759 34.9714 35H20.0286ZM42.5286 35C42.8625 38.8759 46.08 41.9167 50 41.9167C53.92 41.9167 57.1375 38.8759 57.4714 35H42.5286ZM65.0286 35C65.3625 38.8759 68.58 41.9167 72.5 41.9167C76.6421 41.9167 80 38.5215 80 34.3333C80 30.1452 76.6421 26.75 72.5 26.75C71.9863 26.75 71.4847 26.8022 71 26.9017V31C71 33.2091 69.2091 35 67 35H65.0286ZM71 19.015C71.4847 19.1144 71.9863 19.1667 72.5 19.1667C76.6421 19.1667 80 15.7715 80 11.5833C80 7.39517 76.6421 4 72.5 4C71.9863 4 71.4847 4.05222 71 4.15169V19.015ZM27.5 64.6667C31.6421 64.6667 35 61.2715 35 57.0833C35 52.8952 31.6421 49.5 27.5 49.5C23.3579 49.5 20 52.8952 20 57.0833C20 61.2715 23.3579 64.6667 27.5 64.6667ZM80 57.0833C80 61.2715 76.6421 64.6667 72.5 64.6667C68.3579 64.6667 65 61.2715 65 57.0833C65 52.8952 68.3579 49.5 72.5 49.5C76.6421 49.5 80 52.8952 80 57.0833ZM50 49.5C45.8579 49.5 42.5 52.8952 42.5 57.0833V79.8333C42.5 88.2096 49.2157 95 57.5 95C65.7843 95 72.5 88.2096 72.5 79.8333C72.5 71.457 65.7843 64.6667 57.5 64.6667V57.0833C57.5 52.8952 54.1421 49.5 50 49.5Z" fill="#7F7F7F"/>
<rect x="9.5" y="3.5" width="58" height="28" rx="2.5" stroke="#7F7F7F"/>
<path d="M29.9141 17.0703V17.8789C29.9141 19.1758 29.7383 20.3398 29.3867 21.3711C29.0352 22.4023 28.5391 23.2812 27.8984 24.0078C27.2578 24.7266 26.4922 25.2773 25.6016 25.6602C24.7188 26.043 23.7383 26.2344 22.6602 26.2344C21.5898 26.2344 20.6094 26.043 19.7188 25.6602C18.8359 25.2773 18.0703 24.7266 17.4219 24.0078C16.7734 23.2812 16.2695 22.4023 15.9102 21.3711C15.5586 20.3398 15.3828 19.1758 15.3828 17.8789V17.0703C15.3828 15.7656 15.5586 14.6016 15.9102 13.5781C16.2617 12.5469 16.7578 11.668 17.3984 10.9414C18.0469 10.2148 18.8125 9.66016 19.6953 9.27734C20.5859 8.89453 21.5664 8.70312 22.6367 8.70312C23.7148 8.70312 24.6953 8.89453 25.5781 9.27734C26.4688 9.66016 27.2344 10.2148 27.875 10.9414C28.5234 11.668 29.0234 12.5469 29.375 13.5781C29.7344 14.6016 29.9141 15.7656 29.9141 17.0703ZM26.3633 17.8789V17.0469C26.3633 16.1406 26.2812 15.3438 26.1172 14.6562C25.9531 13.9688 25.7109 13.3906 25.3906 12.9219C25.0703 12.4531 24.6797 12.1016 24.2188 11.8672C23.7578 11.625 23.2305 11.5039 22.6367 11.5039C22.043 11.5039 21.5156 11.625 21.0547 11.8672C20.6016 12.1016 20.2148 12.4531 19.8945 12.9219C19.582 13.3906 19.3438 13.9688 19.1797 14.6562C19.0156 15.3438 18.9336 16.1406 18.9336 17.0469V17.8789C18.9336 18.7773 19.0156 19.5742 19.1797 20.2695C19.3438 20.957 19.5859 21.5391 19.9062 22.0156C20.2266 22.4844 20.6172 22.8398 21.0781 23.082C21.5391 23.3242 22.0664 23.4453 22.6602 23.4453C23.2539 23.4453 23.7812 23.3242 24.2422 23.082C24.7031 22.8398 25.0898 22.4844 25.4023 22.0156C25.7148 21.5391 25.9531 20.957 26.1172 20.2695C26.2812 19.5742 26.3633 18.7773 26.3633 17.8789ZM41.8672 8.9375H45.3711V20.2109C45.3711 21.5234 45.0898 22.6289 44.5273 23.5273C43.9727 24.4258 43.2031 25.1016 42.2188 25.5547C41.2422 26.0078 40.1172 26.2344 38.8438 26.2344C37.5703 26.2344 36.4375 26.0078 35.4453 25.5547C34.4609 25.1016 33.6875 24.4258 33.125 23.5273C32.5703 22.6289 32.293 21.5234 32.293 20.2109V8.9375H35.8086V20.2109C35.8086 20.9766 35.9297 21.6016 36.1719 22.0859C36.4141 22.5703 36.7617 22.9258 37.2148 23.1523C37.6758 23.3789 38.2188 23.4922 38.8438 23.4922C39.4844 23.4922 40.0273 23.3789 40.4727 23.1523C40.9258 22.9258 41.2695 22.5703 41.5039 22.0859C41.7461 21.6016 41.8672 20.9766 41.8672 20.2109V8.9375ZM55.8945 8.9375V26H52.3906V8.9375H55.8945ZM61.1445 8.9375V11.6914H47.2227V8.9375H61.1445Z" fill="#7F7F7F"/>
<path d="M71.4996 56.8961C72.4586 55.2612 74.856 55.2612 75.815 56.8961L93.0767 86.3252C94.0357 87.9601 92.837 90.0038 90.919 90.0038H56.3956C54.4777 90.0038 53.2789 87.9601 54.2379 86.3252L71.4996 56.8961Z" fill="#FFC200"/>
<path fill-rule="evenodd" clip-rule="evenodd" d="M90.919 87.5514L73.6573 58.1223L56.3956 87.5514H90.919ZM75.815 56.8961C74.856 55.2612 72.4586 55.2612 71.4996 56.8961L54.2379 86.3252C53.2789 87.9601 54.4777 90.0038 56.3956 90.0038H90.919C92.837 90.0038 94.0357 87.9601 93.0767 86.3252L75.815 56.8961Z" fill="black"/>
<path d="M74.8622 78.587C74.8223 78.1946 74.8223 77.9984 74.8223 77.763C74.8223 77.4883 74.8223 77.4883 74.8622 76.3308L75.1412 69.6602C75.1811 68.8165 75.2608 67.7963 75.3206 67.2666H72.0517C72.1315 67.8159 72.1913 68.7969 72.2311 69.6602L72.5102 76.3308C72.57 77.5275 72.57 77.5275 72.57 77.7433C72.57 77.9788 72.55 78.175 72.5301 78.587H74.8622ZM75.1412 82.8836V80.1958H72.251V82.8836H75.1412Z" fill="black"/>
</svg>
