<svg width="100" height="100" viewBox="0 0 100 100" fill="none" xmlns="http://www.w3.org/2000/svg">
<path fill-rule="evenodd" clip-rule="evenodd" d="M27.5 19.1667C31.6421 19.1667 35 15.7715 35 11.5833C35 7.39517 31.6421 4 27.5 4C23.3579 4 20 7.39517 20 11.5833C20 15.7715 23.3579 19.1667 27.5 19.1667ZM50 19.1667C54.1421 19.1667 57.5 15.7715 57.5 11.5833C57.5 7.39517 54.1421 4 50 4C45.8579 4 42.5 7.39517 42.5 11.5833C42.5 15.7715 45.8579 19.1667 50 19.1667ZM80 11.5833C80 15.7715 76.6421 19.1667 72.5 19.1667C68.3579 19.1667 65 15.7715 65 11.5833C65 7.39517 68.3579 4 72.5 4C76.6421 4 80 7.39517 80 11.5833ZM72.5 41.9167C76.6421 41.9167 80 38.5215 80 34.3333C80 30.1452 76.6421 26.75 72.5 26.75C68.3579 26.75 65 30.1452 65 34.3333C65 38.5215 68.3579 41.9167 72.5 41.9167ZM57.5 34.3333C57.5 38.5215 54.1421 41.9167 50 41.9167C45.8579 41.9167 42.5 38.5215 42.5 34.3333C42.5 30.1452 45.8579 26.75 50 26.75C54.1421 26.75 57.5 30.1452 57.5 34.3333ZM27.5 41.9167C31.6421 41.9167 35 38.5215 35 34.3333C35 30.1452 31.6421 26.75 27.5 26.75C23.3579 26.75 20 30.1452 20 34.3333C20 38.5215 23.3579 41.9167 27.5 41.9167ZM35 57.0833C35 61.2715 31.6421 64.6667 27.5 64.6667C23.3579 64.6667 20 61.2715 20 57.0833C20 52.8952 23.3579 49.5 27.5 49.5C31.6421 49.5 35 52.8952 35 57.0833ZM72.5 64.6667C76.6421 64.6667 80 61.2715 80 57.0833C80 52.8952 76.6421 49.5 72.5 49.5C68.3579 49.5 65 52.8952 65 57.0833C65 61.2715 68.3579 64.6667 72.5 64.6667ZM42.5 57.0833C42.5 52.8952 45.8579 49.5 50 49.5C54.1421 49.5 57.5 52.8952 57.5 57.0833V64.6667C65.7843 64.6667 72.5 71.457 72.5 79.8333C72.5 88.2096 65.7843 95 57.5 95C49.2157 95 42.5 88.2096 42.5 79.8333V57.0833Z" fill="#7F7F7F"/>
<path d="M71.4996 56.8961C72.4586 55.2612 74.856 55.2612 75.815 56.8961L93.0767 86.3252C94.0357 87.9601 92.837 90.0038 90.919 90.0038H56.3956C54.4777 90.0038 53.2789 87.9601 54.2379 86.3252L71.4996 56.8961Z" fill="#FFC200"/>
<path fill-rule="evenodd" clip-rule="evenodd" d="M90.919 87.5514L73.6573 58.1223L56.3956 87.5514H90.919ZM75.815 56.8961C74.856 55.2612 72.4586 55.2612 71.4996 56.8961L54.2379 86.3252C53.2789 87.9601 54.4777 90.0038 56.3956 90.0038H90.919C92.837 90.0038 94.0357 87.9601 93.0767 86.3252L75.815 56.8961Z" fill="black"/>
<path d="M74.8622 78.587C74.8223 78.1946 74.8223 77.9984 74.8223 77.763C74.8223 77.4883 74.8223 77.4883 74.8622 76.3308L75.1412 69.6602C75.1811 68.8165 75.2608 67.7963 75.3206 67.2666H72.0517C72.1315 67.8159 72.1913 68.7969 72.2311 69.6602L72.5102 76.3308C72.57 77.5275 72.57 77.5275 72.57 77.7433C72.57 77.9788 72.55 78.175 72.5301 78.587H74.8622ZM75.1412 82.8836V80.1958H72.251V82.8836H75.1412Z" fill="black"/>
</svg>
