<svg width="100" height="100" viewBox="0 0 100 100" fill="none" xmlns="http://www.w3.org/2000/svg">
<path fill-rule="evenodd" clip-rule="evenodd" d="M20.0286 35C20.3625 38.8759 23.58 41.9167 27.5 41.9167C31.42 41.9167 34.6375 38.8759 34.9714 35H20.0286ZM42.5286 35C42.8625 38.8759 46.08 41.9167 50 41.9167C53.92 41.9167 57.1375 38.8759 57.4714 35H42.5286ZM65.0286 35C65.3625 38.8759 68.58 41.9167 72.5 41.9167C76.6421 41.9167 80 38.5215 80 34.3333C80 30.1452 76.6421 26.75 72.5 26.75C71.9863 26.75 71.4847 26.8022 71 26.9017V31C71 33.2091 69.2091 35 67 35H65.0286ZM71 19.015C71.4847 19.1144 71.9863 19.1667 72.5 19.1667C76.6421 19.1667 80 15.7715 80 11.5833C80 7.39517 76.6421 4 72.5 4C71.9863 4 71.4847 4.05222 71 4.15169V19.015ZM27.5 64.6667C31.6421 64.6667 35 61.2715 35 57.0833C35 52.8952 31.6421 49.5 27.5 49.5C23.3579 49.5 20 52.8952 20 57.0833C20 61.2715 23.3579 64.6667 27.5 64.6667ZM80 57.0833C80 61.2715 76.6421 64.6667 72.5 64.6667C68.3579 64.6667 65 61.2715 65 57.0833C65 52.8952 68.3579 49.5 72.5 49.5C76.6421 49.5 80 52.8952 80 57.0833ZM50 49.5C45.8579 49.5 42.5 52.8952 42.5 57.0833V79.8333C42.5 88.2096 49.2157 95 57.5 95C65.7843 95 72.5 88.2096 72.5 79.8333C72.5 71.457 65.7843 64.6667 57.5 64.6667V57.0833C57.5 52.8952 54.1421 49.5 50 49.5Z" fill="#7F7F7F"/>
<rect x="9.5" y="3.5" width="58" height="28" rx="2.5" stroke="#7F7F7F"/>
<path d="M31.2734 8.9375V26H27.7695V8.9375H31.2734ZM48.4531 8.9375V26H44.9375L38.082 14.5625V26H34.5664V8.9375H38.082L44.9492 20.3867V8.9375H48.4531Z" fill="#7F7F7F"/>
<path d="M71.4996 56.8961C72.4586 55.2612 74.856 55.2612 75.815 56.8961L93.0767 86.3252C94.0357 87.9601 92.837 90.0038 90.919 90.0038H56.3956C54.4777 90.0038 53.2789 87.9601 54.2379 86.3252L71.4996 56.8961Z" fill="#FFC200"/>
<path fill-rule="evenodd" clip-rule="evenodd" d="M90.919 87.5514L73.6573 58.1223L56.3956 87.5514H90.919ZM75.815 56.8961C74.856 55.2612 72.4586 55.2612 71.4996 56.8961L54.2379 86.3252C53.2789 87.9601 54.4777 90.0038 56.3956 90.0038H90.919C92.837 90.0038 94.0357 87.9601 93.0767 86.3252L75.815 56.8961Z" fill="black"/>
<path d="M74.8622 78.587C74.8223 78.1946 74.8223 77.9984 74.8223 77.763C74.8223 77.4883 74.8223 77.4883 74.8622 76.3308L75.1412 69.6602C75.1811 68.8165 75.2608 67.7963 75.3206 67.2666H72.0517C72.1315 67.8159 72.1913 68.7969 72.2311 69.6602L72.5102 76.3308C72.57 77.5275 72.57 77.5275 72.57 77.7433C72.57 77.9788 72.55 78.175 72.5301 78.587H74.8622ZM75.1412 82.8836V80.1958H72.251V82.8836H75.1412Z" fill="black"/>
</svg>
