<svg width="100" height="100" viewBox="0 0 100 100" fill="none" xmlns="http://www.w3.org/2000/svg">
<path d="M31.7426 53.6695C31.5483 53.2575 31.3091 52.6542 31.025 51.8743L27.7811 43.0161C27.4821 42.2363 27.3775 41.8537 27.2728 41.427H23.3711C23.2964 41.8537 23.1618 42.2951 22.8927 43.0161L19.6638 51.8743C19.305 52.8749 19.1704 53.228 18.9462 53.6695H22.4443C22.519 53.125 22.6237 52.6689 22.818 52.0803L23.2216 50.8296H27.4821L27.8857 52.0803C28.0352 52.5806 28.1249 52.9632 28.2445 53.6695H31.7426ZM26.7496 48.3575H23.9392L25.3294 43.9432L26.7496 48.3575Z" fill="#7F7F7F"/>
<path d="M40.9829 41.427C41.0726 42.0891 41.1025 42.5453 41.1025 43.6489V48.7107C41.1025 50.5647 40.2504 51.4476 38.4565 51.4476C36.7074 51.4476 35.8553 50.5647 35.8553 48.7107V43.6489C35.8553 42.56 35.8852 41.9714 35.9749 41.427H32.7459C32.8356 41.9861 32.8655 42.6336 32.8655 43.6489V48.6812C32.8655 50.3293 33.314 51.6094 34.181 52.5217C35.078 53.4487 36.5878 53.9638 38.4415 53.9638C42.0442 53.9638 44.0923 52.0656 44.0923 48.7107V43.6489C44.0923 42.5894 44.1222 42.0597 44.2119 41.427H40.9829Z" fill="#7F7F7F"/>
<path d="M52.4147 44.0314H54.1039C55.1803 44.0314 55.7633 44.0609 56.436 44.1344V41.324C55.7483 41.3975 55.1504 41.427 54.1039 41.427H47.5562C46.6444 41.427 45.8222 41.3828 45.3288 41.324V44.1344C46.3902 44.0462 46.6444 44.0314 47.5861 44.0314H49.3501V51.4476C49.3501 52.3746 49.3202 52.9779 49.2305 53.6695H52.5343C52.4446 52.9779 52.4147 52.3304 52.4147 51.4476V44.0314Z" fill="#7F7F7F"/>
<path d="M63.2593 41.1621C59.5818 41.1621 57.2199 43.6489 57.2199 47.5335C57.2199 51.4329 59.5818 53.949 63.2444 53.949C66.877 53.949 69.2838 51.374 69.2838 47.4894C69.2838 43.6342 66.9368 41.1621 63.2593 41.1621ZM63.2593 51.4034C61.4355 51.4034 60.3143 49.9173 60.3143 47.5188C60.3143 45.1497 61.4355 43.693 63.2593 43.693C65.0681 43.693 66.1744 45.135 66.1744 47.5188C66.1744 49.932 65.0681 51.4034 63.2593 51.4034Z" fill="#7F7F7F"/>
<path fill-rule="evenodd" clip-rule="evenodd" d="M44.254 85.7412C53.2714 85.8313 62.0625 82.7713 69.0588 77.1071L64.8573 72.0791C59.0852 76.7522 51.8324 79.2768 44.3927 79.2024C36.9531 79.1281 29.8105 76.4597 24.2392 71.6732C18.6678 66.8867 15.03 60.2935 13.9747 53.0698C12.9194 45.846 14.5152 38.4614 18.4775 32.2335C22.4399 26.0055 28.5109 21.3392 35.6078 19.0669C42.7046 16.7947 50.3656 17.0642 57.2241 19.8276C64.0826 22.5909 69.6926 27.6683 73.0532 34.1539C76.3951 40.6033 77.2966 48.028 75.6012 55.1176L66.8604 55.106L79.0225 69.3807L91.2234 55.1381L82.3919 55.1265C84.0071 46.9685 82.8207 38.5256 78.993 31.1386C74.9195 23.2774 68.1198 17.1232 59.8067 13.7738C51.4935 10.4244 42.2078 10.0976 33.6058 12.8518C25.0038 15.606 17.6452 21.262 12.8425 28.8108C8.03983 36.3596 6.10552 45.3103 7.38463 54.0662C8.66374 62.822 13.0731 70.8136 19.8261 76.6152C26.5791 82.4168 35.2365 85.6511 44.254 85.7412Z" fill="#7F7F7F"/>
<path d="M71.4951 56.8922C72.4541 55.2573 74.8515 55.2573 75.8105 56.8922L93.0722 86.3213C94.0312 87.9562 92.8325 89.9999 90.9145 89.9999H56.3911C54.4731 89.9999 53.2744 87.9562 54.2334 86.3213L71.4951 56.8922Z" fill="#FFC200"/>
<path fill-rule="evenodd" clip-rule="evenodd" d="M90.9145 87.5475L73.6528 58.1184L56.3911 87.5475H90.9145ZM75.8105 56.8922C74.8515 55.2573 72.4541 55.2573 71.4951 56.8922L54.2334 86.3213C53.2744 87.9562 54.4731 89.9999 56.3911 89.9999H90.9145C92.8325 89.9999 94.0312 87.9562 93.0722 86.3213L75.8105 56.8922Z" fill="black"/>
<path d="M74.8576 78.5831C74.8178 78.1907 74.8178 77.9945 74.8178 77.7591C74.8178 77.4844 74.8178 77.4844 74.8576 76.3268L75.1367 69.6563C75.1765 68.8126 75.2563 67.7924 75.3161 67.2627H72.0472C72.1269 67.812 72.1867 68.793 72.2266 69.6563L72.5056 76.3268C72.5654 77.5236 72.5654 77.5236 72.5654 77.7394C72.5654 77.9749 72.5455 78.1711 72.5256 78.5831H74.8576ZM75.1367 82.8797V80.1919H72.2465V82.8797H75.1367Z" fill="black"/>
</svg>
