<svg width="72" height="72" viewBox="0 0 72 72" fill="none" xmlns="http://www.w3.org/2000/svg">
<path d="M72 36C72 55.8822 55.8822 72 36 72C16.1178 72 0 55.8822 0 36C0 16.1178 16.1178 0 36 0C55.8822 0 72 16.1178 72 36Z" fill="#7F7F7F"/>
<path fill-rule="evenodd" clip-rule="evenodd" d="M36.0009 39.4839C43.6972 39.4839 49.9364 33.2448 49.9364 25.5484C49.9364 17.852 43.6972 11.6129 36.0009 11.6129C28.3045 11.6129 22.0654 17.852 22.0654 25.5484C22.0654 33.2448 28.3045 39.4839 36.0009 39.4839ZM15.0977 49.9355C15.0977 45.4949 18.8054 41.5834 24.4323 39.2943C27.38 42.2793 31.4744 44.1291 36.0009 44.1291C40.5274 44.1291 44.6218 42.2793 47.5695 39.2943C53.1963 41.5834 56.9041 45.4949 56.9041 49.9355C56.9041 56.9905 47.5454 62.7097 36.0009 62.7097C24.4563 62.7097 15.0977 56.9905 15.0977 49.9355Z" fill="white"/>
</svg>
