<svg width="100" height="100" viewBox="0 0 100 100" fill="none" xmlns="http://www.w3.org/2000/svg">
<path fill-rule="evenodd" clip-rule="evenodd" d="M7 38V66.75H92.25V27C92.25 24.7909 90.4591 23 88.25 23H62V34C62 36.2091 60.2091 38 58 38H7ZM92.25 69.75H7V74C7 76.2091 8.79086 78 11 78H88.25C90.4591 78 92.25 76.2091 92.25 74V69.75ZM66.1953 57.0108C66.5546 56.4994 66.7237 56.0698 66.8928 55.1288L69.9157 55.6402C69.5141 57.1131 69.1336 57.9109 68.4994 58.7088C67.2945 60.1408 65.2651 60.9386 62.7285 60.9386C60.4243 60.9386 58.5853 60.2635 57.2958 58.9747C55.8161 57.4813 54.9917 55.1697 54.9917 52.5511C54.9917 49.8508 55.8795 47.4777 57.4649 45.9434C58.7332 44.6955 60.6357 44 62.7496 44C64.3985 44 65.6456 44.3069 66.8083 44.9819C67.7595 45.5548 68.5205 46.3117 69.049 47.2118C69.3027 47.6414 69.4506 48.0096 69.7043 48.787L66.766 49.4416C66.4701 48.5415 66.2798 48.1528 65.857 47.6823C65.1383 46.8436 64.0814 46.414 62.7708 46.414C59.769 46.414 57.9511 48.6847 57.9511 52.4489C57.9511 56.1925 59.8113 58.5247 62.7708 58.5247C64.2505 58.5247 65.5188 57.9723 66.1953 57.0108ZM19.9806 53.574H24.5043C25.7938 53.574 26.597 53.6149 27.3792 53.7172V50.9964C26.5548 51.0987 25.8149 51.1396 24.5043 51.1396H19.9806V46.8026H25.6035C26.9564 46.8026 27.7385 46.8436 28.4995 46.9458V44.1841C27.6117 44.2864 26.9353 44.3273 25.6035 44.3273H19.6846C18.3952 44.3273 17.8667 44.3069 17 44.2659C17.1268 45.207 17.1691 45.8002 17.1691 46.9254V57.7064C17.1691 59.0566 17.1268 59.9158 17 60.6113H20.1497C20.0229 59.8339 19.9806 59.1179 19.9806 57.6655V53.574ZM41.7865 55.4152C41.7442 54.9446 41.7442 54.8833 41.7442 54.8424C41.6808 53.4513 41.5328 52.7148 41.1312 51.7329C40.2856 49.6871 38.3408 48.5006 35.8676 48.5006C32.2528 48.5006 29.9064 50.9759 29.9064 54.7605C29.9064 58.586 32.274 61 36.0156 61C37.7912 61 39.271 60.4681 40.3702 59.4248C40.8986 58.9134 41.1735 58.5247 41.6596 57.5427L39.1653 56.7653C38.9539 57.3177 38.8059 57.5427 38.5522 57.8291C37.9392 58.4838 37.0514 58.852 36.0156 58.852C34.9375 58.852 33.9862 58.4428 33.3732 57.7064C32.887 57.1131 32.6968 56.5403 32.5911 55.4152H41.7865ZM32.6545 53.3899C32.9716 51.6715 34.1765 50.6077 35.8253 50.6077C36.8188 50.6077 37.5376 50.8736 38.1083 51.426C38.6368 51.9374 38.8905 52.4898 39.0384 53.3899H32.6545ZM44.0213 46.9868C44.0213 45.7593 43.979 45.1047 43.8733 44.3273H46.9384C46.8327 45.1251 46.7904 45.7798 46.7904 47.0072V57.9519C46.7904 59.0361 46.8327 59.7112 46.9384 60.6113H43.8733C43.979 59.7316 44.0213 59.1384 44.0213 57.9519V46.9868ZM49.6122 44.3273V46.9254H52.7196V44.3273H49.6122ZM49.6122 48.8688C49.739 49.7076 49.7813 50.4031 49.7813 51.5283V57.9519C49.7813 58.9747 49.739 59.6907 49.6122 60.6113H52.6984C52.5927 59.7521 52.5505 59.0566 52.5505 57.9314V51.5487C52.5505 50.3008 52.5927 49.6258 52.6984 48.8688H49.6122ZM80.1462 60.6113H83C82.8732 59.6907 82.8309 59.1384 82.8309 58.0541V52.5511C82.8309 51.16 82.5561 50.3827 81.8374 49.728C80.9284 48.8688 79.7023 48.5211 77.673 48.5211C75.8551 48.5211 74.6713 48.8279 73.6355 49.5644C72.8322 50.1167 72.4517 50.6486 71.9655 51.8351L74.6713 52.3057C74.925 51.5692 75.1152 51.2828 75.5168 50.9964C76.003 50.6282 76.8697 50.4031 77.7153 50.4031C79.3218 50.4031 80.1462 51.0168 80.1462 52.2034V53.2467C77.1234 53.3081 75.5591 53.5126 74.1851 54.065C72.7265 54.6582 71.7964 55.9471 71.7964 57.3791C71.7964 59.5271 73.3607 60.8159 75.9396 60.8159C76.6161 60.8159 77.2925 60.7341 77.9055 60.5704C78.7722 60.3454 79.3007 60.059 80.1462 59.2816V60.6113ZM80.1462 56.0493C80.1462 56.7653 79.8926 57.3586 79.3853 57.8496C78.6665 58.5247 77.5673 58.9338 76.4469 58.9338C75.2632 58.9338 74.5233 58.3406 74.5233 57.3791C74.5233 55.7834 76.1087 55.1083 80.1462 55.0265V56.0493Z" fill="#7F7F7F"/>
<rect x="0.5" y="6.5" width="58" height="28" rx="2.5" stroke="#7F7F7F"/>
<path d="M22.2734 11.9375V29H18.7695V11.9375H22.2734ZM39.4531 11.9375V29H35.9375L29.082 17.5625V29H25.5664V11.9375H29.082L35.9492 23.3867V11.9375H39.4531Z" fill="#7F7F7F"/>
<path d="M69.5992 57.2262C70.5582 55.5913 72.9556 55.5913 73.9146 57.2262L91.1763 86.6553C92.1353 88.2902 90.9366 90.3339 89.0186 90.3339H54.4952C52.5773 90.3339 51.3785 88.2902 52.3375 86.6553L69.5992 57.2262Z" fill="#FFC200"/>
<path fill-rule="evenodd" clip-rule="evenodd" d="M89.0186 87.8815L71.7569 58.4524L54.4952 87.8815H89.0186ZM73.9146 57.2262C72.9556 55.5913 70.5582 55.5913 69.5992 57.2262L52.3375 86.6553C51.3785 88.2902 52.5773 90.3339 54.4952 90.3339H89.0186C90.9366 90.3339 92.1353 88.2902 91.1763 86.6553L73.9146 57.2262Z" fill="black"/>
<path d="M72.9618 78.9171C72.9219 78.5247 72.9219 78.3285 72.9219 78.093C72.9219 77.8184 72.9219 77.8184 72.9618 76.6608L73.2408 69.9902C73.2807 69.1466 73.3604 68.1264 73.4202 67.5967H70.1513C70.2311 68.146 70.2909 69.127 70.3307 69.9902L70.6098 76.6608C70.6696 77.8576 70.6696 77.8576 70.6696 78.0734C70.6696 78.3089 70.6496 78.5051 70.6297 78.9171H72.9618ZM73.2408 83.2137V80.5258H70.3507V83.2137H73.2408Z" fill="black"/>
</svg>
