<svg width="100" height="100" viewBox="0 0 100 100" fill="none" xmlns="http://www.w3.org/2000/svg">
<rect x="7" y="23" width="85.25" height="55" rx="4" fill="#7F7F7F"/>
<line x1="7" y1="68.25" x2="92.25" y2="68.25" stroke="white" stroke-width="3"/>
<path d="M19.9806 48.574H24.5043C25.7938 48.574 26.597 48.6149 27.3792 48.7172V45.9964C26.5548 46.0987 25.8149 46.1396 24.5043 46.1396H19.9806V41.8026H25.6035C26.9564 41.8026 27.7385 41.8436 28.4995 41.9458V39.1841C27.6117 39.2864 26.9353 39.3273 25.6035 39.3273H19.6846C18.3952 39.3273 17.8667 39.3069 17 39.2659C17.1268 40.207 17.1691 40.8002 17.1691 41.9254V52.7064C17.1691 54.0566 17.1268 54.9158 17 55.6113H20.1497C20.0229 54.8339 19.9806 54.1179 19.9806 52.6655V48.574Z" fill="white"/>
<path d="M41.7865 50.4152C41.7442 49.9446 41.7442 49.8833 41.7442 49.8424C41.6808 48.4513 41.5328 47.7148 41.1312 46.7329C40.2856 44.6871 38.3408 43.5006 35.8676 43.5006C32.2528 43.5006 29.9064 45.9759 29.9064 49.7605C29.9064 53.586 32.274 56 36.0156 56C37.7912 56 39.271 55.4681 40.3702 54.4248C40.8986 53.9134 41.1735 53.5247 41.6596 52.5427L39.1653 51.7653C38.9539 52.3177 38.8059 52.5427 38.5522 52.8291C37.9392 53.4838 37.0514 53.852 36.0156 53.852C34.9375 53.852 33.9862 53.4428 33.3732 52.7064C32.887 52.1131 32.6968 51.5403 32.5911 50.4152H41.7865ZM32.6545 48.3899C32.9716 46.6715 34.1765 45.6077 35.8253 45.6077C36.8188 45.6077 37.5376 45.8736 38.1083 46.426C38.6368 46.9374 38.8905 47.4898 39.0384 48.3899H32.6545Z" fill="white"/>
<path d="M43.8733 39.3273C43.979 40.1047 44.0213 40.7593 44.0213 41.9868V52.9519C44.0213 54.1384 43.979 54.7316 43.8733 55.6113H46.9384C46.8327 54.7112 46.7904 54.0361 46.7904 52.9519V42.0072C46.7904 40.7798 46.8327 40.1251 46.9384 39.3273H43.8733Z" fill="white"/>
<path d="M49.6122 39.3273V41.9254H52.7196V39.3273H49.6122ZM49.6122 43.8688C49.739 44.7076 49.7813 45.4031 49.7813 46.5283V52.9519C49.7813 53.9747 49.739 54.6907 49.6122 55.6113H52.6984C52.5927 54.7521 52.5505 54.0566 52.5505 52.9314V46.5487C52.5505 45.3008 52.5927 44.6258 52.6984 43.8688H49.6122Z" fill="white"/>
<path d="M66.8928 50.1288C66.7237 51.0698 66.5546 51.4994 66.1953 52.0108C65.5188 52.9723 64.2505 53.5247 62.7708 53.5247C59.8113 53.5247 57.9511 51.1925 57.9511 47.4489C57.9511 43.6847 59.769 41.414 62.7708 41.414C64.0814 41.414 65.1383 41.8436 65.857 42.6823C66.2798 43.1528 66.4701 43.5415 66.766 44.4416L69.7043 43.787C69.4506 43.0096 69.3027 42.6414 69.049 42.2118C68.5205 41.3117 67.7595 40.5548 66.8083 39.9819C65.6457 39.3069 64.3985 39 62.7496 39C60.6357 39 58.7332 39.6955 57.4649 40.9434C55.8795 42.4777 54.9917 44.8508 54.9917 47.5511C54.9917 50.1697 55.8161 52.4813 57.2958 53.9747C58.5853 55.2635 60.4244 55.9386 62.7285 55.9386C65.2651 55.9386 67.2945 55.1408 68.4994 53.7088C69.1336 52.911 69.5141 52.1131 69.9157 50.6402L66.8928 50.1288Z" fill="white"/>
<path d="M80.1462 55.6113H83C82.8732 54.6907 82.8309 54.1384 82.8309 53.0542V47.5511C82.8309 46.16 82.5561 45.3827 81.8374 44.728C80.9284 43.8688 79.7023 43.5211 77.673 43.5211C75.8551 43.5211 74.6713 43.8279 73.6355 44.5644C72.8322 45.1167 72.4517 45.6486 71.9655 46.8351L74.6713 47.3057C74.925 46.5692 75.1152 46.2828 75.5168 45.9964C76.003 45.6282 76.8697 45.4031 77.7153 45.4031C79.3218 45.4031 80.1462 46.0168 80.1462 47.2034V48.2467C77.1234 48.3081 75.5591 48.5126 74.1851 49.065C72.7265 49.6582 71.7964 50.9471 71.7964 52.3791C71.7964 54.5271 73.3607 55.8159 75.9396 55.8159C76.6161 55.8159 77.2925 55.7341 77.9055 55.5704C78.7722 55.3454 79.3007 55.059 80.1462 54.2816V55.6113ZM80.1462 51.0493C80.1462 51.7653 79.8926 52.3586 79.3853 52.8496C78.6665 53.5247 77.5673 53.9338 76.4469 53.9338C75.2632 53.9338 74.5233 53.3406 74.5233 52.3791C74.5233 50.7834 76.1087 50.1083 80.1462 50.0265V51.0493Z" fill="white"/>
<path d="M71.4996 56.8961C72.4586 55.2612 74.856 55.2612 75.815 56.8961L93.0767 86.3252C94.0357 87.9601 92.837 90.0038 90.919 90.0038H56.3956C54.4777 90.0038 53.2789 87.9601 54.2379 86.3252L71.4996 56.8961Z" fill="#FFC200"/>
<path fill-rule="evenodd" clip-rule="evenodd" d="M90.919 87.5514L73.6573 58.1223L56.3956 87.5514H90.919ZM75.815 56.8961C74.856 55.2612 72.4586 55.2612 71.4996 56.8961L54.2379 86.3252C53.2789 87.9601 54.4777 90.0038 56.3956 90.0038H90.919C92.837 90.0038 94.0357 87.9601 93.0767 86.3252L75.815 56.8961Z" fill="black"/>
<path d="M74.8622 78.587C74.8223 78.1946 74.8223 77.9984 74.8223 77.763C74.8223 77.4883 74.8223 77.4883 74.8622 76.3308L75.1412 69.6602C75.1811 68.8165 75.2608 67.7963 75.3206 67.2666H72.0517C72.1315 67.8159 72.1913 68.7969 72.2311 69.6602L72.5102 76.3308C72.57 77.5275 72.57 77.5275 72.57 77.7433C72.57 77.9788 72.55 78.175 72.5301 78.587H74.8622ZM75.1412 82.8836V80.1958H72.251V82.8836H75.1412Z" fill="black"/>
</svg>
