<svg width="100" height="100" viewBox="0 0 100 100" fill="none" xmlns="http://www.w3.org/2000/svg">
<rect x="7" y="23" width="85.25" height="55" rx="4" fill="#7F7F7F"/>
<path d="M39.0447 58.5556C38.8852 57.5833 38.8321 56.5278 38.8321 54.9722V40.2778C38.8321 38.5833 38.8852 37.5556 39.0447 36.4444H35.1647C35.3241 37.5 35.3773 38.6389 35.3773 40.2778V49.6111C35.3773 50.7778 35.457 52.4444 35.5633 53.5278C34.9786 52.4167 34.1282 50.9722 33.4904 49.9722L26.7669 39.3889C25.8633 37.9722 25.3849 37.1389 25.1458 36.4444H21C21.1595 37.5833 21.2126 38.5833 21.2126 40.0278V54.3611C21.2126 56.25 21.1329 57.6389 21 58.5556H24.88C24.7471 57.5556 24.6674 56.25 24.6674 54.3889V45.2778C24.6674 44.6389 24.6143 43.3889 24.5877 42.8611C24.5079 41.8333 24.5079 41.8333 24.4814 41.4444C25.1192 42.75 25.7836 43.9444 26.2885 44.7778L33.1449 55.5833C33.9156 56.8056 34.394 57.6111 34.8458 58.5556H39.0447Z" fill="white"/>
<path d="M46.5732 49H52.2603C53.8814 49 54.8913 49.0556 55.8746 49.1944V45.5C54.8381 45.6389 53.908 45.6944 52.2603 45.6944H46.5732V39.8056H53.6422C55.3431 39.8056 56.3263 39.8611 57.2831 40V36.25C56.1669 36.3889 55.3165 36.4444 53.6422 36.4444H46.2011C44.58 36.4444 43.9156 36.4167 42.8261 36.3611C42.9855 37.6389 43.0387 38.4444 43.0387 39.9722V54.6111C43.0387 56.4444 42.9855 57.6111 42.8261 58.5556H46.7858C46.6263 57.5 46.5732 56.5278 46.5732 54.5556V49Z" fill="white"/>
<path d="M74.1997 51.1111C73.9871 52.3889 73.7745 52.9722 73.3227 53.6667C72.4723 54.9722 70.8778 55.7222 69.0175 55.7222C65.297 55.7222 62.9583 52.5556 62.9583 47.4722C62.9583 42.3611 65.2438 39.2778 69.0175 39.2778C70.6652 39.2778 71.994 39.8611 72.8975 41C73.429 41.6389 73.6682 42.1667 74.0403 43.3889L77.7343 42.5C77.4153 41.4444 77.2293 40.9444 76.9104 40.3611C76.246 39.1389 75.2893 38.1111 74.0934 37.3333C72.6318 36.4167 71.0638 36 68.991 36C66.3334 36 63.9416 36.9444 62.3471 38.6389C60.354 40.7222 59.2378 43.9444 59.2378 47.6111C59.2378 51.1667 60.2742 54.3056 62.1345 56.3333C63.7556 58.0833 66.0677 59 68.9644 59C72.1534 59 74.7047 57.9167 76.2195 55.9722C77.0167 54.8889 77.4951 53.8056 78 51.8056L74.1997 51.1111Z" fill="white"/>
<line x1="7" y1="68.25" x2="92.25" y2="68.25" stroke="white" stroke-width="3"/>
<path d="M71.4996 56.8962C72.4586 55.2612 74.856 55.2612 75.815 56.8962L93.0767 86.3253C94.0357 87.9602 92.837 90.0039 90.919 90.0039H56.3956C54.4777 90.0039 53.2789 87.9602 54.2379 86.3253L71.4996 56.8962Z" fill="#FFC200"/>
<path fill-rule="evenodd" clip-rule="evenodd" d="M90.919 87.5515L73.6573 58.1224L56.3956 87.5515H90.919ZM75.815 56.8962C74.856 55.2612 72.4586 55.2612 71.4996 56.8962L54.2379 86.3253C53.2789 87.9602 54.4777 90.0039 56.3956 90.0039H90.919C92.837 90.0039 94.0357 87.9602 93.0767 86.3253L75.815 56.8962Z" fill="black"/>
<path d="M74.8622 78.587C74.8223 78.1947 74.8223 77.9985 74.8223 77.763C74.8223 77.4884 74.8223 77.4884 74.8622 76.3308L75.1412 69.6602C75.1811 68.8166 75.2608 67.7964 75.3206 67.2667H72.0517C72.1315 67.816 72.1913 68.797 72.2311 69.6602L72.5102 76.3308C72.57 77.5276 72.57 77.5276 72.57 77.7434C72.57 77.9788 72.55 78.175 72.5301 78.587H74.8622ZM75.1412 82.8837V80.1958H72.251V82.8837H75.1412Z" fill="black"/>
</svg>
