<svg width="14" height="16" viewBox="0 0 14 16" fill="none" xmlns="http://www.w3.org/2000/svg">
<path fill-rule="evenodd" clip-rule="evenodd" d="M12.5443 4.40762H14V3.07429H9.78141V0.888887C9.78141 0.397968 9.38329 0 8.89219 0H5.33531C4.84421 0 4.44609 0.397968 4.44609 0.888887V3.07429H0V4.40762H1.45574L1.4741 4.73804L2.1 16H11.2H11.9L12.5259 4.73804L12.5443 4.40762ZM5.77992 3.07429V1.33333H8.44758V3.07429H5.77992ZM2.80999 4.73804L3.36178 14.6667H10.6382L11.19 4.73804H2.80999ZM4.9 6.20355V12.5012H6.23383V6.20355H4.9ZM8.05 12.5012V6.20355H9.38383V12.5012H8.05Z" fill="#8A8A83"/>
</svg>
