<svg width="100" height="100" viewBox="0 0 100 100" fill="none" xmlns="http://www.w3.org/2000/svg">
<path fill-rule="evenodd" clip-rule="evenodd" d="M69.7273 8.85246H31.2727C30.4861 8.85246 29.8485 9.491 29.8485 10.2787V88.7213C29.8485 89.509 30.4861 90.1475 31.2727 90.1475H69.7273C70.5139 90.1475 71.1515 89.509 71.1515 88.7213V10.2787C71.1515 9.491 70.5139 8.85246 69.7273 8.85246ZM31.2727 6C28.913 6 27 7.91563 27 10.2787V88.7213C27 91.0844 28.913 93 31.2727 93H69.7273C72.087 93 74 91.0844 74 88.7213V10.2787C74 7.91563 72.087 6 69.7273 6H31.2727Z" fill="#7F7F7F"/>
<path d="M40 9H61V10.4645C61 11.8648 59.7464 13 58.2 13H42.8C41.2536 13 40 11.8648 40 10.4645V9Z" fill="#7F7F7F"/>
<path d="M44.8853 54.8262H42.3806L37.5047 46.5013V54.8262H35V42.1738H37.5047L42.3889 50.516V42.1738H44.8853V54.8262Z" fill="#7F7F7F"/>
<path d="M54.3865 49.6557H49.5774V54.8262H47.0727V42.1738H54.9876V44.2854H49.5774V47.5528H54.3865V49.6557Z" fill="#7F7F7F"/>
<path d="M65.9833 50.6116C65.8887 51.973 65.4044 53.0448 64.5306 53.8269C63.6623 54.609 62.5157 55 61.0908 55C59.5323 55 58.305 54.4554 57.4088 53.3663C56.5183 52.2714 56.073 50.7709 56.073 48.865V48.0916C56.073 46.875 56.2789 45.8033 56.6908 44.8763C57.1027 43.9494 57.6899 43.2398 58.4525 42.7473C59.2206 42.2491 60.1111 42 61.1242 42C62.5268 42 63.6567 42.391 64.5139 43.1731C65.371 43.9552 65.8664 45.053 66 46.4666H63.4953C63.4341 45.6497 63.2142 45.0588 62.8357 44.6939C62.4628 44.3231 61.8923 44.1377 61.1242 44.1377C60.2893 44.1377 59.6631 44.4505 59.2456 45.0762C58.8337 45.6961 58.6222 46.6607 58.6111 47.9699V48.9258C58.6111 50.293 58.8087 51.2923 59.2039 51.9238C59.6046 52.5553 60.2336 52.871 61.0908 52.871C61.8644 52.871 62.4405 52.6885 62.819 52.3235C63.2031 51.9528 63.4229 51.3821 63.4786 50.6116H65.9833Z" fill="#7F7F7F"/>
<path d="M71.4996 56.8961C72.4586 55.2612 74.856 55.2612 75.815 56.8961L93.0767 86.3252C94.0357 87.9601 92.837 90.0038 90.919 90.0038H56.3956C54.4777 90.0038 53.2789 87.9601 54.2379 86.3252L71.4996 56.8961Z" fill="#FFC200"/>
<path fill-rule="evenodd" clip-rule="evenodd" d="M90.919 87.5514L73.6573 58.1223L56.3956 87.5514H90.919ZM75.815 56.8961C74.856 55.2612 72.4586 55.2612 71.4996 56.8961L54.2379 86.3252C53.2789 87.9601 54.4777 90.0038 56.3956 90.0038H90.919C92.837 90.0038 94.0357 87.9601 93.0767 86.3252L75.815 56.8961Z" fill="black"/>
<path d="M74.8622 78.587C74.8223 78.1946 74.8223 77.9984 74.8223 77.763C74.8223 77.4883 74.8223 77.4883 74.8622 76.3308L75.1412 69.6602C75.1811 68.8165 75.2608 67.7963 75.3206 67.2666H72.0517C72.1315 67.8159 72.1913 68.7969 72.2311 69.6602L72.5102 76.3308C72.57 77.5275 72.57 77.5275 72.57 77.7433C72.57 77.9788 72.55 78.175 72.5301 78.587H74.8622ZM75.1412 82.8836V80.1958H72.251V82.8836H75.1412Z" fill="black"/>
</svg>
