<svg width="28" height="28" viewBox="0 0 28 28" fill="none" xmlns="http://www.w3.org/2000/svg">
<path d="M14.0007 10.5002C13.6912 10.5002 13.3945 10.6231 13.1757 10.8419C12.9569 11.0607 12.834 11.3574 12.834 11.6668V15.1668C12.834 15.4762 12.9569 15.773 13.1757 15.9918C13.3945 16.2106 13.6912 16.3335 14.0007 16.3335C14.3101 16.3335 14.6068 16.2106 14.8256 15.9918C15.0444 15.773 15.1673 15.4762 15.1673 15.1668V11.6668C15.1673 11.3574 15.0444 11.0607 14.8256 10.8419C14.6068 10.6231 14.3101 10.5002 14.0007 10.5002ZM22.1673 2.3335H5.83398C4.90573 2.3335 4.01549 2.70225 3.35911 3.35862C2.70273 4.015 2.33398 4.90524 2.33398 5.8335V17.5002C2.33398 18.4284 2.70273 19.3187 3.35911 19.975C4.01549 20.6314 4.90573 21.0002 5.83398 21.0002H19.3557L23.6723 25.3285C23.7813 25.4366 23.9106 25.5222 24.0528 25.5802C24.1949 25.6383 24.3471 25.6677 24.5007 25.6668C24.6537 25.6708 24.8055 25.6388 24.944 25.5735C25.157 25.486 25.3394 25.3373 25.4681 25.1463C25.5969 24.9553 25.6662 24.7305 25.6673 24.5002V5.8335C25.6673 4.90524 25.2986 4.015 24.6422 3.35862C23.9858 2.70225 23.0956 2.3335 22.1673 2.3335ZM23.334 21.6885L20.6623 19.0052C20.5533 18.897 20.424 18.8115 20.2819 18.7534C20.1397 18.6954 19.9875 18.6659 19.834 18.6668H5.83398C5.52457 18.6668 5.22782 18.5439 5.00903 18.3251C4.79023 18.1063 4.66732 17.8096 4.66732 17.5002V5.8335C4.66732 5.52408 4.79023 5.22733 5.00903 5.00854C5.22782 4.78975 5.52457 4.66683 5.83398 4.66683H22.1673C22.4767 4.66683 22.7735 4.78975 22.9923 5.00854C23.2111 5.22733 23.334 5.52408 23.334 5.8335V21.6885ZM14.0007 7.00016C13.7699 7.00016 13.5443 7.06859 13.3525 7.19678C13.1606 7.32498 13.0111 7.50718 12.9228 7.72037C12.8345 7.93355 12.8114 8.16812 12.8564 8.39443C12.9014 8.62075 13.0125 8.82863 13.1757 8.99179C13.3389 9.15495 13.5467 9.26606 13.773 9.31108C13.9994 9.35609 14.2339 9.33299 14.4471 9.24469C14.6603 9.15639 14.8425 9.00685 14.9707 8.81499C15.0989 8.62314 15.1673 8.39757 15.1673 8.16683C15.1673 7.85741 15.0444 7.56066 14.8256 7.34187C14.6068 7.12308 14.3101 7.00016 14.0007 7.00016Z" fill="white"/>
</svg>
