<svg width="39" height="58" viewBox="0 0 39 58" fill="none" xmlns="http://www.w3.org/2000/svg">
<mask id="path-1-inside-1_4778_105750" fill="white">
<path fill-rule="evenodd" clip-rule="evenodd" d="M9.52655 4.76327C9.52655 7.39396 7.39396 9.52655 4.76327 9.52655C2.13259 9.52655 0 7.39396 0 4.76327C0 2.13259 2.13259 0 4.76327 0C7.39396 0 9.52655 2.13259 9.52655 4.76327ZM23.8165 4.76327C23.8165 7.39396 21.6839 9.52655 19.0532 9.52655C16.4225 9.52655 14.29 7.39396 14.29 4.76327C14.29 2.13259 16.4225 0 19.0532 0C21.6839 0 23.8165 2.13259 23.8165 4.76327ZM33.3432 9.52655C35.9739 9.52655 38.1065 7.39396 38.1065 4.76327C38.1065 2.13259 35.9739 0 33.3432 0C30.7125 0 28.5799 2.13259 28.5799 4.76327C28.5799 7.39396 30.7125 9.52655 33.3432 9.52655ZM38.1065 19.0531C38.1065 21.6838 35.9739 23.8164 33.3432 23.8164C30.7125 23.8164 28.5799 21.6838 28.5799 19.0531C28.5799 16.4224 30.7125 14.2898 33.3432 14.2898C35.9739 14.2898 38.1065 16.4224 38.1065 19.0531ZM19.0532 23.8164C21.6839 23.8164 23.8165 21.6838 23.8165 19.0531C23.8165 16.4224 21.6839 14.2898 19.0532 14.2898C16.4225 14.2898 14.29 16.4224 14.29 19.0531C14.29 21.6838 16.4225 23.8164 19.0532 23.8164ZM9.52655 19.0531C9.52655 21.6838 7.39396 23.8164 4.76327 23.8164C2.13259 23.8164 0 21.6838 0 19.0531C0 16.4224 2.13259 14.2898 4.76327 14.2898C7.39396 14.2898 9.52655 16.4224 9.52655 19.0531ZM4.76327 38.1062C7.39396 38.1062 9.52655 35.9736 9.52655 33.3429C9.52655 30.7122 7.39396 28.5796 4.76327 28.5796C2.13259 28.5796 0 30.7122 0 33.3429C0 35.9736 2.13259 38.1062 4.76327 38.1062ZM38.1065 33.3429C38.1065 35.9736 35.9739 38.1062 33.3432 38.1062C30.7125 38.1062 28.5799 35.9736 28.5799 33.3429C28.5799 30.7122 30.7125 28.5796 33.3432 28.5796C35.9739 28.5796 38.1065 30.7122 38.1065 33.3429ZM14.29 33.3429C14.29 30.7122 16.4226 28.5796 19.0533 28.5796C21.684 28.5796 23.8166 30.7122 23.8166 33.3429V38.9469C29.078 38.9469 33.3431 43.2121 33.3431 48.4734C33.3431 53.7348 29.078 58 23.8166 58C18.5552 58 14.29 53.7348 14.29 48.4734C14.29 48.3082 14.2942 48.1439 14.3026 47.9807C14.2943 47.8658 14.29 47.7497 14.29 47.6327V33.3429Z"/>
</mask>
<path d="M23.8166 38.9469H21.8166V40.9469H23.8166V38.9469ZM14.3026 47.9807L16.3 48.0825L16.3062 47.9595L16.2974 47.8367L14.3026 47.9807ZM4.76327 11.5265C8.49853 11.5265 11.5265 8.49853 11.5265 4.76327H7.52655C7.52655 6.28939 6.28939 7.52655 4.76327 7.52655V11.5265ZM-2 4.76327C-2 8.49853 1.02802 11.5265 4.76327 11.5265V7.52655C3.23716 7.52655 2 6.28939 2 4.76327H-2ZM4.76327 -2C1.02802 -2 -2 1.02802 -2 4.76327H2C2 3.23716 3.23716 2 4.76327 2V-2ZM11.5265 4.76327C11.5265 1.02802 8.49853 -2 4.76327 -2V2C6.28939 2 7.52655 3.23716 7.52655 4.76327H11.5265ZM19.0532 11.5265C22.7885 11.5265 25.8165 8.49853 25.8165 4.76327H21.8165C21.8165 6.28939 20.5793 7.52655 19.0532 7.52655V11.5265ZM12.29 4.76327C12.29 8.49853 15.318 11.5265 19.0532 11.5265V7.52655C17.5271 7.52655 16.29 6.28939 16.29 4.76327H12.29ZM19.0532 -2C15.318 -2 12.29 1.02802 12.29 4.76327H16.29C16.29 3.23716 17.5271 2 19.0532 2V-2ZM25.8165 4.76327C25.8165 1.02802 22.7885 -2 19.0532 -2V2C20.5793 2 21.8165 3.23716 21.8165 4.76327H25.8165ZM36.1065 4.76327C36.1065 6.28939 34.8693 7.52655 33.3432 7.52655V11.5265C37.0784 11.5265 40.1065 8.49853 40.1065 4.76327H36.1065ZM33.3432 2C34.8693 2 36.1065 3.23716 36.1065 4.76327H40.1065C40.1065 1.02802 37.0784 -2 33.3432 -2V2ZM30.5799 4.76327C30.5799 3.23716 31.8171 2 33.3432 2V-2C29.6079 -2 26.5799 1.02802 26.5799 4.76327H30.5799ZM33.3432 7.52655C31.8171 7.52655 30.5799 6.28939 30.5799 4.76327H26.5799C26.5799 8.49853 29.6079 11.5265 33.3432 11.5265V7.52655ZM33.3432 25.8164C37.0784 25.8164 40.1065 22.7883 40.1065 19.0531H36.1065C36.1065 20.5792 34.8693 21.8164 33.3432 21.8164V25.8164ZM26.5799 19.0531C26.5799 22.7883 29.6079 25.8164 33.3432 25.8164V21.8164C31.8171 21.8164 30.5799 20.5792 30.5799 19.0531H26.5799ZM33.3432 12.2898C29.6079 12.2898 26.5799 15.3178 26.5799 19.0531H30.5799C30.5799 17.527 31.8171 16.2898 33.3432 16.2898V12.2898ZM40.1065 19.0531C40.1065 15.3178 37.0784 12.2898 33.3432 12.2898V16.2898C34.8693 16.2898 36.1065 17.527 36.1065 19.0531H40.1065ZM21.8165 19.0531C21.8165 20.5792 20.5793 21.8164 19.0532 21.8164V25.8164C22.7885 25.8164 25.8165 22.7883 25.8165 19.0531H21.8165ZM19.0532 16.2898C20.5793 16.2898 21.8165 17.527 21.8165 19.0531H25.8165C25.8165 15.3178 22.7885 12.2898 19.0532 12.2898V16.2898ZM16.29 19.0531C16.29 17.527 17.5271 16.2898 19.0532 16.2898V12.2898C15.318 12.2898 12.29 15.3178 12.29 19.0531H16.29ZM19.0532 21.8164C17.5271 21.8164 16.29 20.5792 16.29 19.0531H12.29C12.29 22.7883 15.318 25.8164 19.0532 25.8164V21.8164ZM4.76327 25.8164C8.49853 25.8164 11.5265 22.7883 11.5265 19.0531H7.52655C7.52655 20.5792 6.28939 21.8164 4.76327 21.8164V25.8164ZM-2 19.0531C-2 22.7883 1.02802 25.8164 4.76327 25.8164V21.8164C3.23716 21.8164 2 20.5792 2 19.0531H-2ZM4.76327 12.2898C1.02802 12.2898 -2 15.3178 -2 19.0531H2C2 17.527 3.23716 16.2898 4.76327 16.2898V12.2898ZM11.5265 19.0531C11.5265 15.3178 8.49853 12.2898 4.76327 12.2898V16.2898C6.28939 16.2898 7.52655 17.527 7.52655 19.0531H11.5265ZM7.52655 33.3429C7.52655 34.869 6.28939 36.1062 4.76327 36.1062V40.1062C8.49853 40.1062 11.5265 37.0782 11.5265 33.3429H7.52655ZM4.76327 30.5796C6.28939 30.5796 7.52655 31.8168 7.52655 33.3429H11.5265C11.5265 29.6077 8.49853 26.5796 4.76327 26.5796V30.5796ZM2 33.3429C2 31.8168 3.23716 30.5796 4.76327 30.5796V26.5796C1.02802 26.5796 -2 29.6077 -2 33.3429H2ZM4.76327 36.1062C3.23716 36.1062 2 34.869 2 33.3429H-2C-2 37.0782 1.02802 40.1062 4.76327 40.1062V36.1062ZM33.3432 40.1062C37.0784 40.1062 40.1065 37.0782 40.1065 33.3429H36.1065C36.1065 34.869 34.8693 36.1062 33.3432 36.1062V40.1062ZM26.5799 33.3429C26.5799 37.0782 29.6079 40.1062 33.3432 40.1062V36.1062C31.8171 36.1062 30.5799 34.869 30.5799 33.3429H26.5799ZM33.3432 26.5796C29.6079 26.5796 26.5799 29.6077 26.5799 33.3429H30.5799C30.5799 31.8168 31.8171 30.5796 33.3432 30.5796V26.5796ZM40.1065 33.3429C40.1065 29.6077 37.0784 26.5796 33.3432 26.5796V30.5796C34.8693 30.5796 36.1065 31.8168 36.1065 33.3429H40.1065ZM19.0533 26.5796C15.3181 26.5796 12.29 29.6076 12.29 33.3429H16.29C16.29 31.8168 17.5272 30.5796 19.0533 30.5796V26.5796ZM25.8166 33.3429C25.8166 29.6076 22.7886 26.5796 19.0533 26.5796V30.5796C20.5794 30.5796 21.8166 31.8167 21.8166 33.3429H25.8166ZM25.8166 38.9469V33.3429H21.8166V38.9469H25.8166ZM35.3431 48.4734C35.3431 42.1075 30.1825 36.9469 23.8166 36.9469V40.9469C27.9734 40.9469 31.3431 44.3167 31.3431 48.4734H35.3431ZM23.8166 60C30.1825 60 35.3431 54.8394 35.3431 48.4734H31.3431C31.3431 52.6302 27.9734 56 23.8166 56V60ZM12.29 48.4734C12.29 54.8394 17.4507 60 23.8166 60V56C19.6598 56 16.29 52.6302 16.29 48.4734H12.29ZM12.3052 47.879C12.2951 48.076 12.29 48.2742 12.29 48.4734H16.29C16.29 48.3421 16.2934 48.2118 16.3 48.0825L12.3052 47.879ZM12.29 47.6327C12.29 47.7978 12.296 47.962 12.3078 48.1248L16.2974 47.8367C16.2925 47.7696 16.29 47.7016 16.29 47.6327H12.29ZM12.29 33.3429V47.6327H16.29V33.3429H12.29Z" fill="#FD6D16" mask="url(#path-1-inside-1_4778_105750)"/>
</svg>
