<svg width="13" height="18" viewBox="0 0 13 18" fill="none" xmlns="http://www.w3.org/2000/svg">
<path fill-rule="evenodd" clip-rule="evenodd" d="M2.21745 3.33333C2.99985 3.33333 3.63411 2.69907 3.63411 1.91667C3.63411 1.13426 2.99985 0.5 2.21745 0.5C1.43504 0.5 0.800781 1.13426 0.800781 1.91667C0.800781 2.69907 1.43504 3.33333 2.21745 3.33333ZM6.46745 3.33333C7.24985 3.33333 7.88411 2.69907 7.88411 1.91667C7.88411 1.13426 7.24985 0.5 6.46745 0.5C5.68504 0.5 5.05078 1.13426 5.05078 1.91667C5.05078 2.69907 5.68504 3.33333 6.46745 3.33333ZM12.1341 1.91667C12.1341 2.69907 11.4999 3.33333 10.7174 3.33333C9.93504 3.33333 9.30078 2.69907 9.30078 1.91667C9.30078 1.13426 9.93504 0.5 10.7174 0.5C11.4999 0.5 12.1341 1.13426 12.1341 1.91667ZM10.7174 7.58333C11.4999 7.58333 12.1341 6.94907 12.1341 6.16667C12.1341 5.38426 11.4999 4.75 10.7174 4.75C9.93504 4.75 9.30078 5.38426 9.30078 6.16667C9.30078 6.94907 9.93504 7.58333 10.7174 7.58333ZM7.88411 6.16667C7.88411 6.94907 7.24985 7.58333 6.46745 7.58333C5.68504 7.58333 5.05078 6.94907 5.05078 6.16667C5.05078 5.38426 5.68504 4.75 6.46745 4.75C7.24985 4.75 7.88411 5.38426 7.88411 6.16667ZM2.21745 7.58333C2.99985 7.58333 3.63411 6.94907 3.63411 6.16667C3.63411 5.38426 2.99985 4.75 2.21745 4.75C1.43504 4.75 0.800781 5.38426 0.800781 6.16667C0.800781 6.94907 1.43504 7.58333 2.21745 7.58333ZM3.63411 10.4167C3.63411 11.1991 2.99985 11.8333 2.21745 11.8333C1.43504 11.8333 0.800781 11.1991 0.800781 10.4167C0.800781 9.63426 1.43504 9 2.21745 9C2.99985 9 3.63411 9.63426 3.63411 10.4167ZM10.7174 11.8333C11.4999 11.8333 12.1341 11.1991 12.1341 10.4167C12.1341 9.63426 11.4999 9 10.7174 9C9.93504 9 9.30078 9.63426 9.30078 10.4167C9.30078 11.1991 9.93504 11.8333 10.7174 11.8333ZM5.05078 10.4167C5.05078 9.63426 5.68504 9 6.46745 9C7.24985 9 7.88411 9.63426 7.88411 10.4167V12.0834C9.44892 12.0834 10.7174 13.3519 10.7174 14.9167C10.7174 16.4815 9.44892 17.75 7.88411 17.75C6.31931 17.75 5.05078 16.4815 5.05078 14.9167C5.05078 14.8676 5.05203 14.8187 5.0545 14.7702C5.05204 14.736 5.05078 14.7015 5.05078 14.6667V10.4167Z" fill="#FD6D16"/>
</svg>
