<svg width="60" height="91" viewBox="0 0 60 91" fill="none" xmlns="http://www.w3.org/2000/svg">
<path fill-rule="evenodd" clip-rule="evenodd" d="M7.5 15.1667C11.6421 15.1667 15 11.7715 15 7.58333C15 3.39517 11.6421 0 7.5 0C3.35786 0 0 3.39517 0 7.58333C0 11.7715 3.35786 15.1667 7.5 15.1667ZM30 15.1667C34.1421 15.1667 37.5 11.7715 37.5 7.58333C37.5 3.39517 34.1421 0 30 0C25.8579 0 22.5 3.39517 22.5 7.58333C22.5 11.7715 25.8579 15.1667 30 15.1667ZM60 7.58333C60 11.7715 56.6421 15.1667 52.5 15.1667C48.3579 15.1667 45 11.7715 45 7.58333C45 3.39517 48.3579 0 52.5 0C56.6421 0 60 3.39517 60 7.58333ZM52.5 37.9167C56.6421 37.9167 60 34.5215 60 30.3333C60 26.1452 56.6421 22.75 52.5 22.75C48.3579 22.75 45 26.1452 45 30.3333C45 34.5215 48.3579 37.9167 52.5 37.9167ZM37.5 30.3333C37.5 34.5215 34.1421 37.9167 30 37.9167C25.8579 37.9167 22.5 34.5215 22.5 30.3333C22.5 26.1452 25.8579 22.75 30 22.75C34.1421 22.75 37.5 26.1452 37.5 30.3333ZM7.5 37.9167C11.6421 37.9167 15 34.5215 15 30.3333C15 26.1452 11.6421 22.75 7.5 22.75C3.35786 22.75 0 26.1452 0 30.3333C0 34.5215 3.35786 37.9167 7.5 37.9167ZM15 53.0833C15 57.2715 11.6421 60.6667 7.5 60.6667C3.35786 60.6667 0 57.2715 0 53.0833C0 48.8952 3.35786 45.5 7.5 45.5C11.6421 45.5 15 48.8952 15 53.0833ZM52.5 60.6667C56.6421 60.6667 60 57.2715 60 53.0833C60 48.8952 56.6421 45.5 52.5 45.5C48.3579 45.5 45 48.8952 45 53.0833C45 57.2715 48.3579 60.6667 52.5 60.6667ZM22.5 53.0833C22.5 48.8952 25.8579 45.5 30 45.5C34.1421 45.5 37.5 48.8952 37.5 53.0833V60.6667C45.7843 60.6667 52.5 67.457 52.5 75.8333C52.5 84.2096 45.7843 91 37.5 91C29.2157 91 22.5 84.2096 22.5 75.8333V53.0833Z" fill="#FD6D16"/>
</svg>
