<svg width="18" height="20" viewBox="0 0 18 20" fill="none" xmlns="http://www.w3.org/2000/svg">
<circle cx="9" cy="10" r="9" fill="#FFC419"/>
<path d="M9.99658 3.91406L9.88867 12.5884H8.50244L8.38623 3.91406H9.99658ZM8.33643 15.228C8.33643 14.979 8.41113 14.7687 8.56055 14.5972C8.71549 14.4256 8.94238 14.3398 9.24121 14.3398C9.53451 14.3398 9.75863 14.4256 9.91357 14.5972C10.0741 14.7687 10.1543 14.979 10.1543 15.228C10.1543 15.466 10.0741 15.6707 9.91357 15.8423C9.75863 16.0138 9.53451 16.0996 9.24121 16.0996C8.94238 16.0996 8.71549 16.0138 8.56055 15.8423C8.41113 15.6707 8.33643 15.466 8.33643 15.228Z" fill="white"/>
</svg>
