<svg width="224" height="15" viewBox="0 0 224 15" fill="none" xmlns="http://www.w3.org/2000/svg">
<g clip-path="url(#clip0_18608_339878)">
<path d="M13.605 3.8125H12.0739V3.25521C12.0739 2.85417 11.7348 2.51042 11.3341 2.51042H2.26579C1.87018 2.51042 1.53108 2.85417 1.53108 3.25521V12.4531C1.53108 12.8542 1.87018 13.1979 2.26579 13.1979H11.3392C11.7348 13.1979 12.0791 12.8542 12.0791 12.4531V9.04167H8.71379V7.46875H13.6102V12.4531C13.6102 13.7344 12.6083 14.75 11.3444 14.75H2.26579C1.00188 14.75 0 13.7344 0 12.4531V3.25521C0 1.97396 1.00188 0.958336 2.26579 0.958336H11.3392C12.6031 0.958336 13.605 1.97396 13.605 3.25521V3.8125Z" fill="white"/>
<path d="M17.9516 0V12.4323C17.9516 12.8333 18.2907 13.1771 18.6915 13.1771H20.5411V14.7448H18.6915C17.4276 14.7448 16.4052 13.7083 16.4052 12.4271V0H17.9516Z" fill="white"/>
<path d="M34.2129 5.95833V14.75H25.3296C24.0657 14.75 23.0432 13.7135 23.0432 12.4323V8.40625H32.6459V5.95312C32.6459 5.55208 32.3273 5.20833 31.9112 5.20833H23.0484V3.63541H31.9112C33.1956 3.63541 34.2181 4.67187 34.2181 5.95312L34.2129 5.95833ZM32.6459 9.98437H24.5949V12.4375C24.5949 12.8385 24.934 13.1823 25.3296 13.1823H32.6459V9.98437Z" fill="white"/>
<path d="M53.7676 5.95833V14.75H52.2365V5.95833C52.2365 5.55729 51.8974 5.21354 51.4812 5.21354H46.924C46.5078 5.21354 46.1893 5.55729 46.1893 5.95833V14.75H44.6222V5.95833C44.6222 5.55729 44.2831 5.21354 43.8875 5.21354H39.3148C38.9192 5.21354 38.5801 5.55729 38.5801 5.95833V14.75H37.0131V3.64062H51.4915C52.776 3.64062 53.7779 4.67708 53.7779 5.95833H53.7676Z" fill="white"/>
<path d="M65.2558 3.64062C66.5403 3.64062 67.5627 4.67708 67.5627 5.95833V12.4375C67.5627 13.7188 66.5403 14.7552 65.2558 14.7552H58.6794C57.4103 14.7552 56.393 13.7188 56.393 12.4375V5.95833C56.393 4.67708 57.4155 3.64062 58.6794 3.64062H65.2558ZM58.6794 5.21354C58.2838 5.21354 57.9447 5.55729 57.9447 5.95833V12.4375C57.9447 12.8385 58.2838 13.1823 58.6794 13.1823H65.2558C65.672 13.1823 65.9957 12.8385 65.9957 12.4375V5.95833C65.9957 5.55729 65.672 5.21354 65.2558 5.21354H58.6794Z" fill="white"/>
<path d="M83.9114 3.79167H82.3803V3.25521C82.3803 2.85417 82.0412 2.51042 81.6456 2.51042H72.5721C72.1765 2.51042 71.8323 2.85417 71.8323 3.25521V6.33854C71.8323 6.73959 72.1714 7.06771 72.5721 7.06771H81.6456C82.9095 7.06771 83.9114 8.10417 83.9114 9.36458V12.4479C83.9114 13.7292 82.9095 14.7448 81.6456 14.7448H72.5721C71.3082 14.7448 70.3063 13.7292 70.3063 12.4479V11.9115H71.8374V12.4479C71.8374 12.849 72.1765 13.1927 72.5773 13.1927H81.6507C82.0463 13.1927 82.3854 12.849 82.3854 12.4479V9.36458C82.3854 8.96354 82.0463 8.63542 81.6507 8.63542H72.5773C71.3134 8.63542 70.3115 7.59896 70.3115 6.33854V3.25521C70.3115 1.97396 71.3134 0.958336 72.5773 0.958336H81.6507C82.9146 0.958336 83.9165 1.97396 83.9165 3.25521V3.79167H83.9114Z" fill="white"/>
<path d="M103.461 5.95833V14.75H101.93V5.95833C101.93 5.55729 101.591 5.21354 101.175 5.21354H96.6173C96.2011 5.21354 95.8826 5.55729 95.8826 5.95833V14.75H94.3155V5.95833C94.3155 5.55729 93.9764 5.21354 93.5808 5.21354H89.0081C88.6125 5.21354 88.2734 5.55729 88.2734 5.95833V14.75H86.7064V3.64062H101.185C102.469 3.64062 103.471 4.67708 103.471 5.95833H103.461Z" fill="white"/>
<path d="M117.251 5.95833V14.75H108.368C107.099 14.75 106.081 13.7135 106.081 12.4323V8.40625H115.684V5.95312C115.684 5.55208 115.365 5.20833 114.949 5.20833H106.086V3.63541H114.949C116.234 3.63541 117.256 4.67187 117.256 5.95312L117.251 5.95833ZM115.684 9.98437H107.633V12.4375C107.633 12.8385 107.972 13.1823 108.373 13.1823H115.684V9.98437Z" fill="white"/>
<path d="M128.472 3.64062V5.21354H122.312C121.916 5.21354 121.572 5.55729 121.572 5.95833V14.75H120.025V5.95833C120.025 4.67708 121.043 3.64062 122.312 3.64062H128.472Z" fill="white"/>
<path d="M132.402 5.20833V12.4323C132.402 12.8333 132.741 13.1771 133.142 13.1771H137.15V14.7448H133.142C131.858 14.7448 130.856 13.7083 130.856 12.4271V0H132.408V3.64063H137.15V5.21354H132.408L132.402 5.20833Z" fill="white"/>
<path d="M139.688 0.9375H141.219V13.1979H153.298V14.75H139.688V0.9375Z" fill="white"/>
<path d="M164.452 3.64062C165.737 3.64062 166.759 4.67708 166.759 5.95833V12.4375C166.759 13.7188 165.742 14.7552 164.452 14.7552H157.876C156.612 14.7552 155.59 13.7188 155.59 12.4375V5.95833C155.59 4.67708 156.607 3.64062 157.876 3.64062H164.452ZM157.876 5.21354C157.48 5.21354 157.141 5.55729 157.141 5.95833V12.4375C157.141 12.8385 157.48 13.1823 157.876 13.1823H164.452C164.868 13.1823 165.187 12.8385 165.187 12.4375V5.95833C165.187 5.55729 164.868 5.21354 164.452 5.21354H157.876Z" fill="white"/>
<path d="M180.637 13.1823V14.75H171.753C170.484 14.75 169.467 13.7135 169.467 12.4323V5.95833C169.467 4.67708 170.484 3.64062 171.753 3.64062H180.601V5.21354H171.753C171.358 5.21354 171.018 5.55729 171.018 5.95833V12.4375C171.018 12.8385 171.358 13.1823 171.753 13.1823H180.637Z" fill="white"/>
<path d="M194.329 3.64063L189.355 9.19792L194.308 14.7552H192.289L187.979 9.98438H184.952V14.7552H183.406V0H184.952V8.41146H187.979L192.289 3.64063H194.329Z" fill="white"/>
<path d="M209.557 7.70313L209.373 8.28646L209.039 8.58854V8.83334C208.941 8.85938 208.818 8.90104 208.669 8.96354L208.612 8.98438C208.55 9.14584 208.453 9.23438 208.314 9.24479C208.165 9.40625 207.903 9.53125 207.518 9.61979C207.333 9.83334 207.138 9.94271 206.927 9.95834L206.67 10.0885H206.3L206.095 10.2188L206.002 10.2396C205.951 10.2917 205.879 10.3333 205.781 10.3698L205.576 10.5208H205.149L204.928 10.7083L204.132 10.875C204.045 10.875 203.896 10.8854 203.69 10.9115L203.3 11.2135C203.187 11.1615 203.079 11.1406 202.966 11.1406H202.853L202.724 11.2135L202.483 11.2708L202.318 11.3854L202.19 11.4219L202.395 11.75L202.267 12.2188L202.416 12.8333V13.2604L202.488 13.4271C202.745 13.4635 202.878 13.6302 202.878 13.9323C202.878 14.2344 202.652 14.4375 202.195 14.5833L201.676 14.75L201.101 14.0573L200.859 13.2865V12.5729L200.602 12.1042L200.787 11.8958L200.731 11.6719L200.751 11.5208C200.417 11.4948 200.171 11.4635 200.011 11.4271L199.385 10.526L200.772 10.4323V10.2448L200.88 10.0208L200.962 9.22917L201.07 9.11459L201.013 8.40104L201.07 8.09896V7.08334L201.306 6.65104L201.347 6.61459L201.327 6.55729C201.378 6.39584 201.476 6.27084 201.625 6.18229L202.031 6.16146H202.159C202.688 6.16146 202.955 6.36459 202.955 6.76563C202.955 6.92709 202.868 7.15625 202.698 7.44271V7.53646C202.698 7.72396 202.786 7.92188 202.955 8.11979L202.698 8.19271V8.66146L202.421 8.84896L202.514 9.11459L202.365 9.39584L202.421 9.75521L202.365 9.92709L202.385 10.099L202.514 10.026H202.883C203.053 9.89063 203.258 9.8125 203.495 9.80209L203.752 9.57813C203.839 9.66667 203.916 9.72396 203.993 9.74479C204.127 9.68229 204.363 9.58334 204.697 9.44271L204.939 9.40625L205.237 9.21875H205.386L205.406 9.18229H205.535C205.781 9.18229 206.002 9.10938 206.202 8.95834H206.608L206.629 8.86459L206.886 8.75L207.014 8.58334C207.066 8.59375 207.127 8.60417 207.199 8.60417L207.364 8.28646C207.425 8.23959 207.477 8.21354 207.513 8.21354C207.549 8.21354 207.574 8.23959 207.585 8.28646C207.621 8.22396 207.708 8.16667 207.841 8.11979L207.862 8.02604L207.99 7.93229L208.011 7.78125L207.919 7.53646L207.77 7.36979L207.621 7.33334L207.271 7.03125L206.588 6.77084C206.28 6.58334 205.997 6.4375 205.735 6.33854L205.437 6.51563L204.918 6.19792L204.492 6.22917L204.214 6.0625H203.921L203.664 5.91146H203.592C203.556 5.92188 203.526 5.93229 203.5 5.93229C203.351 5.93229 203.197 5.88542 203.038 5.78646L202.596 5.71875L202.262 5.76042L201.912 5.64584L201.522 5.73959L201.465 5.70313L201.188 5.79688L200.967 5.72396V5.79688H200.525L200.191 5.98959L199.801 6.04688L199.302 6.30209L198.968 5.82813C198.819 5.61459 198.747 5.35938 198.747 5.07292L198.953 4.84375C199.004 4.63021 199.138 4.49479 199.359 4.4375C199.58 4.38021 199.811 4.32292 200.042 4.26042H200.191L200.263 4.28125L200.392 4.30209L200.335 4.36979L200.726 4.25521H200.946C201.059 4.25521 201.173 4.29167 201.296 4.36979H202.036L202.591 4.40625L203.608 4.55729L203.885 4.76563L204.142 4.69271L204.625 4.82292H205.18L205.252 4.9375H205.642L206.069 5.19792L206.475 5.23438L206.567 5.36459C206.788 5.36459 207.009 5.44792 207.235 5.60938L207.605 5.53646L207.754 5.91146L207.96 6.0625H208.273L208.515 6.41667L209.218 6.82813V7.10938L209.568 7.70834L209.557 7.70313Z" fill="white"/>
<path d="M217.269 7.27604L217.12 7.89584L216.437 7.98959L216.067 8.23438L215.826 8.11979L215.569 8.26563L215.291 8.375L215.106 8.50521V8.57813L214.716 8.77084L214.459 9.11459H214.331C214.135 9.32813 213.991 9.45834 213.904 9.51042L213.647 9.94271L213.555 9.97917C213.519 10.0781 213.473 10.2292 213.426 10.4271L213.169 10.5208L213.056 10.7448L212.907 10.9323L212.871 11.2135L212.722 11.2708V11.5521L212.666 11.6094C212.702 11.6719 212.748 11.7396 212.794 11.8177L212.517 11.9323L212.481 12.1771L212.296 12.4948L212.409 12.7396L212.168 13.0781C212.193 13.2031 212.203 13.2917 212.203 13.3385V13.4115C212.193 13.4479 212.183 13.4792 212.183 13.5052L212.219 13.6719L212.532 14.0104L212.291 14.4427L212.07 14.6094L211.551 14.8698L210.868 14.5885V14.1563L210.796 13.9896L210.852 13.7083C210.827 13.5104 210.816 13.3594 210.816 13.2604C210.816 13.224 210.821 13.1719 210.837 13.1094V12.9792L210.816 12.7917C210.729 12.7031 210.688 12.6042 210.688 12.4896C210.688 12.3906 210.729 12.276 210.816 12.151C210.816 12.0885 210.806 11.901 210.78 11.5885L210.837 11.5313L210.78 11.2865L210.816 11.0625L210.78 10.9323L210.837 10.5L210.724 10.3125L210.796 10.1042L210.724 9.85938C210.734 9.78646 210.744 9.68229 210.744 9.55729C210.744 9.36979 210.719 9.24479 210.672 9.18229L210.744 9.06771L210.672 8.72917L210.508 8.48438L210.6 8.18229L210.529 8.06771L210.457 7.61979V7.46875C210.395 7.39584 210.364 7.30209 210.364 7.1875C210.364 6.9375 210.636 6.72396 211.176 6.55209L211.638 6.64584L211.731 7L211.916 7.24479L211.859 7.75C211.895 8 211.941 8.27604 211.988 8.57292L212.044 8.875C212.044 8.875 212.07 8.96875 212.08 9.08334C212.08 9.15625 212.049 9.23959 211.988 9.32813L212.044 9.70313L212.008 10.1146L211.936 10.3021L211.993 10.375L212.029 10.5625C212.101 10.474 212.147 10.3802 212.157 10.2813L212.229 10C212.265 9.92709 212.322 9.86979 212.394 9.83334L212.466 9.55209L212.722 9.40104L212.758 9.17709L212.964 8.95313L213.113 8.67188C213.272 8.49479 213.426 8.38542 213.575 8.33334L213.611 8.27604L213.776 8.01563L213.961 7.97917L214.017 7.92188L214.089 7.80729L214.295 7.69271L214.408 7.5625L214.521 7.58334L214.67 7.51042L214.742 7.39584L214.963 7.28125L215.276 7.07292L215.718 6.92188C215.892 6.89584 215.985 6.88542 215.995 6.88542V6.90625C215.995 6.90625 215.975 6.91146 215.975 6.92709H215.995C216.047 6.92709 216.119 6.90104 216.216 6.85417C216.278 6.80209 216.365 6.78125 216.473 6.78125C216.524 6.78125 216.607 6.79167 216.73 6.81771C217.048 6.82813 217.228 6.97917 217.264 7.26563L217.269 7.27604Z" fill="white"/>
<path d="M224 9.85938L223.887 10.1979C223.887 10.5208 223.866 10.7813 223.83 10.9688L223.717 11.1563V11.3646L223.625 11.4948L223.568 11.7552L223.363 11.9635L223.234 12.4323L223.085 12.4896L223.014 12.6979L222.793 12.8281L222.644 13.1458L222.423 13.2604L222.402 13.4844L222.053 13.6146C221.893 13.8385 221.693 13.9844 221.462 14.0469L221.39 14.0677C221.215 14.3281 220.989 14.4635 220.707 14.4635C220.583 14.5365 220.439 14.5781 220.28 14.5781L220.095 14.7083L219.91 14.7656L219.669 14.9531H219.427L219.17 15.0104L218.857 14.8802L218.061 14.8229L217.783 14.3906L217.377 13.9583L217.47 13.6563L217.192 13.0208L217.285 12.776L217.228 12.3281L217.285 12.0469V11.6719C217.285 11.4323 217.346 11.2604 217.475 11.1458C217.49 11.0208 217.573 10.8125 217.727 10.526H217.824L217.768 10.3958L217.824 10.1354V9.85417C217.922 9.73959 217.978 9.66667 217.989 9.63021L217.932 9.3698V9.29688C218.02 9.1198 218.061 8.94271 218.061 8.75521L218.451 8.21355C218.513 8.16146 218.554 8.12501 218.58 8.09896L218.559 8.02605H218.631L218.908 7.70834L218.929 7.27605L219.391 7.10938C219.566 6.9948 219.674 6.8073 219.725 6.54688H219.967C220.1 6.47396 220.224 6.4323 220.337 6.4323C220.45 6.4323 220.552 6.45834 220.65 6.50521L220.856 6.52605L221.339 6.33855L221.595 6.58334L221.801 6.71355H221.95L222.227 6.86459H222.376C222.536 7.01563 222.721 7.21876 222.931 7.48438L222.967 7.57813L223.096 7.65105L223.486 8.15626L223.836 9.03646V9.22396L224 9.88021V9.85938ZM222.777 10.3021L222.757 10.2083C222.669 10.1198 222.623 10.026 222.608 9.92709L222.664 9.83334L222.5 9.47917L222.536 9.12501L222.464 9.03126C222.305 8.90626 222.217 8.8073 222.207 8.72917C222.094 8.67709 222.042 8.5573 222.042 8.35417L221.929 8.33334L221.709 7.95834L221.544 7.82813L221.154 7.67709L221.005 7.64063C220.933 7.64063 220.881 7.61459 220.856 7.56771L220.486 7.97917L220.244 8.50001L219.854 8.70313L219.797 8.90626L219.612 9.00001L219.54 9.48438L219.319 9.59376C219.268 9.76563 219.247 9.92709 219.247 10.0781L218.949 10.3594L219.042 10.4167C219.042 10.5677 218.98 10.6979 218.857 10.8073C218.816 10.9167 218.759 11.0417 218.693 11.1823V11.6302L218.487 12.1354L218.523 12.2292V12.75L218.451 13.0104L218.472 13.2708L218.636 13.5104L218.893 13.6042L218.985 13.6406H219.612L219.684 13.4531H219.756C219.828 13.4531 219.874 13.474 219.885 13.5104L220.049 13.4531L220.198 13.5104L220.439 13.3385L220.475 13.2813L220.64 13.2448C220.727 13.1094 220.928 12.9688 221.251 12.8281L221.287 12.7344L221.657 12.4688L221.863 12.1667L222.161 12.0156L222.181 11.9219L222.279 11.7135V11.4688L222.5 11.2813L222.572 11.151L222.664 11.0417C222.613 10.8906 222.592 10.7865 222.592 10.724C222.592 10.6146 222.628 10.4948 222.705 10.3698L222.777 10.2969V10.3021Z" fill="white"/>
</g>
<defs>
<clipPath id="clip0_18608_339878">
<rect width="224" height="15" fill="white"/>
</clipPath>
</defs>
</svg>
