<svg width="77" height="32" viewBox="0 0 77 32" fill="none" xmlns="http://www.w3.org/2000/svg">
<path d="M30.581 25.288C31.547 25.288 32.321 24.982 32.903 24.37C33.485 23.758 33.776 22.954 33.776 21.958V18.52H30.617V19.87H32.426V21.958C32.426 22.552 32.258 23.032 31.922 23.398C31.586 23.758 31.139 23.938 30.581 23.938C30.023 23.938 29.576 23.758 29.24 23.398C28.904 23.032 28.736 22.552 28.736 21.958V14.542C28.736 13.948 28.904 13.471 29.24 13.111C29.576 12.745 30.023 12.562 30.581 12.562C31.139 12.562 31.586 12.745 31.922 13.111C32.258 13.471 32.426 13.948 32.426 14.542V14.992H33.776V14.542C33.776 13.54 33.485 12.736 32.903 12.13C32.321 11.518 31.547 11.212 30.581 11.212C29.621 11.212 28.847 11.518 28.259 12.13C27.677 12.736 27.386 13.54 27.386 14.542V21.958C27.386 22.954 27.677 23.758 28.259 24.37C28.847 24.982 29.621 25.288 30.581 25.288ZM35.7217 25H42.1117V23.65H37.1347V23.488C37.1347 23.014 37.2547 22.567 37.4947 22.147C37.7347 21.727 38.0437 21.322 38.4217 20.932C38.7997 20.536 39.1987 20.146 39.6187 19.762C40.0447 19.372 40.4467 18.973 40.8247 18.565C41.2027 18.151 41.5117 17.716 41.7517 17.26C41.9917 16.804 42.1117 16.312 42.1117 15.784V14.542C42.1117 13.546 41.8207 12.742 41.2387 12.13C40.6567 11.518 39.8827 11.212 38.9167 11.212C37.9567 11.212 37.1827 11.518 36.5947 12.13C36.0127 12.736 35.7217 13.54 35.7217 14.542V14.992H37.0717V14.542C37.0717 13.948 37.2397 13.471 37.5757 13.111C37.9117 12.745 38.3587 12.562 38.9167 12.562C39.4747 12.562 39.9217 12.745 40.2577 13.111C40.5937 13.471 40.7617 13.948 40.7617 14.542V15.784C40.7617 16.234 40.6387 16.654 40.3927 17.044C40.1527 17.434 39.8407 17.815 39.4567 18.187C39.0787 18.559 38.6737 18.94 38.2417 19.33C37.8097 19.714 37.4017 20.131 37.0177 20.581C36.6397 21.025 36.3277 21.517 36.0817 22.057C35.8417 22.591 35.7217 23.194 35.7217 23.866V25ZM45.8969 11.5H44.5469V25H49.6319V23.65H45.8969V11.5ZM54.5751 25.288C55.5411 25.288 56.3151 24.982 56.8971 24.37C57.4791 23.758 57.7701 22.954 57.7701 21.958V14.542C57.7701 13.54 57.4791 12.736 56.8971 12.13C56.3151 11.518 55.5411 11.212 54.5751 11.212C53.6151 11.212 52.8411 11.518 52.2531 12.13C51.6711 12.736 51.3801 13.54 51.3801 14.542V21.958C51.3801 22.954 51.6711 23.758 52.2531 24.37C52.8411 24.982 53.6151 25.288 54.5751 25.288ZM54.5751 23.938C54.0171 23.938 53.5701 23.758 53.2341 23.398C52.8981 23.032 52.7301 22.552 52.7301 21.958V14.542C52.7301 13.948 52.8981 13.471 53.2341 13.111C53.5701 12.745 54.0171 12.562 54.5751 12.562C55.1331 12.562 55.5801 12.745 55.9161 13.111C56.2521 13.471 56.4201 13.948 56.4201 14.542V21.958C56.4201 22.552 56.2521 23.032 55.9161 23.398C55.5801 23.758 55.1331 23.938 54.5751 23.938ZM66.9283 21.508H65.5783V21.958C65.5783 22.552 65.4103 23.032 65.0743 23.398C64.7383 23.758 64.2913 23.938 63.7333 23.938C63.1753 23.938 62.7283 23.758 62.3923 23.398C62.0563 23.032 61.8883 22.552 61.8883 21.958V14.542C61.8883 13.948 62.0563 13.471 62.3923 13.111C62.7283 12.745 63.1753 12.562 63.7333 12.562C64.2913 12.562 64.7383 12.745 65.0743 13.111C65.4103 13.471 65.5783 13.948 65.5783 14.542V14.992H66.9283V14.542C66.9283 13.54 66.6373 12.736 66.0553 12.13C65.4733 11.518 64.6993 11.212 63.7333 11.212C62.7733 11.212 61.9993 11.518 61.4113 12.13C60.8293 12.736 60.5383 13.54 60.5383 14.542V21.958C60.5383 22.954 60.8293 23.758 61.4113 24.37C61.9993 24.982 62.7733 25.288 63.7333 25.288C64.6993 25.288 65.4733 24.982 66.0553 24.37C66.6373 23.758 66.9283 22.954 66.9283 21.958V21.508ZM69.332 25H70.682V19.015L71.429 17.926L74.714 25H76.172L72.329 16.603L75.83 11.5H74.363L70.682 16.774V11.5H69.332V25Z" fill="#C8C8C8"/>
<path fill-rule="evenodd" clip-rule="evenodd" d="M0.585366 0H0V0.547297V10.0338V10.5811H0.585366H9.7561L9.7561 18.6847C9.62851 19.187 9.56098 19.7111 9.56098 20.25C9.56098 23.9779 12.7933 27 16.7805 27C20.7677 27 24 23.9779 24 20.25C24 18.371 23.1788 16.6713 21.8537 15.4475V4.92547H20.6829L4.87805 4.92568V6.02027H9.7561V9.48649H1.17073V1.09459H9.7561V3.64865H10.9268V0.547297V0H10.3415H0.585366ZM10.9268 16.2983L10.9268 6.02027H20.6829V14.5701C19.5577 13.8929 18.2182 13.5 16.7805 13.5C14.3716 13.5 12.2383 14.603 10.9268 16.2983ZM10.7317 20.25C10.7317 19.8108 10.7852 19.3834 10.8866 18.973H10.9268V18.8197C11.6044 16.3888 13.9683 14.5946 16.7805 14.5946C20.1211 14.5946 22.8293 17.1266 22.8293 20.25C22.8293 23.3734 20.1211 25.9054 16.7805 25.9054C13.4398 25.9054 10.7317 23.3734 10.7317 20.25ZM16.7805 24.4459C19.259 24.4459 21.2683 22.5674 21.2683 20.25C21.2683 17.9326 19.259 16.0541 16.7805 16.0541C14.3019 16.0541 12.2927 17.9326 12.2927 20.25C12.2927 22.5674 14.3019 24.4459 16.7805 24.4459Z" fill="#C8C8C8"/>
</svg>
