<svg width="114" height="42" viewBox="0 0 114 42" fill="none" xmlns="http://www.w3.org/2000/svg">
<path fill-rule="evenodd" clip-rule="evenodd" d="M0 0H0.847692H14.9759H15.8236V0.851351V5.67568H14.1282V1.7027H1.69538V14.7568H14.1282L14.1282 9.36486H7.0641V7.66216H29.9518L31.6472 7.66184V24.0294C33.5662 25.9331 34.7554 28.5771 34.7554 31.5C34.7554 37.299 30.0746 42 24.3005 42C18.5264 42 13.8456 37.299 13.8456 31.5C13.8456 30.6618 13.9434 29.8465 14.1282 29.065L14.1282 16.4595H0.847692H0V15.6081V0.851351V0ZM15.8236 9.36486L15.8236 25.353C17.7228 22.7158 20.8121 21 24.3005 21C26.3825 21 28.3223 21.6112 29.9518 22.6646V9.36486H15.8236ZM15.7653 29.5135C15.6186 30.1519 15.541 30.8169 15.541 31.5C15.541 36.3586 19.4628 40.2973 24.3005 40.2973C29.1382 40.2973 33.06 36.3586 33.06 31.5C33.06 26.6414 29.1382 22.7027 24.3005 22.7027C20.2281 22.7027 16.8048 25.4937 15.8236 29.2751V29.5135H15.7653ZM30.7995 31.5C30.7995 35.1048 27.8898 38.027 24.3005 38.027C20.7112 38.027 17.8015 35.1048 17.8015 31.5C17.8015 27.8952 20.7112 24.973 24.3005 24.973C27.8898 24.973 30.7995 27.8952 30.7995 31.5ZM49.464 32.1255C48.5996 33.037 47.45 33.4928 46.0152 33.4928C44.5894 33.4928 43.4398 33.037 42.5664 32.1255C41.702 31.214 41.2698 30.0166 41.2698 28.5332V17.4881C41.2698 15.9957 41.702 14.7983 42.5664 13.8957C43.4398 12.9843 44.5894 12.5285 46.0152 12.5285C47.45 12.5285 48.5996 12.9843 49.464 13.8957C50.3284 14.7983 50.7607 15.9957 50.7607 17.4881V18.1583H48.7555V17.4881C48.7555 16.6034 48.506 15.893 48.007 15.3568C47.5079 14.8117 46.844 14.5391 46.0152 14.5391C45.1864 14.5391 44.5225 14.8117 44.0235 15.3568C43.5244 15.893 43.2749 16.6034 43.2749 17.4881V28.5332C43.2749 29.4179 43.5244 30.1328 44.0235 30.6779C44.5225 31.214 45.1864 31.4821 46.0152 31.4821C46.844 31.4821 47.5079 31.214 48.007 30.6779C48.506 30.1328 48.7555 29.4179 48.7555 28.5332V25.4234H46.0687V23.4128H50.7607V28.5332C50.7607 30.0166 50.3284 31.214 49.464 32.1255ZM63.1414 33.0638H53.6505V31.3749C53.6505 30.374 53.8288 29.476 54.1852 28.6806C54.5506 27.8764 55.014 27.1436 55.5754 26.4823C56.1458 25.8121 56.7518 25.1911 57.3934 24.6191C58.0351 24.0383 58.6366 23.4709 59.198 22.9168C59.7684 22.3628 60.2318 21.7953 60.5882 21.2145C60.9536 20.6336 61.1363 20.0081 61.1363 19.3379V17.4881C61.1363 16.6034 60.8868 15.893 60.3877 15.3568C59.8887 14.8117 59.2248 14.5391 58.396 14.5391C57.5672 14.5391 56.9033 14.8117 56.4042 15.3568C55.9052 15.893 55.6557 16.6034 55.6557 17.4881V18.1583H53.6505V17.4881C53.6505 15.9957 54.0827 14.7983 54.9472 13.8957C55.8205 12.9843 56.9701 12.5285 58.396 12.5285C59.8307 12.5285 60.9804 12.9843 61.8448 13.8957C62.7092 14.8072 63.1414 16.0047 63.1414 17.4881V19.3379C63.1414 20.1243 62.9632 20.857 62.6067 21.5362C62.2503 22.2153 61.7913 22.8632 61.2299 23.4798C60.6684 24.0874 60.0714 24.6817 59.4386 25.2626C58.8148 25.8345 58.2222 26.4153 57.6608 27.0051C57.0993 27.586 56.6404 28.1891 56.2839 28.8147C55.9275 29.4402 55.7492 30.106 55.7492 30.8119V31.0532H63.1414V33.0638ZM66.7584 12.9574H68.7635V31.0532H74.311V33.0638H66.7584V12.9574ZM85.1018 32.1255C84.2374 33.037 83.0878 33.4928 81.653 33.4928C80.2272 33.4928 79.0776 33.037 78.2042 32.1255C77.3398 31.214 76.9076 30.0166 76.9076 28.5332V17.4881C76.9076 15.9957 77.3398 14.7983 78.2042 13.8957C79.0776 12.9843 80.2272 12.5285 81.653 12.5285C83.0878 12.5285 84.2374 12.9843 85.1018 13.8957C85.9663 14.7983 86.3985 15.9957 86.3985 17.4881V28.5332C86.3985 30.0166 85.9663 31.214 85.1018 32.1255ZM79.6613 30.6779C80.1603 31.214 80.8243 31.4821 81.653 31.4821C82.4818 31.4821 83.1457 31.214 83.6448 30.6779C84.1438 30.1328 84.3934 29.4179 84.3934 28.5332V17.4881C84.3934 16.6034 84.1438 15.893 83.6448 15.3568C83.1457 14.8117 82.4818 14.5391 81.653 14.5391C80.8243 14.5391 80.1603 14.8117 79.6613 15.3568C79.1622 15.893 78.9127 16.6034 78.9127 17.4881V28.5332C78.9127 29.4179 79.1622 30.1328 79.6613 30.6779ZM97.9958 27.863H100.001V28.5332C100.001 30.0166 99.5687 31.214 98.7043 32.1255C97.8399 33.037 96.6902 33.4928 95.2555 33.4928C93.8296 33.4928 92.68 33.037 91.8067 32.1255C90.9422 31.214 90.51 30.0166 90.51 28.5332V17.4881C90.51 15.9957 90.9422 14.7983 91.8067 13.8957C92.68 12.9843 93.8296 12.5285 95.2555 12.5285C96.6902 12.5285 97.8399 12.9843 98.7043 13.8957C99.5687 14.7983 100.001 15.9957 100.001 17.4881V18.1583H97.9958V17.4881C97.9958 16.6034 97.7463 15.893 97.2472 15.3568C96.7482 14.8117 96.0843 14.5391 95.2555 14.5391C94.4267 14.5391 93.7628 14.8117 93.2637 15.3568C92.7647 15.893 92.5151 16.6034 92.5151 17.4881V28.5332C92.5151 29.4179 92.7647 30.1328 93.2637 30.6779C93.7628 31.214 94.4267 31.4821 95.2555 31.4821C96.0843 31.4821 96.7482 31.214 97.2472 30.6779C97.7463 30.1328 97.9958 29.4179 97.9958 28.5332V27.863ZM105.576 33.0638H103.571V12.9574H105.576V20.8123L111.043 12.9574H113.222L108.022 20.5577L113.73 33.0638H111.565L106.686 22.5281L105.576 24.15V33.0638Z" fill="white"/>
</svg>
