<svg width="28" height="28" viewBox="0 0 28 28" fill="none" xmlns="http://www.w3.org/2000/svg">
<path fill-rule="evenodd" clip-rule="evenodd" d="M8.94655 11.7936C10.3482 10.8599 12.0316 10.3158 13.8421 10.3158C15.6519 10.3158 17.3347 10.8595 18.736 11.7925V5.89475C18.736 3.19145 16.5446 1 13.8413 1C11.138 1 8.94655 3.19146 8.94655 5.89475V11.7936ZM7.94655 12.568C6.13808 14.187 5 16.5395 5 19.1579C5 24.0412 8.95875 28 13.8421 28C18.7255 28 22.6842 24.0412 22.6842 19.1579C22.6842 16.5387 21.5455 14.1856 19.736 12.5665V5.89475C19.736 2.63917 17.0969 0 13.8413 0C10.5857 0 7.94655 2.63917 7.94655 5.89475V12.568Z" fill="white"/>
</svg>
