<svg width="48" height="48" viewBox="0 0 48 48" fill="none" xmlns="http://www.w3.org/2000/svg">
<rect width="48" height="48" rx="4" fill="#00A236"/>
<path d="M35.0441 20.7949C35.1712 20.7905 35.2978 20.8117 35.4165 20.8573C35.5352 20.9029 35.6435 20.972 35.7349 21.0603C35.8264 21.1486 35.8991 21.2545 35.9488 21.3715C35.9984 21.4886 36.024 21.6144 36.024 21.7415C36.024 21.8687 35.9984 21.9945 35.9488 22.1116C35.8991 22.2286 35.8264 22.3345 35.7349 22.4228C35.6435 22.5111 35.5352 22.5802 35.4165 22.6258C35.2978 22.6714 35.1712 22.6926 35.0441 22.6882H32.4128V24.3757H35.0441C35.172 24.3695 35.2997 24.3893 35.4197 24.4339C35.5396 24.4785 35.6493 24.547 35.7419 24.6353C35.8346 24.7235 35.9084 24.8297 35.9588 24.9473C36.0092 25.065 36.0352 25.1916 36.0352 25.3196C36.0352 25.4476 36.0092 25.5742 35.9588 25.6919C35.9084 25.8095 35.8346 25.9157 35.7419 26.0039C35.6493 26.0922 35.5396 26.1607 35.4197 26.2053C35.2997 26.2499 35.172 26.2697 35.0441 26.2635H31.47C31.2201 26.2626 30.9808 26.1628 30.8044 25.9859C30.6279 25.809 30.5287 25.5695 30.5284 25.3196V18.1646C30.5284 17.6437 30.9502 17.2162 31.47 17.2162H35.0509C35.2938 17.2288 35.5226 17.3343 35.6898 17.5109C35.8571 17.6876 35.95 17.9218 35.9492 18.165C35.9485 18.4083 35.8542 18.6419 35.686 18.8176C35.5177 18.9932 35.2882 19.0974 35.0452 19.1085H32.4139V20.796L35.0441 20.7949ZM29.2684 25.3185C29.2663 25.569 29.1654 25.8086 28.9876 25.9852C28.8098 26.1617 28.5694 26.2609 28.3189 26.2612C28.1705 26.2627 28.0239 26.2296 27.8905 26.1646C27.7571 26.0995 27.6407 26.0044 27.5505 25.8866L23.8886 20.9062V25.3174C23.8886 25.5677 23.7892 25.8078 23.6122 25.9848C23.4352 26.1618 23.1951 26.2612 22.9447 26.2612C22.6944 26.2612 22.4543 26.1618 22.2773 25.9848C22.1003 25.8078 22.0009 25.5677 22.0009 25.3174V18.1624C22.0009 17.7585 22.2652 17.3962 22.6455 17.2669C22.7394 17.2337 22.8384 17.2173 22.938 17.2185C23.2305 17.2185 23.5005 17.3771 23.6816 17.5999L27.3727 22.5915V18.1624C27.3727 17.6415 27.7946 17.214 28.3166 17.214C28.8386 17.214 29.2661 17.6415 29.2661 18.1624L29.2684 25.3185ZM20.6554 25.3185C20.6542 25.5694 20.5536 25.8097 20.3756 25.9866C20.1976 26.1635 19.9568 26.2627 19.7059 26.2624C19.4568 26.2603 19.2186 26.16 19.0431 25.9832C18.8676 25.8064 18.769 25.5676 18.7688 25.3185V18.1635C18.7688 17.6426 19.1906 17.2151 19.7126 17.2151C20.2335 17.2151 20.6565 17.6426 20.6565 18.1635L20.6554 25.3185ZM16.9575 26.2624H13.3766C13.126 26.2618 12.8856 26.1623 12.7079 25.9856C12.5301 25.8089 12.4292 25.5691 12.4271 25.3185V18.1635C12.4271 17.6426 12.8546 17.2151 13.3766 17.2151C13.8986 17.2151 14.3205 17.6426 14.3205 18.1635V24.3746H16.9575C17.2078 24.3746 17.4479 24.474 17.6249 24.6511C17.8019 24.8281 17.9014 25.0681 17.9014 25.3185C17.9014 25.5688 17.8019 25.8089 17.6249 25.9859C17.4479 26.1629 17.2078 26.2624 16.9575 26.2624ZM42 21.4676C42 13.4115 33.9191 6.85498 24 6.85498C14.0809 6.85498 6 13.4115 6 21.4676C6 28.6867 12.4046 34.7336 21.0525 35.8822C21.6386 36.0049 22.4351 36.2692 22.641 36.7676C22.8221 37.2176 22.758 37.9151 22.6995 38.391L22.4531 39.9199C22.3822 40.371 22.0898 41.6962 24.0236 40.8874C25.9631 40.0785 34.4006 34.7707 38.1795 30.4215C40.7636 27.5921 42 24.6851 42 21.4676Z" fill="#E6E7E6"/>
</svg>
