<svg width="28" height="28" viewBox="0 0 28 28" fill="none" xmlns="http://www.w3.org/2000/svg">
<path d="M24.2191 25.55H6.49609V2.33472H13.8789H17.1584L24.2191 7.86682V25.55Z" stroke="white" stroke-width="1.5"/>
<rect x="3" y="13.9424" width="15.1038" height="8.23844" fill="black"/>
<path d="M5.96973 18.9763H8.14697V19.8H4.94434V14.8235H5.96973V18.9763ZM8.51953 17.9167C8.51953 17.5499 8.59017 17.2229 8.73145 16.9358C8.87272 16.6487 9.07552 16.4265 9.33984 16.2693C9.60645 16.1121 9.9152 16.0334 10.2661 16.0334C10.7651 16.0334 11.1719 16.1861 11.4863 16.4915C11.8031 16.7968 11.9797 17.2115 12.0161 17.7356L12.0229 17.9885C12.0229 18.5559 11.8646 19.0116 11.5479 19.3557C11.2311 19.6975 10.8062 19.8684 10.2729 19.8684C9.73975 19.8684 9.31364 19.6975 8.99463 19.3557C8.6779 19.0139 8.51953 18.5491 8.51953 17.9612V17.9167ZM9.50732 17.9885C9.50732 18.3394 9.5734 18.6083 9.70557 18.7952C9.83773 18.9797 10.0269 19.072 10.2729 19.072C10.5122 19.072 10.6991 18.9809 10.8335 18.7986C10.9679 18.614 11.0352 18.3201 11.0352 17.9167C11.0352 17.5727 10.9679 17.3061 10.8335 17.1169C10.6991 16.9278 10.5099 16.8333 10.2661 16.8333C10.0246 16.8333 9.83773 16.9278 9.70557 17.1169C9.5734 17.3038 9.50732 17.5943 9.50732 17.9885ZM12.4878 17.9236C12.4878 17.3562 12.6222 16.8993 12.8911 16.553C13.1623 16.2066 13.5269 16.0334 13.9849 16.0334C14.3905 16.0334 14.7061 16.1724 14.9316 16.4504L14.9727 16.1018H15.8682V19.677C15.8682 20.0006 15.7941 20.282 15.646 20.5212C15.5002 20.7605 15.2939 20.9428 15.0273 21.0681C14.7607 21.1934 14.4486 21.2561 14.0908 21.2561C13.8197 21.2561 13.5553 21.2014 13.2979 21.092C13.0404 20.9849 12.8455 20.8459 12.7134 20.675L13.1509 20.0735C13.397 20.3492 13.6955 20.4871 14.0464 20.4871C14.3084 20.4871 14.5124 20.4164 14.6582 20.2751C14.804 20.1361 14.877 19.9379 14.877 19.6804V19.4822C14.6491 19.7397 14.3494 19.8684 13.978 19.8684C13.5337 19.8684 13.1737 19.6952 12.8979 19.3489C12.6245 19.0002 12.4878 18.5388 12.4878 17.9646V17.9236ZM13.4756 17.9954C13.4756 18.3303 13.5428 18.5935 13.6772 18.7849C13.8117 18.974 13.9963 19.0686 14.231 19.0686C14.5317 19.0686 14.7471 18.9558 14.877 18.7302V17.175C14.7448 16.9495 14.5317 16.8367 14.2378 16.8367C14.0008 16.8367 13.814 16.9335 13.6772 17.1272C13.5428 17.3209 13.4756 17.6103 13.4756 17.9954Z" fill="white"/>
<path d="M16.7299 8.4501L16.7299 1.58473L24.9683 7.76358L24.9683 8.4501L16.7299 8.4501Z" fill="white"/>
</svg>
