<svg width="31" height="50" viewBox="0 0 31 50" fill="none" xmlns="http://www.w3.org/2000/svg">
<path fill-rule="evenodd" clip-rule="evenodd" d="M7.69231 20.0069C9.95518 18.6979 12.5824 17.9487 15.3846 17.9487C18.1868 17.9487 20.8141 18.6979 23.0769 20.0069V10.2564C23.0769 6.00807 19.633 2.5641 15.3846 2.5641C11.1363 2.5641 7.69231 6.00807 7.69231 10.2564V20.0069ZM5.1282 21.8661C1.98077 24.6832 0 28.7769 0 33.3333C0 41.83 6.88793 48.7179 15.3846 48.7179C23.8813 48.7179 30.7692 41.83 30.7692 33.3333C30.7692 28.7769 28.7885 24.6832 25.641 21.8661V10.2564C25.641 4.59195 21.0491 0 15.3846 0C9.72016 0 5.1282 4.59195 5.1282 10.2564V21.8661Z" fill="#FF555D"/>
<path d="M23.0008 27.8101L17.5546 33.2563L23.0008 38.7024L20.8316 40.8716L15.3854 35.4409L9.95463 40.8716L7.77002 38.687L13.2008 33.2563L7.77002 27.8255L9.95463 25.6409L15.3854 31.0716L20.8316 25.6409L23.0008 27.8101Z" fill="white"/>
</svg>
