<svg width="428" height="428" viewBox="0 0 428 428" fill="none" xmlns="http://www.w3.org/2000/svg">
<path fill-rule="evenodd" clip-rule="evenodd" d="M53.1795 157.109C56.0785 148.913 59.6156 140.907 63.7809 133.167C83.5888 96.3548 116.224 68.0978 155.491 53.7599C194.758 39.4221 237.922 40.0018 276.79 55.3888C315.658 70.7759 347.523 99.8991 366.335 137.23L404.51 117.992C404.499 117.971 404.489 117.95 404.478 117.93C399.091 107.249 392.85 97.1054 385.845 87.5826C362.25 55.5086 329.989 30.4731 292.525 15.642C243.917 -3.60098 189.936 -4.32588 140.829 13.6049C91.7219 31.5358 50.9083 66.874 26.1365 112.911C1.3648 158.947 -5.64046 212.477 6.45067 263.338C18.5418 314.199 48.8875 358.849 91.7268 388.813C134.566 418.776 186.916 431.967 238.839 425.88C290.762 419.793 338.642 394.852 373.389 355.793C404.974 320.289 423.71 275.366 426.859 228.22C427.174 223.499 427.333 218.756 427.333 213.997V192.664H85.9997V235.331H384.666C384.666 249.289 382.946 260.706 379.62 270.886C372.984 291.194 359.958 306.576 341.451 327.38C313.666 358.612 275.38 378.555 233.862 383.422C192.343 388.29 150.483 377.742 116.228 353.783C86.9628 333.314 64.9891 304.273 53.1796 270.886C52.1969 268.108 51.2845 265.3 50.4442 262.464C49.5628 259.489 48.7607 256.484 48.0397 253.451C41.0958 224.242 42.0286 193.931 50.4442 165.531C51.2819 162.703 52.1939 159.895 53.1795 157.109Z" fill="white"/>
</svg>
