<svg width="40" height="40" viewBox="0 0 40 40" fill="none" xmlns="http://www.w3.org/2000/svg">
<g opacity="0.7">
<path d="M31.6667 31.8667H31.8667V31.6667V8.33333V8.13333H31.6667H8.33333H8.13333V8.33333V31.6667V31.8667H8.33333H31.6667ZM18.5333 11.8667H28.1333V14.8H18.5333V11.8667ZM18.5333 18.5333H28.1333V21.4667H18.5333V18.5333ZM18.5333 25.2H28.1333V28.1333H18.5333V25.2ZM11.8667 11.8667H14.8V14.8H11.8667V11.8667ZM11.8667 18.5333H14.8V21.4667H11.8667V18.5333ZM11.8667 25.2H14.8V28.1333H11.8667V25.2ZM6.5 5.2H33.5C33.772 5.2 34.1005 5.33942 34.3639 5.58406C34.6253 5.82677 34.8 6.15178 34.8 6.5V33.5C34.8 33.7588 34.6314 34.0858 34.3586 34.3586C34.0858 34.6314 33.7588 34.8 33.5 34.8H6.5C6.15178 34.8 5.82677 34.6253 5.58406 34.3639C5.33942 34.1005 5.2 33.772 5.2 33.5V6.5C5.2 5.77712 5.77712 5.2 6.5 5.2Z" fill="white" stroke="#BE5E0E" stroke-width="0.4"/>
</g>
</svg>
