<svg width="40" height="40" viewBox="0 0 40 40" fill="none" xmlns="http://www.w3.org/2000/svg">
<g opacity="0.7">
<path d="M35.683 19.3002L20.683 4.30016C20.083 3.70016 19.2497 3.3335 18.333 3.3335H6.66634C4.83301 3.3335 3.33301 4.8335 3.33301 6.66683V18.3335C3.33301 19.2502 3.69967 20.0835 4.31634 20.7002L19.3163 35.7002C19.9163 36.3002 20.7497 36.6668 21.6663 36.6668C22.583 36.6668 23.4163 36.3002 24.0163 35.6835L35.683 24.0168C36.2997 23.4168 36.6663 22.5835 36.6663 21.6668C36.6663 20.7502 36.283 19.9002 35.683 19.3002ZM21.6663 33.3502L6.66634 18.3335V6.66683H18.333V6.65016L33.333 21.6502L21.6663 33.3502Z" fill="white"/>
<path d="M10.833 13.3335C12.2137 13.3335 13.333 12.2142 13.333 10.8335C13.333 9.45278 12.2137 8.3335 10.833 8.3335C9.4523 8.3335 8.33301 9.45278 8.33301 10.8335C8.33301 12.2142 9.4523 13.3335 10.833 13.3335Z" fill="white"/>
</g>
</svg>
