<svg width="100" height="100" viewBox="0 0 100 100" fill="none" xmlns="http://www.w3.org/2000/svg">
<path d="M44.875 43.2031V56H42.2383L37.0967 47.4219V56H34.46V43.2031H37.0967L42.2471 51.79V43.2031H44.875ZM49.8057 43.2031V56H47.1689V43.2031H49.8057ZM54.9033 48.6699V50.7266H49.085V48.6699H54.9033ZM55.5186 43.2031V45.2686H49.085V43.2031H55.5186ZM64.4658 51.7549H67.0938C67.041 52.6162 66.8037 53.3809 66.3818 54.0488C65.9658 54.7168 65.3828 55.2383 64.6328 55.6133C63.8887 55.9883 62.9922 56.1758 61.9434 56.1758C61.123 56.1758 60.3877 56.0352 59.7373 55.7539C59.0869 55.4668 58.5303 55.0566 58.0674 54.5234C57.6104 53.9902 57.2617 53.3457 57.0215 52.5898C56.7812 51.834 56.6611 50.9873 56.6611 50.0498V49.1621C56.6611 48.2246 56.7842 47.3779 57.0303 46.6221C57.2822 45.8604 57.6396 45.2129 58.1025 44.6797C58.5713 44.1465 59.1309 43.7363 59.7812 43.4492C60.4316 43.1621 61.1582 43.0186 61.9609 43.0186C63.0273 43.0186 63.9268 43.2119 64.6592 43.5986C65.3975 43.9854 65.9688 44.5186 66.373 45.1982C66.7832 45.8779 67.0293 46.6514 67.1113 47.5186H64.4746C64.4453 47.0029 64.3428 46.5664 64.167 46.209C63.9912 45.8457 63.7246 45.5732 63.3672 45.3916C63.0156 45.2041 62.5469 45.1104 61.9609 45.1104C61.5215 45.1104 61.1377 45.1924 60.8096 45.3564C60.4814 45.5205 60.2061 45.7695 59.9834 46.1035C59.7607 46.4375 59.5938 46.8594 59.4824 47.3691C59.377 47.873 59.3242 48.4648 59.3242 49.1445V50.0498C59.3242 50.7119 59.374 51.2949 59.4736 51.7988C59.5732 52.2969 59.7256 52.7188 59.9307 53.0645C60.1416 53.4043 60.4111 53.6621 60.7393 53.8379C61.0732 54.0078 61.4746 54.0928 61.9434 54.0928C62.4941 54.0928 62.9482 54.0049 63.3057 53.8291C63.6631 53.6533 63.9355 53.3926 64.123 53.0469C64.3164 52.7012 64.4307 52.2705 64.4658 51.7549Z" fill="#FD6D16"/>
<path fill-rule="evenodd" clip-rule="evenodd" d="M27 32V88.7213C27 91.0844 28.913 93 31.2727 93H69.7273C72.087 93 74 91.0844 74 88.7213V10.2787C74 7.91563 72.087 6 69.7273 6H62V8.85246H69.7273C70.5139 8.85246 71.1515 9.491 71.1515 10.2787V88.7213C71.1515 89.509 70.5139 90.1475 69.7273 90.1475H31.2727C30.4861 90.1475 29.8485 89.509 29.8485 88.7213V32H27Z" fill="#FD6D16"/>
<rect x="0.5" y="0.5" width="58" height="28" rx="2.5" stroke="#FD6D16"/>
<path d="M22.2734 5.9375V23H18.7695V5.9375H22.2734ZM39.4531 5.9375V23H35.9375L29.082 11.5625V23H25.5664V5.9375H29.082L35.9492 17.3867V5.9375H39.4531Z" fill="#FD6D16"/>
</svg>
