<svg width="40" height="40" viewBox="0 0 40 40" fill="none" xmlns="http://www.w3.org/2000/svg">
<g opacity="0.7">
<path d="M20.0003 36.6665C21.8337 36.6665 23.3337 35.1665 23.3337 33.3332H16.667C16.667 35.1665 18.167 36.6665 20.0003 36.6665ZM30.0003 26.6665V18.3332C30.0003 13.2165 27.2837 8.93317 22.5003 7.79984V6.6665C22.5003 5.28317 21.3837 4.1665 20.0003 4.1665C18.617 4.1665 17.5003 5.28317 17.5003 6.6665V7.79984C12.7337 8.93317 10.0003 13.1998 10.0003 18.3332V26.6665L6.66699 29.9998V31.6665H33.3337V29.9998L30.0003 26.6665ZM26.667 28.3332H13.3337V18.3332C13.3337 14.1998 15.8503 10.8332 20.0003 10.8332C24.1503 10.8332 26.667 14.1998 26.667 18.3332V28.3332Z" fill="white" stroke="#00AEC9"/>
</g>
</svg>
