<svg width="40" height="40" viewBox="0 0 60 32" fill="none" xmlns="http://www.w3.org/2000/svg">
<path fill-rule="evenodd" clip-rule="evenodd" d="M20.1272 9.85776L14.2687 3.9992C13.7867 3.51721 13.1172 3.22266 12.3809 3.22266H3.00879C1.53604 3.22266 0.331055 4.42764 0.331055 5.90039V15.2725C0.331055 16.0088 0.625605 16.6783 1.12099 17.1737L13.1708 29.2235C13.6528 29.7054 14.3222 30 15.0586 30C15.795 30 16.4644 29.7054 16.9464 29.2101L23.3208 22.8356C22.1448 22.8264 21.0189 22.6737 19.9784 22.4018L15.0586 27.3357L3.00879 15.2725V5.90039H12.3809V5.887L17.3981 10.9043C18.2122 10.4608 19.132 10.1051 20.1272 9.85776Z" fill="white"/>
<path d="M6.3686 11.2709C7.47989 11.2709 8.38076 10.37 8.38076 9.25874C8.38076 8.14746 7.47989 7.24658 6.3686 7.24658C5.25732 7.24658 4.35645 8.14746 4.35645 9.25874C4.35645 10.37 5.25732 11.2709 6.3686 11.2709Z" fill="white"/>
<path d="M31.9059 16.4617C31.8501 16.7138 31.6912 16.8903 31.5214 17.0668C30.2387 18.3997 28.9582 19.7373 27.6777 21.0725C27.4115 21.351 27.0895 21.4083 26.7872 21.2364C26.4071 21.0198 26.3063 20.4799 26.5812 20.1304C26.6163 20.0857 26.6546 20.0433 26.6941 20.002C27.1487 19.5275 27.6032 19.053 28.0578 18.5785C28.0841 18.551 28.1192 18.5327 28.1498 18.5098C28.1433 18.4972 28.1356 18.4846 28.129 18.4708C28.0896 18.4708 28.0502 18.4708 28.0107 18.4708C26.0149 18.4708 24.0191 18.4697 22.0233 18.472C21.7637 18.472 21.5446 18.3952 21.3858 18.174C21.2281 17.9528 21.1963 17.7075 21.2971 17.4531C21.3968 17.1998 21.5819 17.0473 21.8437 17.0049C21.9182 16.9923 21.9959 16.9889 22.0715 16.9889C24.5329 16.9877 26.9931 16.9877 29.4544 16.99C29.5366 16.99 29.5968 16.9671 29.6571 16.9075C29.8444 16.7184 30.0361 16.535 30.2344 16.3413C30.2103 16.315 30.1884 16.2886 30.1643 16.2657C29.9901 16.0938 29.8126 15.9253 29.6418 15.7499C29.587 15.6938 29.5311 15.6766 29.4577 15.6766C26.9832 15.68 24.5077 15.68 22.0332 15.6846C21.7747 15.6846 21.5567 15.6124 21.3913 15.3947C21.0671 14.966 21.3037 14.3093 21.8185 14.2153C21.893 14.2016 21.9708 14.1981 22.0463 14.1981C24.0312 14.197 26.0171 14.197 28.002 14.197C28.0425 14.197 28.083 14.197 28.1476 14.197C28.1093 14.1534 28.0874 14.1248 28.0622 14.0984C27.5967 13.6102 27.1289 13.1231 26.6645 12.6337C26.4027 12.3575 26.3512 12.0159 26.521 11.7007C26.7247 11.3214 27.2308 11.2137 27.5572 11.483C27.6065 11.5231 27.6525 11.5678 27.6963 11.6136C28.978 12.9534 30.2585 14.2944 31.5423 15.633C31.7011 15.7992 31.8501 15.9666 31.9048 16.2027C31.9059 16.2875 31.9059 16.3746 31.9059 16.4617Z" fill="white"/>
<path d="M51.9055 10.8893H50.6277V8.33371C50.6277 4.80705 47.7655 1.94482 44.2388 1.94482C40.7122 1.94482 37.8499 4.80705 37.8499 8.33371V10.8893H36.5722C35.1666 10.8893 34.0166 12.0393 34.0166 13.4448V26.2226C34.0166 27.6282 35.1666 28.7782 36.5722 28.7782H51.9055C53.311 28.7782 54.461 27.6282 54.461 26.2226V13.4448C54.461 12.0393 53.311 10.8893 51.9055 10.8893ZM40.4055 8.33371C40.4055 6.2126 42.1177 4.50038 44.2388 4.50038C46.3599 4.50038 48.0722 6.2126 48.0722 8.33371V10.8893H40.4055V8.33371ZM51.9055 26.2226H36.5722V13.4448H51.9055V26.2226ZM44.2388 22.3893C45.6444 22.3893 46.7944 21.2393 46.7944 19.8337C46.7944 18.4282 45.6444 17.2782 44.2388 17.2782C42.8333 17.2782 41.6833 18.4282 41.6833 19.8337C41.6833 21.2393 42.8333 22.3893 44.2388 22.3893Z" fill="white" stroke="#BE5E0E" stroke-width="0.3"/>
</svg>
