<svg width="40" height="40" viewBox="0 0 40 40" fill="none" xmlns="http://www.w3.org/2000/svg">
<g opacity="0.7">
<path d="M30.888 30.0561C30.9119 29.8768 30.9238 29.6915 30.9238 29.4943C30.9238 29.303 30.9119 29.1117 30.882 28.9324L32.0953 27.9881C32.2029 27.9044 32.2328 27.743 32.1671 27.6235L31.0195 25.6391C30.9478 25.5076 30.7983 25.4658 30.6668 25.5076L29.2383 26.0814C28.9395 25.8543 28.6227 25.663 28.2701 25.5196L28.0549 24.0014C28.031 23.858 27.9114 23.7563 27.768 23.7563H25.4728C25.3294 23.7563 25.2158 23.858 25.1919 24.0014L24.9767 25.5196C24.6241 25.663 24.3013 25.8603 24.0084 26.0814L22.5799 25.5076C22.4484 25.4598 22.299 25.5076 22.2273 25.6391L21.0857 27.6235C21.014 27.749 21.0379 27.9044 21.1574 27.9881L22.3707 28.9324C22.3409 29.1117 22.3169 29.309 22.3169 29.4943C22.3169 29.6796 22.3289 29.8768 22.3588 30.0561L21.1455 31.0005C21.0379 31.0842 21.008 31.2455 21.0737 31.3651L22.2213 33.3495C22.293 33.4809 22.4425 33.5228 22.574 33.4809L24.0025 32.9072C24.3013 33.1343 24.6181 33.3255 24.9707 33.469L25.1859 34.9872C25.2158 35.1306 25.3294 35.2322 25.4728 35.2322H27.768C27.9114 35.2322 28.031 35.1306 28.0489 34.9872L28.2641 33.469C28.6167 33.3255 28.9395 33.1343 29.2324 32.9072L30.6609 33.4809C30.7924 33.5288 30.9418 33.4809 31.0135 33.3495L32.1611 31.3651C32.2328 31.2336 32.2029 31.0842 32.0894 31.0005L30.888 30.0561ZM26.6204 31.646C25.4369 31.646 24.4687 30.6777 24.4687 29.4943C24.4687 28.3108 25.4369 27.3426 26.6204 27.3426C27.8038 27.3426 28.7721 28.3108 28.7721 29.4943C28.7721 30.6777 27.8038 31.646 26.6204 31.646Z" fill="white"/>
<path fill-rule="evenodd" clip-rule="evenodd" d="M9.05761 4.66699H20.4599L29.0116 13.2187V20.6834C28.5316 20.6121 28.0403 20.5752 27.5404 20.5752C27.0724 20.5752 26.6119 20.6076 26.1611 20.6702V14.644H19.0346V7.51757H9.05761V30.3222H17.611C17.6099 30.3834 17.6094 30.4447 17.6094 30.5062C17.6094 31.4299 17.7355 32.3242 17.9714 33.1727H9.04335C7.47554 33.1727 6.20703 31.89 6.20703 30.3222L6.22128 7.51757C6.22128 5.94975 7.48979 4.66699 9.05761 4.66699Z" fill="white"/>
</g>
</svg>
