<svg width="40" height="40" viewBox="0 0 40 40" fill="none" xmlns="http://www.w3.org/2000/svg">
<g opacity="0.7">
<path fill-rule="evenodd" clip-rule="evenodd" d="M9.46828 4H20.6773L29.0841 12.4068V19.7445C28.612 19.6744 28.129 19.638 27.6374 19.638C27.1774 19.638 26.7249 19.6698 26.2818 19.7314V13.8079H19.2762V6.80226H9.46828V29.2203H17.8763C17.8752 29.2803 17.8747 29.3405 17.8747 29.4007C17.8747 30.309 17.9987 31.1883 18.2308 32.0226H9.45426C7.91302 32.0226 6.66602 30.7616 6.66602 29.2203L6.68003 6.80226C6.68003 5.26102 7.92703 4 9.46828 4Z" fill="white"/>
<path d="M29.7497 26.1667H27.4163V22.5H23.9163V26.1667H21.583L25.6663 30.4444L29.7497 26.1667ZM21.583 31.6667V32.8889H29.7497V31.6667H21.583Z" fill="white"/>
</g>
</svg>
