<svg width="40" height="40" viewBox="0 0 37 33" fill="none" xmlns="http://www.w3.org/2000/svg">
<g opacity="0.7">
<path d="M33.5849 23.9587H31.1739V20.3423H27.5575V23.9587H25.1465L29.3657 28.1779L33.5849 23.9587ZM25.1465 29.3834V30.5889H33.5849V29.3834H25.1465Z" fill="white"/>
</g>
<g opacity="0.7">
<path fill-rule="evenodd" clip-rule="evenodd" d="M19.3724 8.45208C19.3724 6.29098 17.6625 4.53974 15.5524 4.53974C13.4423 4.53974 11.7324 6.29098 11.7324 8.45208C11.7324 10.6132 13.4423 12.3644 15.5524 12.3644C17.6625 12.3644 19.3724 10.6132 19.3724 8.45208ZM22.2646 22.4976C20.2989 21.8197 17.8982 21.3069 15.5524 21.3069C10.1498 21.3069 4.4562 24.0269 4.4562 25.2193V27.2686H21.6903C21.9506 28.5973 22.5499 29.8074 23.3962 30.8083H1V25.2193C1 20.2636 10.6955 17.7672 15.5524 17.7672C17.958 17.7672 21.5507 18.3796 24.5644 19.6C23.584 20.3702 22.7913 21.3618 22.2646 22.4976ZM8.27621 8.45208C8.27621 4.33481 11.5323 1 15.5524 1C19.5725 1 22.8286 4.33481 22.8286 8.45208C22.8286 12.5694 19.5725 15.9042 15.5524 15.9042C11.5323 15.9042 8.27621 12.5694 8.27621 8.45208Z" fill="white"/>
<path d="M22.2646 22.4976L22.1559 22.8127L22.4404 22.9109L22.567 22.6379L22.2646 22.4976ZM4.4562 27.2686H4.12287V27.6019H4.4562V27.2686ZM21.6903 27.2686L22.0174 27.2045L21.9647 26.9352H21.6903V27.2686ZM23.3962 30.8083V31.1417H24.1146L23.6508 30.5931L23.3962 30.8083ZM1 30.8083H0.666667V31.1417H1V30.8083ZM24.5644 19.6L24.7703 19.8621L25.2224 19.5068L24.6895 19.291L24.5644 19.6ZM15.5524 4.87307C17.471 4.87307 19.0391 6.46752 19.0391 8.45208H19.7058C19.7058 6.11443 17.8541 4.2064 15.5524 4.2064V4.87307ZM12.0657 8.45208C12.0657 6.46752 13.6339 4.87307 15.5524 4.87307V4.2064C13.2508 4.2064 11.3991 6.11443 11.3991 8.45208H12.0657ZM15.5524 12.0311C13.6339 12.0311 12.0657 10.4366 12.0657 8.45208H11.3991C11.3991 10.7897 13.2508 12.6978 15.5524 12.6978V12.0311ZM19.0391 8.45208C19.0391 10.4366 17.471 12.0311 15.5524 12.0311V12.6978C17.8541 12.6978 19.7058 10.7897 19.7058 8.45208H19.0391ZM15.5524 21.6403C17.8533 21.6403 20.2168 22.144 22.1559 22.8127L22.3733 22.1825C20.3811 21.4955 17.9432 20.9736 15.5524 20.9736V21.6403ZM4.78953 25.2193C4.78953 25.1943 4.81127 25.0995 4.96139 24.9293C5.10258 24.7692 5.32171 24.5829 5.61838 24.3801C6.20989 23.9757 7.06639 23.5346 8.1008 23.126C10.1696 22.3088 12.9018 21.6403 15.5524 21.6403V20.9736C12.8005 20.9736 9.98457 21.6651 7.85587 22.5059C6.79155 22.9264 5.88699 23.3889 5.24211 23.8298C4.92059 24.0496 4.65269 24.2714 4.4614 24.4883C4.27905 24.6951 4.12287 24.9461 4.12287 25.2193H4.78953ZM4.78953 27.2686V25.2193H4.12287V27.2686H4.78953ZM21.6903 26.9352H4.4562V27.6019H21.6903V26.9352ZM23.6508 30.5931C22.8399 29.634 22.2664 28.4756 22.0174 27.2045L21.3632 27.3327C21.6348 28.719 22.26 29.9807 23.1417 31.0235L23.6508 30.5931ZM1 31.1417H23.3962V30.475H1V31.1417ZM0.666667 25.2193V30.8083H1.33333V25.2193H0.666667ZM15.5524 17.4338C13.0812 17.4338 9.40011 18.0662 6.32836 19.3265C4.79204 19.9568 3.38748 20.7525 2.36184 21.722C1.33365 22.6939 0.666667 23.861 0.666667 25.2193H1.33333C1.33333 24.0997 1.87829 23.0964 2.8198 22.2065C3.76385 21.3141 5.08672 20.5565 6.58141 19.9432C9.57164 18.7164 13.1667 18.1005 15.5524 18.1005V17.4338ZM24.6895 19.291C21.6357 18.0544 18.0006 17.4338 15.5524 17.4338V18.1005C17.9155 18.1005 21.4656 18.7048 24.4392 19.9089L24.6895 19.291ZM22.567 22.6379C23.0712 21.5506 23.8304 20.6005 24.7703 19.8621L24.3584 19.3379C23.3375 20.14 22.5114 21.173 21.9622 22.3574L22.567 22.6379ZM15.5524 0.666667C11.3408 0.666667 7.94287 4.15826 7.94287 8.45208H8.60954C8.60954 4.51135 11.7239 1.33333 15.5524 1.33333V0.666667ZM23.162 8.45208C23.162 4.15826 19.7641 0.666667 15.5524 0.666667V1.33333C19.381 1.33333 22.4953 4.51135 22.4953 8.45208H23.162ZM15.5524 16.2375C19.7641 16.2375 23.162 12.7459 23.162 8.45208H22.4953C22.4953 12.3928 19.381 15.5708 15.5524 15.5708V16.2375ZM7.94287 8.45208C7.94287 12.7459 11.3408 16.2375 15.5524 16.2375V15.5708C11.7239 15.5708 8.60954 12.3928 8.60954 8.45208H7.94287Z" fill="#EF923F"/>
</g>
</svg>
