<svg width="28" height="28" viewBox="0 0 28 28" fill="none" xmlns="http://www.w3.org/2000/svg">
<path d="M24.167 24.4165H24.417V24.1665V22.3332C24.417 22.1046 24.2828 21.8906 24.1187 21.709C23.9473 21.5193 23.7058 21.3236 23.4133 21.1284C22.827 20.7369 22.0023 20.325 21.0299 19.9499C19.0848 19.1997 16.5124 18.5832 14.0003 18.5832C11.4883 18.5832 8.91586 19.1997 6.97078 19.9499C5.9983 20.325 5.17365 20.7369 4.5873 21.1284C4.29486 21.3236 4.05331 21.5193 3.88196 21.709C3.71785 21.8906 3.58366 22.1046 3.58366 22.3332V24.1665V24.4165H3.83366H24.167ZM17.7503 7.33317C17.7503 5.26177 16.0717 3.58317 14.0003 3.58317C11.9289 3.58317 10.2503 5.26177 10.2503 7.33317C10.2503 9.40457 11.9289 11.0832 14.0003 11.0832C16.0717 11.0832 17.7503 9.40457 17.7503 7.33317ZM7.58366 7.33317C7.58366 3.78791 10.4551 0.916504 14.0003 0.916504C17.5456 0.916504 20.417 3.78791 20.417 7.33317C20.417 10.8784 17.5456 13.7498 14.0003 13.7498C10.4551 13.7498 7.58366 10.8784 7.58366 7.33317ZM0.916992 22.3332C0.916992 21.3167 1.42422 20.4078 2.2941 19.6049C3.16568 18.8005 4.38459 18.1195 5.75788 17.5694C8.50485 16.469 11.8066 15.9165 14.0003 15.9165C16.1941 15.9165 19.4958 16.469 22.2428 17.5694C23.6161 18.1195 24.835 18.8005 25.7065 19.6049C26.5764 20.4078 27.0837 21.3167 27.0837 22.3332V27.0832H0.916992V22.3332Z" fill="white" stroke="#477DC0" stroke-width="0.5"/>
</svg>
