<svg width="68" height="68" viewBox="0 0 68 68" fill="none" xmlns="http://www.w3.org/2000/svg">
<path fill-rule="evenodd" clip-rule="evenodd" d="M49.396 2.22951H19.3396C18.7248 2.22951 18.2264 2.7286 18.2264 3.34426V64.6557C18.2264 65.2714 18.7248 65.7705 19.3396 65.7705H49.396C50.0108 65.7705 50.5092 65.2714 50.5092 64.6557V3.34426C50.5092 2.7286 50.0108 2.22951 49.396 2.22951ZM19.3396 0C17.4952 0 16 1.49728 16 3.34426V64.6557C16 66.5027 17.4952 68 19.3396 68H49.396C51.2404 68 52.7356 66.5027 52.7356 64.6557V3.34426C52.7356 1.49728 51.2404 0 49.396 0H19.3396Z" fill="#FD6306"/>
<path d="M26.1621 2.34482H42.5759V3.48947C42.5759 4.58398 41.5961 5.47126 40.3874 5.47126H28.3506C27.1419 5.47126 26.1621 4.58398 26.1621 3.48947V2.34482Z" fill="#FD6306"/>
<path d="M29.9784 38.163H28.0207L24.2097 31.6562V38.163H22.252V28.2738H24.2097L28.0272 34.7942V28.2738H29.9784V38.163Z" fill="#FD6306"/>
<path d="M37.4046 34.1217H33.6458V38.163H31.6881V28.2738H37.8745V29.9243H33.6458V32.4781H37.4046V34.1217Z" fill="#FD6306"/>
<path d="M46.4688 34.8689C46.3948 35.933 46.0163 36.7706 45.3333 37.3819C44.6546 37.9932 43.7584 38.2989 42.6447 38.2989C41.4266 38.2989 40.4673 37.8732 39.7669 37.022C39.0708 36.1662 38.7228 34.9934 38.7228 33.5037V32.8992C38.7228 31.9483 38.8838 31.1106 39.2057 30.3861C39.5276 29.6616 39.9866 29.1069 40.5826 28.7221C41.183 28.3326 41.8791 28.1379 42.6708 28.1379C43.7672 28.1379 44.6503 28.4436 45.3203 29.0549C45.9902 29.6662 46.3774 30.5242 46.4818 31.6291H44.5241C44.4763 30.9906 44.3044 30.5287 44.0086 30.2435C43.7171 29.9537 43.2712 29.8088 42.6708 29.8088C42.0183 29.8088 41.5288 30.0533 41.2026 30.5423C40.8806 31.0268 40.7153 31.7807 40.7066 32.8041V33.5512C40.7066 34.6198 40.861 35.4009 41.1699 35.8945C41.4832 36.388 41.9748 36.6348 42.6447 36.6348C43.2494 36.6348 43.6997 36.4922 43.9956 36.2069C44.2957 35.9171 44.4676 35.4711 44.5111 34.8689H46.4688Z" fill="#FD6306"/>
</svg>
