<svg width="68" height="43" viewBox="0 0 68 43" fill="none" xmlns="http://www.w3.org/2000/svg">
<path fill-rule="evenodd" clip-rule="evenodd" d="M0 7C0 3.13401 3.13401 0 7 0H61C64.866 0 68 3.13401 68 7V34H0V7ZM68 36H0C0 39.866 3.13401 43 7 43H61C64.866 43 68 39.866 68 36ZM27.1797 27.216C27.0717 26.586 27.0357 25.902 27.0357 24.894V15.372C27.0357 14.274 27.0717 13.608 27.1797 12.888H24.5517C24.6597 13.572 24.6957 14.31 24.6957 15.372V21.42C24.6957 22.176 24.7497 23.256 24.8217 23.958C24.4257 23.238 23.8497 22.302 23.4177 21.654L18.8637 14.796C18.2517 13.878 17.9277 13.338 17.7657 12.888H14.9577C15.0657 13.626 15.1017 14.274 15.1017 15.21V24.498C15.1017 25.722 15.0477 26.622 14.9577 27.216H17.5857C17.4957 26.568 17.4417 25.722 17.4417 24.516V18.612C17.4417 18.198 17.4057 17.388 17.3877 17.046L17.3876 17.0447C17.3485 16.5625 17.3377 16.43 17.3279 16.2975L17.3157 16.128C17.7477 16.974 18.1977 17.748 18.5397 18.288L23.1837 25.29C23.7057 26.082 24.0297 26.604 24.3357 27.216H27.1797ZM32.2789 21.024H36.1309C37.2289 21.024 37.9129 21.06 38.5789 21.15V18.756C37.8769 18.846 37.2469 18.882 36.1309 18.882H32.2789V15.066H37.0669C38.2189 15.066 38.8849 15.102 39.5329 15.192V12.762C38.7769 12.852 38.2009 12.888 37.0669 12.888H32.0269C30.9289 12.888 30.4789 12.87 29.7409 12.834C29.8489 13.662 29.8849 14.184 29.8849 15.174V24.66C29.8849 25.848 29.8489 26.604 29.7409 27.216H32.4229C32.3149 26.532 32.2789 25.902 32.2789 24.624V21.024ZM50.9909 22.392C50.8469 23.22 50.7029 23.598 50.3969 24.048C49.8209 24.894 48.7409 25.38 47.4809 25.38C44.9609 25.38 43.3769 23.328 43.3769 20.034C43.3769 16.722 44.9249 14.724 47.4809 14.724C48.5969 14.724 49.4969 15.102 50.1089 15.84C50.4689 16.254 50.6309 16.596 50.8829 17.388L53.3849 16.812C53.1689 16.128 53.0429 15.804 52.8269 15.426C52.3769 14.634 51.7289 13.968 50.9189 13.464C49.9289 12.87 48.8669 12.6 47.4629 12.6C45.6629 12.6 44.0429 13.212 42.9629 14.31C41.6129 15.66 40.8569 17.748 40.8569 20.124C40.8569 22.428 41.5589 24.462 42.8189 25.776C43.9169 26.91 45.4829 27.504 47.4449 27.504C49.6049 27.504 51.3329 26.802 52.3589 25.542C52.8989 24.84 53.2229 24.138 53.5649 22.842L50.9909 22.392Z" fill="#FD6306"/>
</svg>
