<svg width="18" height="18" viewBox="0 0 18 18" fill="none" xmlns="http://www.w3.org/2000/svg">
<rect x="1" y="4" width="16" height="10" rx="1" fill="#FD6306"/>
<path d="M7.5 10.048C7.476 9.908 7.468 9.756 7.468 9.532V7.416C7.468 7.172 7.476 7.024 7.5 6.864H6.916C6.94 7.016 6.948 7.18 6.948 7.416V8.76C6.948 8.928 6.96 9.168 6.976 9.324C6.888 9.164 6.76 8.956 6.664 8.812L5.652 7.288C5.516 7.084 5.444 6.964 5.408 6.864H4.784C4.808 7.028 4.816 7.172 4.816 7.38V9.444C4.816 9.716 4.804 9.916 4.784 10.048H5.368C5.348 9.904 5.336 9.716 5.336 9.448V8.136C5.336 8.044 5.328 7.864 5.324 7.788C5.312 7.64 5.312 7.64 5.308 7.584C5.404 7.772 5.504 7.944 5.58 8.064L6.612 9.62C6.728 9.796 6.8 9.912 6.868 10.048H7.5ZM8.63316 8.672H9.48916C9.73316 8.672 9.88516 8.68 10.0332 8.7V8.168C9.87716 8.188 9.73716 8.196 9.48916 8.196H8.63316V7.348H9.69716C9.95316 7.348 10.1012 7.356 10.2452 7.376V6.836C10.0772 6.856 9.94916 6.864 9.69716 6.864H8.57716C8.33316 6.864 8.23316 6.86 8.06916 6.852C8.09316 7.036 8.10116 7.152 8.10116 7.372V9.48C8.10116 9.744 8.09316 9.912 8.06916 10.048H8.66516C8.64116 9.896 8.63316 9.756 8.63316 9.472V8.672ZM12.7914 8.976C12.7594 9.16 12.7274 9.244 12.6594 9.344C12.5314 9.532 12.2914 9.64 12.0114 9.64C11.4514 9.64 11.0994 9.184 11.0994 8.452C11.0994 7.716 11.4434 7.272 12.0114 7.272C12.2594 7.272 12.4594 7.356 12.5954 7.52C12.6754 7.612 12.7114 7.688 12.7674 7.864L13.3234 7.736C13.2754 7.584 13.2474 7.512 13.1994 7.428C13.0994 7.252 12.9554 7.104 12.7754 6.992C12.5554 6.86 12.3194 6.8 12.0074 6.8C11.6074 6.8 11.2474 6.936 11.0074 7.18C10.7074 7.48 10.5394 7.944 10.5394 8.472C10.5394 8.984 10.6954 9.436 10.9754 9.728C11.2194 9.98 11.5674 10.112 12.0034 10.112C12.4834 10.112 12.8674 9.956 13.0954 9.676C13.2154 9.52 13.2874 9.364 13.3634 9.076L12.7914 8.976Z" fill="white"/>
<line x1="1" y1="12" x2="17" y2="12" stroke="white"/>
</svg>
