<svg width="100" height="59" viewBox="0 0 72 43" fill="none" xmlns="http://www.w3.org/2000/svg">
<rect x="3" y="1" width="66" height="41" rx="6" stroke="#FD6306" stroke-width="2"/>
<path d="M29.1797 27.216C29.0717 26.586 29.0357 25.902 29.0357 24.894V15.372C29.0357 14.274 29.0717 13.608 29.1797 12.888H26.5517C26.6597 13.572 26.6957 14.31 26.6957 15.372V21.42C26.6957 22.176 26.7497 23.256 26.8217 23.958C26.4257 23.238 25.8497 22.302 25.4177 21.654L20.8637 14.796C20.2517 13.878 19.9277 13.338 19.7657 12.888H16.9577C17.0657 13.626 17.1017 14.274 17.1017 15.21V24.498C17.1017 25.722 17.0477 26.622 16.9577 27.216H19.5857C19.4957 26.568 19.4417 25.722 19.4417 24.516V18.612C19.4417 18.198 19.4057 17.388 19.3877 17.046C19.3337 16.38 19.3337 16.38 19.3157 16.128C19.7477 16.974 20.1977 17.748 20.5397 18.288L25.1837 25.29C25.7057 26.082 26.0297 26.604 26.3357 27.216H29.1797ZM34.2789 21.024H38.1309C39.2289 21.024 39.9129 21.06 40.5789 21.15V18.756C39.8769 18.846 39.2469 18.882 38.1309 18.882H34.2789V15.066H39.0669C40.2189 15.066 40.8849 15.102 41.5329 15.192V12.762C40.7769 12.852 40.2009 12.888 39.0669 12.888H34.0269C32.9289 12.888 32.4789 12.87 31.7409 12.834C31.8489 13.662 31.8849 14.184 31.8849 15.174V24.66C31.8849 25.848 31.8489 26.604 31.7409 27.216H34.4229C34.3149 26.532 34.2789 25.902 34.2789 24.624V21.024ZM52.9909 22.392C52.8469 23.22 52.7029 23.598 52.3969 24.048C51.8209 24.894 50.7409 25.38 49.4809 25.38C46.9609 25.38 45.3769 23.328 45.3769 20.034C45.3769 16.722 46.9249 14.724 49.4809 14.724C50.5969 14.724 51.4969 15.102 52.1089 15.84C52.4689 16.254 52.6309 16.596 52.8829 17.388L55.3849 16.812C55.1689 16.128 55.0429 15.804 54.8269 15.426C54.3769 14.634 53.7289 13.968 52.9189 13.464C51.9289 12.87 50.8669 12.6 49.4629 12.6C47.6629 12.6 46.0429 13.212 44.9629 14.31C43.6129 15.66 42.8569 17.748 42.8569 20.124C42.8569 22.428 43.5589 24.462 44.8189 25.776C45.9169 26.91 47.4829 27.504 49.4449 27.504C51.6049 27.504 53.3329 26.802 54.3589 25.542C54.8989 24.84 55.2229 24.138 55.5649 22.842L52.9909 22.392Z" fill="#FD6306"/>
<line x1="2" y1="33" x2="70" y2="33" stroke="#FD6306" stroke-width="2"/>
<path d="M2.65234 37H69.3963" stroke="#FD6306" stroke-width="2"/>
<line x1="2" y1="35" x2="70" y2="35" stroke="white" stroke-width="2"/>
</svg>
