<svg width="40" height="40" viewBox="0 0 40 40" fill="none" xmlns="http://www.w3.org/2000/svg">
<g opacity="0.7">
<path d="M31.5082 13.2182C31.5291 13.0616 31.5395 12.8997 31.5395 12.7274C31.5395 12.5603 31.5291 12.3933 31.503 12.2366L32.5629 11.4116C32.6569 11.3385 32.683 11.1975 32.6256 11.0931L31.6231 9.3596C31.5604 9.24473 31.4299 9.20818 31.315 9.24473L30.0671 9.74599C29.806 9.54757 29.5293 9.38048 29.2212 9.25517L29.0332 7.92892C29.0123 7.80361 28.9079 7.71484 28.7826 7.71484H26.7776C26.6523 7.71484 26.553 7.80361 26.5322 7.92892L26.3442 9.25517C26.0361 9.38048 25.7542 9.55279 25.4983 9.74599L24.2504 9.24473C24.1355 9.20296 24.005 9.24473 23.9423 9.3596L22.945 11.0931C22.8824 11.2028 22.9033 11.3385 23.0077 11.4116L24.0676 12.2366C24.0415 12.3933 24.0206 12.5656 24.0206 12.7274C24.0206 12.8893 24.0311 13.0616 24.0572 13.2182L22.9972 14.0432C22.9033 14.1163 22.8771 14.2573 22.9346 14.3617L23.9371 16.0953C23.9998 16.2101 24.1303 16.2467 24.2452 16.2101L25.4931 15.7089C25.7542 15.9073 26.0309 16.0744 26.339 16.1997L26.5269 17.5259C26.553 17.6513 26.6523 17.74 26.7776 17.74H28.7826C28.9079 17.74 29.0123 17.6513 29.028 17.5259L29.216 16.1997C29.524 16.0744 29.806 15.9073 30.0619 15.7089L31.3098 16.2101C31.4247 16.2519 31.5552 16.2101 31.6178 16.0953L32.6204 14.3617C32.683 14.2469 32.6569 14.1163 32.5577 14.0432L31.5082 13.2182ZM27.7801 14.6072C26.7462 14.6072 25.9004 13.7613 25.9004 12.7274C25.9004 11.6936 26.7462 10.8477 27.7801 10.8477C28.8139 10.8477 29.6598 11.6936 29.6598 12.7274C29.6598 13.7613 28.8139 14.6072 27.7801 14.6072Z" fill="white"/>
<path fill-rule="evenodd" clip-rule="evenodd" d="M22.4103 32.7179C22.4103 34.5231 20.9333 36 19.1282 36C17.3231 36 15.8462 34.5231 15.8462 32.7179H22.4103ZM28.9744 19.4192V26.1538L32.2564 29.4359V31.0769H6V29.4359L9.28205 26.1538V17.9487C9.28205 12.8944 11.9733 8.69333 16.6667 7.57744V6.46154C16.6667 5.09949 17.7662 4 19.1282 4C20.4903 4 21.5897 5.09949 21.5897 6.46154V7.57744C22.1389 7.70755 22.6604 7.87984 23.1533 8.09068C22.3004 8.83933 21.6433 9.80554 21.2685 10.9026C20.6166 10.6827 19.9012 10.5641 19.1282 10.5641C15.0421 10.5641 12.5641 13.879 12.5641 17.9487V27.7949H25.6923V19.3428C26.2612 19.5036 26.8614 19.5896 27.4817 19.5896C27.9952 19.5896 28.4949 19.5307 28.9744 19.4192Z" fill="white"/>
<path d="M22.4103 32.7179H22.7436V32.3846H22.4103V32.7179ZM15.8462 32.7179V32.3846H15.5128V32.7179H15.8462ZM28.9744 26.1538H28.641V26.2919L28.7387 26.3895L28.9744 26.1538ZM28.9744 19.4192H29.3077V18.9994L28.8989 19.0945L28.9744 19.4192ZM32.2564 29.4359H32.5897V29.2978L32.4921 29.2002L32.2564 29.4359ZM32.2564 31.0769V31.4103H32.5897V31.0769H32.2564ZM6 31.0769H5.66667V31.4103H6V31.0769ZM6 29.4359L5.7643 29.2002L5.66667 29.2978V29.4359H6ZM9.28205 26.1538L9.51775 26.3895L9.61538 26.2919V26.1538H9.28205ZM16.6667 7.57744L16.7438 7.90173L17 7.84081V7.57744H16.6667ZM21.5897 7.57744H21.2564V7.84102L21.5129 7.90179L21.5897 7.57744ZM23.1533 8.09068L23.3732 8.34119L23.7706 7.99226L23.2844 7.78422L23.1533 8.09068ZM21.2685 10.9026L21.162 11.2185L21.4766 11.3246L21.584 11.0104L21.2685 10.9026ZM12.5641 27.7949H12.2308V28.1282H12.5641V27.7949ZM25.6923 27.7949V28.1282H26.0256V27.7949H25.6923ZM25.6923 19.3428L25.783 19.022L25.359 18.9021V19.3428H25.6923ZM19.1282 36.3333C21.1174 36.3333 22.7436 34.7072 22.7436 32.7179H22.0769C22.0769 34.339 20.7492 35.6667 19.1282 35.6667V36.3333ZM15.5128 32.7179C15.5128 34.7072 17.139 36.3333 19.1282 36.3333V35.6667C17.5072 35.6667 16.1795 34.339 16.1795 32.7179H15.5128ZM22.4103 32.3846H15.8462V33.0513H22.4103V32.3846ZM29.3077 26.1538V19.4192H28.641V26.1538H29.3077ZM32.4921 29.2002L29.2101 25.9181L28.7387 26.3895L32.0207 29.6716L32.4921 29.2002ZM32.5897 31.0769V29.4359H31.9231V31.0769H32.5897ZM6 31.4103H32.2564V30.7436H6V31.4103ZM5.66667 29.4359V31.0769H6.33333V29.4359H5.66667ZM9.04635 25.9181L5.7643 29.2002L6.2357 29.6716L9.51775 26.3895L9.04635 25.9181ZM8.94872 17.9487V26.1538H9.61538V17.9487H8.94872ZM16.5896 7.25314C11.7123 8.41276 8.94872 12.7775 8.94872 17.9487H9.61538C9.61538 13.0112 12.2343 8.97391 16.7438 7.90173L16.5896 7.25314ZM16.3333 6.46154V7.57744H17V6.46154H16.3333ZM19.1282 3.66667C17.5821 3.66667 16.3333 4.91539 16.3333 6.46154H17C17 5.28358 17.9503 4.33333 19.1282 4.33333V3.66667ZM21.9231 6.46154C21.9231 4.91539 20.6744 3.66667 19.1282 3.66667V4.33333C20.3062 4.33333 21.2564 5.28358 21.2564 6.46154H21.9231ZM21.9231 7.57744V6.46154H21.2564V7.57744H21.9231ZM23.2844 7.78422C22.7737 7.56573 22.234 7.38752 21.6666 7.25308L21.5129 7.90179C22.0438 8.02759 22.5472 8.19395 23.0221 8.39715L23.2844 7.78422ZM21.584 11.0104C21.9395 9.96947 22.5632 9.05217 23.3732 8.34119L22.9333 7.84018C22.0376 8.6265 21.347 9.64161 20.9531 10.7949L21.584 11.0104ZM19.1282 10.8974C19.8667 10.8974 20.546 11.0107 21.162 11.2185L21.3751 10.5868C20.6871 10.3547 19.9356 10.2308 19.1282 10.2308V10.8974ZM12.8974 17.9487C12.8974 15.9792 13.497 14.2132 14.5684 12.9454C15.6353 11.683 17.1832 10.8974 19.1282 10.8974V10.2308C16.9871 10.2308 15.2529 11.1026 14.0593 12.5151C12.8701 13.9222 12.2308 15.8484 12.2308 17.9487H12.8974ZM12.8974 27.7949V17.9487H12.2308V27.7949H12.8974ZM25.6923 27.4615H12.5641V28.1282H25.6923V27.4615ZM25.359 19.3428V27.7949H26.0256V19.3428H25.359ZM27.4817 19.2563C26.8924 19.2563 26.3226 19.1746 25.783 19.022L25.6016 19.6635C26.1997 19.8326 26.8304 19.923 27.4817 19.923V19.2563ZM28.8989 19.0945C28.4439 19.2003 27.9696 19.2563 27.4817 19.2563V19.923C28.0208 19.923 28.5458 19.8611 29.0499 19.7439L28.8989 19.0945Z" fill="#B15AB3"/>
</g>
</svg>
