<svg width="25" height="33" viewBox="0 0 25 33" fill="none" xmlns="http://www.w3.org/2000/svg">
<g opacity="0.7">
<path d="M15.9824 21.4189C16.0022 21.2706 16.0121 21.1174 16.0121 20.9543C16.0121 20.7962 16.0022 20.638 15.9775 20.4898L16.9807 19.7089C17.0697 19.6398 17.0944 19.5063 17.04 19.4075L16.0911 17.7667C16.0318 17.658 15.9083 17.6234 15.7995 17.658L14.6184 18.1324C14.3713 17.9446 14.1094 17.7865 13.8178 17.6679L13.6399 16.4126C13.6201 16.294 13.5213 16.21 13.4026 16.21H11.5049C11.3863 16.21 11.2924 16.294 11.2726 16.4126L11.0947 17.6679C10.8031 17.7865 10.5362 17.9496 10.2941 18.1324L9.11293 17.658C9.00421 17.6184 8.88065 17.658 8.82135 17.7667L7.87742 19.4075C7.81811 19.5113 7.83788 19.6398 7.93672 19.7089L8.93996 20.4898C8.91525 20.638 8.89548 20.8011 8.89548 20.9543C8.89548 21.1075 8.90536 21.2706 8.93007 21.4189L7.92684 22.1997C7.83788 22.2689 7.81317 22.4024 7.86753 22.5012L8.81641 24.142C8.87571 24.2507 8.99926 24.2853 9.10799 24.2507L10.2891 23.7763C10.5362 23.9641 10.7982 24.1222 11.0898 24.2408L11.2677 25.4961C11.2924 25.6147 11.3863 25.6987 11.5049 25.6987H13.4026C13.5213 25.6987 13.6201 25.6147 13.6349 25.4961L13.8128 24.2408C14.1044 24.1222 14.3713 23.9641 14.6134 23.7763L15.7946 24.2507C15.9033 24.2902 16.0269 24.2507 16.0862 24.142L17.0351 22.5012C17.0944 22.3925 17.0697 22.2689 16.9758 22.1997L15.9824 21.4189ZM12.4538 22.7335C11.4752 22.7335 10.6746 21.9329 10.6746 20.9543C10.6746 19.9758 11.4752 19.1752 12.4538 19.1752C13.4323 19.1752 14.2329 19.9758 14.2329 20.9543C14.2329 21.9329 13.4323 22.7335 12.4538 22.7335Z" fill="white"/>
<path fill-rule="evenodd" clip-rule="evenodd" d="M19.9472 10.7408H21.4816C23.1694 10.7408 24.5504 12.1217 24.5504 13.8096V29.1535C24.5504 30.8414 23.1694 32.2223 21.4816 32.2223H3.06879C1.38096 32.2223 0 30.8414 0 29.1535V13.8096C0 12.1217 1.38096 10.7408 3.06879 10.7408H4.60319V7.67198C4.60319 3.43705 8.04024 0 12.2752 0C16.5101 0 19.9472 3.43705 19.9472 7.67198V10.7408ZM12.2752 3.06879C9.72808 3.06879 7.67198 5.12489 7.67198 7.67198V10.7408H16.8784V7.67198C16.8784 5.12489 14.8223 3.06879 12.2752 3.06879ZM3.06879 13.8096V29.1535H21.4816V13.8096H3.06879Z" fill="white"/>
</g>
</svg>
