<svg width="38" height="20" viewBox="0 0 38 20" fill="none" xmlns="http://www.w3.org/2000/svg">
<g opacity="0.7">
<path fill-rule="evenodd" clip-rule="evenodd" d="M12.647 5.90537L8.93653 2.19494C8.63126 1.88967 8.20729 1.70312 7.74092 1.70312H1.80527C0.872529 1.70312 0.109375 2.46628 0.109375 3.39902V9.33467C0.109375 9.80104 0.295924 10.225 0.609665 10.5388L8.24121 18.1703C8.54647 18.4756 8.97044 18.6621 9.43682 18.6621C9.90319 18.6621 10.3272 18.4756 10.6324 18.1618L14.6696 14.1247C13.9248 14.1188 13.2117 14.0221 12.5527 13.8499L9.43682 16.9747L1.80527 9.33467V3.39902H7.74092V3.39054L10.9185 6.56817C11.4341 6.28732 12.0166 6.062 12.647 5.90537Z" fill="white"/>
<path d="M3.93342 6.79873C4.63724 6.79873 5.20779 6.22818 5.20779 5.52437C5.20779 4.82055 4.63724 4.25 3.93342 4.25C3.22961 4.25 2.65906 4.82055 2.65906 5.52437C2.65906 6.22818 3.22961 6.79873 3.93342 6.79873Z" fill="white"/>
<path d="M20.107 10.0916C20.0716 10.2513 19.971 10.3631 19.8635 10.4749C19.0511 11.319 18.2401 12.1661 17.4291 13.0118C17.2606 13.1882 17.0566 13.2244 16.8651 13.1156C16.6244 12.9784 16.5606 12.6365 16.7347 12.4151C16.7569 12.3868 16.7812 12.3599 16.8062 12.3338C17.0941 12.0333 17.382 11.7328 17.6699 11.4323C17.6865 11.4149 17.7087 11.4032 17.7281 11.3887C17.724 11.3807 17.7191 11.3728 17.715 11.364C17.69 11.364 17.665 11.364 17.64 11.364C16.376 11.364 15.112 11.3633 13.848 11.3648C13.6836 11.3648 13.5449 11.3161 13.4443 11.176C13.3444 11.036 13.3242 10.8806 13.3881 10.7195C13.4512 10.5591 13.5684 10.4625 13.7342 10.4357C13.7814 10.4277 13.8307 10.4255 13.8785 10.4255C15.4374 10.4248 16.9955 10.4248 18.5544 10.4262C18.6064 10.4262 18.6446 10.4117 18.6827 10.374C18.8014 10.2542 18.9228 10.1381 19.0483 10.0154C19.0331 9.99869 19.0192 9.98199 19.0039 9.96748C18.8936 9.8586 18.7812 9.75189 18.673 9.64084C18.6383 9.60527 18.603 9.59438 18.5565 9.59438C16.9893 9.59656 15.4214 9.59656 13.8543 9.59946C13.6905 9.59946 13.5525 9.55373 13.4477 9.41582C13.2424 9.14434 13.3922 8.72842 13.7183 8.6689C13.7655 8.66019 13.8147 8.65801 13.8626 8.65801C15.1197 8.65728 16.3774 8.65728 17.6345 8.65728C17.6602 8.65728 17.6858 8.65728 17.7268 8.65728C17.7025 8.6297 17.6886 8.61155 17.6726 8.59486C17.3778 8.28564 17.0816 7.97715 16.7874 7.6672C16.6216 7.49226 16.589 7.27596 16.6965 7.07634C16.8256 6.83608 17.1461 6.76785 17.3528 6.93843C17.384 6.96383 17.4132 6.99214 17.4409 7.02118C18.2526 7.86972 19.0636 8.71898 19.8767 9.5668C19.9773 9.67205 20.0716 9.77802 20.1063 9.92755C20.107 9.98127 20.107 10.0364 20.107 10.0916Z" fill="white"/>
<g clip-path="url(#clip0_9480_486993)">
<path d="M32.7731 6.56325H31.9639V4.94473C31.9639 2.71118 30.1511 0.898438 27.9176 0.898438C25.684 0.898438 23.8713 2.71118 23.8713 4.94473V6.56325H23.062C22.1718 6.56325 21.4435 7.29159 21.4435 8.18177V16.2744C21.4435 17.1645 22.1718 17.8929 23.062 17.8929H32.7731C33.6633 17.8929 34.3916 17.1645 34.3916 16.2744V8.18177C34.3916 7.29159 33.6633 6.56325 32.7731 6.56325ZM25.4898 4.94473C25.4898 3.60136 26.5742 2.51696 27.9176 2.51696C29.2609 2.51696 30.3453 3.60136 30.3453 4.94473V6.56325H25.4898V4.94473ZM32.7731 16.2744H23.062V8.18177H32.7731V16.2744ZM27.9176 13.8466C28.8077 13.8466 29.5361 13.1183 29.5361 12.2281C29.5361 11.3379 28.8077 10.6095 27.9176 10.6095C27.0274 10.6095 26.299 11.3379 26.299 12.2281C26.299 13.1183 27.0274 13.8466 27.9176 13.8466Z" fill="white" stroke="#BE5E0E" stroke-width="0.3"/>
</g>
</g>
<defs>
<clipPath id="clip0_9480_486993">
<rect width="19.4222" height="19.4222" fill="white" transform="translate(18.2065 0.0859375)"/>
</clipPath>
</defs>
</svg>
