<svg width="40" height="40" viewBox="0 0 40 40" fill="none" xmlns="http://www.w3.org/2000/svg">
<g opacity="0.7">
<path d="M32.5561 29.6668H30.3339V26.3335H27.0005V29.6668H24.7783L28.6672 33.5557L32.5561 29.6668ZM24.7783 34.6668V35.7779H32.5561V34.6668H24.7783Z" fill="white"/>
<path fill-rule="evenodd" clip-rule="evenodd" d="M24.4755 13.3337H25.9994C27.6755 13.3337 29.047 14.7051 29.047 16.3813V22.6672H25.9994V16.3813H7.71363V31.6194H21.3317V34.667H7.71363C6.03744 34.667 4.66602 33.2956 4.66602 31.6194V16.3813C4.66602 14.7051 6.03744 13.3337 7.71363 13.3337H9.23744V10.286C9.23744 6.08033 12.6508 2.66699 16.8565 2.66699C21.0622 2.66699 24.4755 6.08033 24.4755 10.286V13.3337ZM16.8565 5.71461C14.327 5.71461 12.2851 7.75652 12.2851 10.286V13.3337H21.4279V10.286C21.4279 7.75652 19.386 5.71461 16.8565 5.71461ZM19.9041 24.0003C19.9041 25.6765 18.5327 27.0479 16.8565 27.0479C15.1803 27.0479 13.8089 25.6765 13.8089 24.0003C13.8089 22.3241 15.1803 20.9527 16.8565 20.9527C18.5327 20.9527 19.9041 22.3241 19.9041 24.0003Z" fill="white"/>
</g>
</svg>
