<svg width="26" height="26" viewBox="0 0 26 26" fill="none" xmlns="http://www.w3.org/2000/svg">
<g opacity="0.7">
<path d="M19.4386 19.4849H19.6886V19.2349V18.0738C19.6886 17.8941 19.5843 17.7368 19.4761 17.617C19.3606 17.4891 19.2008 17.3604 19.0122 17.2345C18.6335 16.9817 18.1047 16.718 17.4848 16.4789C16.2448 16.0006 14.6043 15.6071 12.9997 15.6071C11.3952 15.6071 9.75472 16.0006 8.51471 16.4789C7.89477 16.718 7.36593 16.9817 6.98726 17.2345C6.79866 17.3604 6.63892 17.4891 6.52342 17.617C6.41516 17.7368 6.31085 17.8941 6.31085 18.0738V19.2349V19.4849H6.56085H19.4386ZM15.4664 8.57378C15.4664 7.21127 14.3623 6.10712 12.9997 6.10712C11.6372 6.10712 10.5331 7.21127 10.5331 8.57378C10.5331 9.9363 11.6372 11.0405 12.9997 11.0405C14.3623 11.0405 15.4664 9.9363 15.4664 8.57378ZM9.02752 8.57378C9.02752 6.37908 10.805 4.60156 12.9997 4.60156C15.1944 4.60156 16.972 6.37908 16.972 8.57378C16.972 10.7685 15.1944 12.546 12.9997 12.546C10.805 12.546 9.02752 10.7685 9.02752 8.57378ZM4.8053 18.0738C4.8053 17.4637 5.10895 16.9107 5.64797 16.4132C6.18869 15.9142 6.94946 15.488 7.81361 15.1418C9.54232 14.4493 11.6218 14.1016 12.9997 14.1016C14.3777 14.1016 16.4572 14.4493 18.1859 15.1418C19.05 15.488 19.8108 15.9142 20.3515 16.4132C20.8905 16.9107 21.1942 17.4637 21.1942 18.0738V20.9904H4.8053V18.0738Z" fill="white" stroke="#477DC0" stroke-width="0.5"/>
</g>
</svg>
