<svg width="84" height="84" viewBox="0 0 84 84" fill="none" xmlns="http://www.w3.org/2000/svg">
<path d="M84 42C84 65.196 65.196 84 42 84C18.804 84 0 65.196 0 42C0 18.804 18.804 0 42 0C65.196 0 84 18.804 84 42Z" fill="#FD6D16"/>
<path d="M45.3059 68H38.5479V29.1477H45.3059V68ZM38 18.8421C38 17.7649 38.3288 16.8552 38.9863 16.1131C39.6682 15.371 40.6667 15 41.9817 15C43.2968 15 44.2953 15.371 44.9772 16.1131C45.6591 16.8552 46 17.7649 46 18.8421C46 19.9194 45.6591 20.8171 44.9772 21.5352C44.2953 22.2534 43.2968 22.6125 41.9817 22.6125C40.6667 22.6125 39.6682 22.2534 38.9863 21.5352C38.3288 20.8171 38 19.9194 38 18.8421Z" fill="white"/>
</svg>
