<svg width="100" height="100" viewBox="0 0 100 100" fill="none" xmlns="http://www.w3.org/2000/svg">
<path fill-rule="evenodd" clip-rule="evenodd" d="M32.7676 4C30.0187 4 27.783 6.23447 27.7571 9.00784L27.0002 89.8967C26.9739 92.7074 29.2249 95 32.0107 95H66.9892C69.7757 95 72.027 92.7063 71.9998 89.8951L71.2168 9.00619C71.19 6.23347 68.9546 4 66.2063 4H32.7676ZM49.5483 87.4167C57.8504 87.4167 64.5806 80.6263 64.5806 72.25C64.5806 63.8737 57.8504 57.0833 49.5483 57.0833C41.2463 57.0833 34.5161 63.8737 34.5161 72.25C34.5161 80.6263 41.2463 87.4167 49.5483 87.4167Z" fill="#FD6D16"/>
<path d="M37 70H62V75H37V70Z" fill="#FD6D16"/>
</svg>
