<svg width="100" height="100" viewBox="0 0 100 100" fill="none" xmlns="http://www.w3.org/2000/svg">
<path fill-rule="evenodd" clip-rule="evenodd" d="M32.7676 4C30.0187 4 27.783 6.23447 27.7571 9.00784L27.0002 89.8967C26.9739 92.7074 29.2249 95 32.0107 95H66.9893C69.7757 95 72.027 92.7063 71.9998 89.8951L71.2168 9.00619C71.19 6.23347 68.9546 4 66.2063 4H32.7676ZM49.5483 87.4167C57.8504 87.4167 64.5806 80.6263 64.5806 72.25C64.5806 63.8737 57.8504 57.0833 49.5483 57.0833C41.2463 57.0833 34.5161 63.8737 34.5161 72.25C34.5161 80.6263 41.2463 87.4167 49.5483 87.4167Z" fill="#7F7F7F"/>
<path d="M37 70H62V75H37V70Z" fill="#7F7F7F"/>
<path d="M71.4996 56.8961C72.4586 55.2612 74.856 55.2612 75.815 56.8961L93.0767 86.3252C94.0357 87.9601 92.837 90.0038 90.919 90.0038H56.3956C54.4777 90.0038 53.2789 87.9601 54.2379 86.3252L71.4996 56.8961Z" fill="#FFC200"/>
<path fill-rule="evenodd" clip-rule="evenodd" d="M90.919 87.5514L73.6573 58.1223L56.3956 87.5514H90.919ZM75.815 56.8961C74.856 55.2612 72.4586 55.2612 71.4996 56.8961L54.2379 86.3252C53.2789 87.9601 54.4777 90.0038 56.3956 90.0038H90.919C92.837 90.0038 94.0357 87.9601 93.0767 86.3252L75.815 56.8961Z" fill="black"/>
<path d="M74.8622 78.587C74.8223 78.1946 74.8223 77.9984 74.8223 77.763C74.8223 77.4883 74.8223 77.4883 74.8622 76.3308L75.1412 69.6602C75.1811 68.8165 75.2608 67.7963 75.3206 67.2666H72.0517C72.1315 67.8159 72.1913 68.7969 72.2311 69.6602L72.5102 76.3308C72.57 77.5275 72.57 77.5275 72.57 77.7433C72.57 77.9788 72.55 78.175 72.5301 78.587H74.8622ZM75.1412 82.8836V80.1958H72.251V82.8836H75.1412Z" fill="black"/>
</svg>
