<svg width="100" height="100" viewBox="0 0 100 100" fill="none" xmlns="http://www.w3.org/2000/svg">
<path fill-rule="evenodd" clip-rule="evenodd" d="M7 38V66.75H92.25V27C92.25 24.7909 90.4591 23 88.25 23H62V34C62 36.2091 60.2091 38 58 38H7ZM7 74V69.75H92.25V74C92.25 76.2091 90.4591 78 88.25 78H11C8.79086 78 7 76.2091 7 74ZM70.8971 56.4971C71.2934 55.8879 71.4799 55.3762 71.6664 54.2554L75 54.8645C74.5571 56.6189 74.1375 57.5692 73.4381 58.5195C72.1094 60.2251 69.8714 61.1754 67.074 61.1754C64.533 61.1754 62.5049 60.3713 61.0829 58.8363C59.4511 57.0575 58.5419 54.3041 58.5419 51.1852C58.5419 47.9688 59.521 45.1423 61.2694 43.3148C62.6681 41.8285 64.7662 41 67.0973 41C68.9156 41 70.291 41.3655 71.5732 42.1696C72.6222 42.8519 73.4614 43.7534 74.0442 44.8255C74.324 45.3372 74.4871 45.7758 74.7669 46.7018L71.5266 47.4815C71.2002 46.4094 70.9904 45.9464 70.5242 45.386C69.7316 44.3869 68.566 43.8752 67.1206 43.8752C63.8104 43.8752 61.8056 46.5799 61.8056 51.0634C61.8056 55.5224 63.857 58.3002 67.1206 58.3002C68.7525 58.3002 70.1512 57.6423 70.8971 56.4971ZM47.4326 52.4035H52.4213C53.8433 52.4035 54.7292 52.4522 55.5917 52.5741V49.3333C54.6826 49.4552 53.8667 49.5039 52.4213 49.5039H47.4326V44.3382H53.6335C55.1255 44.3382 55.988 44.3869 56.8272 44.5088V41.2193C55.8481 41.3411 55.1022 41.3899 53.6335 41.3899H47.1063C45.6842 41.3899 45.1014 41.3655 44.1457 41.3168C44.2855 42.4376 44.3322 43.1442 44.3322 44.4844V57.3255C44.3322 58.9337 44.2855 59.9571 44.1457 60.7856H47.6191C47.4792 59.8596 47.4326 59.0068 47.4326 57.2768V52.4035ZM40.8287 60.7856C40.6888 59.9327 40.6422 59.0068 40.6422 57.6423V44.7524C40.6422 43.2661 40.6888 42.3645 40.8287 41.3899H37.4251C37.565 42.3158 37.6116 43.3148 37.6116 44.7524V52.9396C37.6116 53.963 37.6816 55.4249 37.7748 56.3752C37.262 55.4006 36.516 54.1335 35.9565 53.2563L30.0586 43.9727C29.266 42.73 28.8464 41.999 28.6366 41.3899H25C25.1399 42.3889 25.1865 43.2661 25.1865 44.5331V57.1062C25.1865 58.7632 25.1166 59.9815 25 60.7856H28.4035C28.287 59.9084 28.217 58.7632 28.217 57.1306V49.1384C28.217 48.578 28.1704 47.4815 28.1471 47.0185C28.0963 46.3643 28.0824 46.1848 28.0697 46.0053C28.0649 45.9373 28.0602 45.8694 28.0538 45.7758C28.6133 46.9211 29.1961 47.9688 29.639 48.6998L35.6535 58.1784C36.3295 59.2505 36.7491 59.9571 37.1454 60.7856H40.8287Z" fill="#FD6306"/>
<rect x="0.5" y="6.5" width="58" height="28" rx="2.5" stroke="#FD6D16"/>
<path d="M20.9141 20.0703V20.8789C20.9141 22.1758 20.7383 23.3398 20.3867 24.3711C20.0352 25.4023 19.5391 26.2812 18.8984 27.0078C18.2578 27.7266 17.4922 28.2773 16.6016 28.6602C15.7188 29.043 14.7383 29.2344 13.6602 29.2344C12.5898 29.2344 11.6094 29.043 10.7188 28.6602C9.83594 28.2773 9.07031 27.7266 8.42188 27.0078C7.77344 26.2812 7.26953 25.4023 6.91016 24.3711C6.55859 23.3398 6.38281 22.1758 6.38281 20.8789V20.0703C6.38281 18.7656 6.55859 17.6016 6.91016 16.5781C7.26172 15.5469 7.75781 14.668 8.39844 13.9414C9.04688 13.2148 9.8125 12.6602 10.6953 12.2773C11.5859 11.8945 12.5664 11.7031 13.6367 11.7031C14.7148 11.7031 15.6953 11.8945 16.5781 12.2773C17.4688 12.6602 18.2344 13.2148 18.875 13.9414C19.5234 14.668 20.0234 15.5469 20.375 16.5781C20.7344 17.6016 20.9141 18.7656 20.9141 20.0703ZM17.3633 20.8789V20.0469C17.3633 19.1406 17.2812 18.3438 17.1172 17.6562C16.9531 16.9688 16.7109 16.3906 16.3906 15.9219C16.0703 15.4531 15.6797 15.1016 15.2188 14.8672C14.7578 14.625 14.2305 14.5039 13.6367 14.5039C13.043 14.5039 12.5156 14.625 12.0547 14.8672C11.6016 15.1016 11.2148 15.4531 10.8945 15.9219C10.582 16.3906 10.3438 16.9688 10.1797 17.6562C10.0156 18.3438 9.93359 19.1406 9.93359 20.0469V20.8789C9.93359 21.7773 10.0156 22.5742 10.1797 23.2695C10.3438 23.957 10.5859 24.5391 10.9062 25.0156C11.2266 25.4844 11.6172 25.8398 12.0781 26.082C12.5391 26.3242 13.0664 26.4453 13.6602 26.4453C14.2539 26.4453 14.7812 26.3242 15.2422 26.082C15.7031 25.8398 16.0898 25.4844 16.4023 25.0156C16.7148 24.5391 16.9531 23.957 17.1172 23.2695C17.2812 22.5742 17.3633 21.7773 17.3633 20.8789ZM32.8672 11.9375H36.3711V23.2109C36.3711 24.5234 36.0898 25.6289 35.5273 26.5273C34.9727 27.4258 34.2031 28.1016 33.2188 28.5547C32.2422 29.0078 31.1172 29.2344 29.8438 29.2344C28.5703 29.2344 27.4375 29.0078 26.4453 28.5547C25.4609 28.1016 24.6875 27.4258 24.125 26.5273C23.5703 25.6289 23.293 24.5234 23.293 23.2109V11.9375H26.8086V23.2109C26.8086 23.9766 26.9297 24.6016 27.1719 25.0859C27.4141 25.5703 27.7617 25.9258 28.2148 26.1523C28.6758 26.3789 29.2188 26.4922 29.8438 26.4922C30.4844 26.4922 31.0273 26.3789 31.4727 26.1523C31.9258 25.9258 32.2695 25.5703 32.5039 25.0859C32.7461 24.6016 32.8672 23.9766 32.8672 23.2109V11.9375ZM46.8945 11.9375V29H43.3906V11.9375H46.8945ZM52.1445 11.9375V14.6914H38.2227V11.9375H52.1445Z" fill="#FD6D16"/>
</svg>
