<svg width="13" height="18" viewBox="0 0 13 18" fill="none" xmlns="http://www.w3.org/2000/svg">
<path fill-rule="evenodd" clip-rule="evenodd" d="M2.21672 3.33333C2.99912 3.33333 3.63338 2.69907 3.63338 1.91667C3.63338 1.13426 2.99912 0.5 2.21672 0.5C1.43431 0.5 0.800049 1.13426 0.800049 1.91667C0.800049 2.69907 1.43431 3.33333 2.21672 3.33333ZM6.46672 3.33333C7.24912 3.33333 7.88338 2.69907 7.88338 1.91667C7.88338 1.13426 7.24912 0.5 6.46672 0.5C5.68431 0.5 5.05005 1.13426 5.05005 1.91667C5.05005 2.69907 5.68431 3.33333 6.46672 3.33333ZM12.1334 1.91667C12.1334 2.69907 11.4991 3.33333 10.7167 3.33333C9.93431 3.33333 9.30005 2.69907 9.30005 1.91667C9.30005 1.13426 9.93431 0.5 10.7167 0.5C11.4991 0.5 12.1334 1.13426 12.1334 1.91667ZM10.7167 7.58333C11.4991 7.58333 12.1334 6.94907 12.1334 6.16667C12.1334 5.38426 11.4991 4.75 10.7167 4.75C9.93431 4.75 9.30005 5.38426 9.30005 6.16667C9.30005 6.94907 9.93431 7.58333 10.7167 7.58333ZM7.88338 6.16667C7.88338 6.94907 7.24912 7.58333 6.46672 7.58333C5.68431 7.58333 5.05005 6.94907 5.05005 6.16667C5.05005 5.38426 5.68431 4.75 6.46672 4.75C7.24912 4.75 7.88338 5.38426 7.88338 6.16667ZM2.21672 7.58333C2.99912 7.58333 3.63338 6.94907 3.63338 6.16667C3.63338 5.38426 2.99912 4.75 2.21672 4.75C1.43431 4.75 0.800049 5.38426 0.800049 6.16667C0.800049 6.94907 1.43431 7.58333 2.21672 7.58333ZM3.63338 10.4167C3.63338 11.1991 2.99912 11.8333 2.21672 11.8333C1.43431 11.8333 0.800049 11.1991 0.800049 10.4167C0.800049 9.63426 1.43431 9 2.21672 9C2.99912 9 3.63338 9.63426 3.63338 10.4167ZM10.7167 11.8333C11.4991 11.8333 12.1334 11.1991 12.1334 10.4167C12.1334 9.63426 11.4991 9 10.7167 9C9.93431 9 9.30005 9.63426 9.30005 10.4167C9.30005 11.1991 9.93431 11.8333 10.7167 11.8333ZM5.05005 10.4167C5.05005 9.63426 5.68431 9 6.46672 9C7.24912 9 7.88338 9.63426 7.88338 10.4167V11.8333C9.44819 11.8333 10.7167 13.1019 10.7167 14.6667C10.7167 16.2315 9.44819 17.5 7.88338 17.5C6.31858 17.5 5.05005 16.2315 5.05005 14.6667V10.4167Z" fill="#FD6D16"/>
</svg>
