<svg width="18" height="18" viewBox="0 0 18 18" fill="none" xmlns="http://www.w3.org/2000/svg">
<circle cx="9" cy="9" r="8" fill="#FD6D16"/>
<path d="M9.62891 14H8.36426V6.60352H9.62891V14ZM8.26172 4.6416C8.26172 4.43652 8.32324 4.26335 8.44629 4.12207C8.57389 3.98079 8.76074 3.91016 9.00684 3.91016C9.25293 3.91016 9.43978 3.98079 9.56738 4.12207C9.69499 4.26335 9.75879 4.43652 9.75879 4.6416C9.75879 4.84668 9.69499 5.01758 9.56738 5.1543C9.43978 5.29102 9.25293 5.35938 9.00684 5.35938C8.76074 5.35938 8.57389 5.29102 8.44629 5.1543C8.32324 5.01758 8.26172 4.84668 8.26172 4.6416Z" fill="white"/>
</svg>
