<svg width="71" height="92" viewBox="0 0 71 92" fill="none" xmlns="http://www.w3.org/2000/svg">
<path fill-rule="evenodd" clip-rule="evenodd" d="M11.0286 32C11.3625 35.8759 14.58 38.9167 18.5 38.9167C22.42 38.9167 25.6375 35.8759 25.9714 32H11.0286ZM33.5286 32C33.8625 35.8759 37.08 38.9167 41 38.9167C44.92 38.9167 48.1375 35.8759 48.4714 32H33.5286ZM56.0286 32C56.3625 35.8759 59.58 38.9167 63.5 38.9167C67.6421 38.9167 71 35.5215 71 31.3333C71 27.1452 67.6421 23.75 63.5 23.75C62.9863 23.75 62.4847 23.8022 62 23.9017V28C62 30.2091 60.2091 32 58 32H56.0286ZM62 16.015C62.4847 16.1144 62.9863 16.1667 63.5 16.1667C67.6421 16.1667 71 12.7715 71 8.58333C71 4.39517 67.6421 1 63.5 1C62.9863 1 62.4847 1.05222 62 1.15169V16.015ZM18.5 61.6667C22.6421 61.6667 26 58.2715 26 54.0833C26 49.8952 22.6421 46.5 18.5 46.5C14.3579 46.5 11 49.8952 11 54.0833C11 58.2715 14.3579 61.6667 18.5 61.6667ZM71 54.0833C71 58.2715 67.6421 61.6667 63.5 61.6667C59.3579 61.6667 56 58.2715 56 54.0833C56 49.8952 59.3579 46.5 63.5 46.5C67.6421 46.5 71 49.8952 71 54.0833ZM41 46.5C36.8579 46.5 33.5 49.8952 33.5 54.0833V76.8333C33.5 85.2096 40.2157 92 48.5 92C56.7843 92 63.5 85.2096 63.5 76.8333C63.5 68.457 56.7843 61.6667 48.5 61.6667V54.0833C48.5 49.8952 45.1421 46.5 41 46.5Z" fill="#FD6D16"/>
<rect x="0.5" y="0.5" width="58" height="28" rx="2.5" stroke="#FD6D16"/>
<path d="M22.2734 5.9375V23H18.7695V5.9375H22.2734ZM39.4531 5.9375V23H35.9375L29.082 11.5625V23H25.5664V5.9375H29.082L35.9492 17.3867V5.9375H39.4531Z" fill="#FD6D16"/>
</svg>
