<svg width="71" height="92" viewBox="0 0 71 92" fill="none" xmlns="http://www.w3.org/2000/svg">
<rect x="0.5" y="0.5" width="58" height="28" rx="2.5" stroke="#FD6D16"/>
<path fill-rule="evenodd" clip-rule="evenodd" d="M11.0286 32C11.3625 35.8759 14.58 38.9167 18.5 38.9167C22.42 38.9167 25.6375 35.8759 25.9714 32H11.0286ZM33.5286 32C33.8625 35.8759 37.08 38.9167 41 38.9167C44.92 38.9167 48.1375 35.8759 48.4714 32H33.5286ZM56.0286 32C56.3625 35.8759 59.58 38.9167 63.5 38.9167C67.6421 38.9167 71 35.5215 71 31.3333C71 27.1452 67.6421 23.75 63.5 23.75C62.9863 23.75 62.4847 23.8022 62 23.9017V28C62 30.2091 60.2091 32 58 32H56.0286ZM62 16.015C62.4847 16.1144 62.9863 16.1667 63.5 16.1667C67.6421 16.1667 71 12.7715 71 8.58333C71 4.39517 67.6421 1 63.5 1C62.9863 1 62.4847 1.05222 62 1.15169V16.015ZM18.5 61.6667C22.6421 61.6667 26 58.2715 26 54.0833C26 49.8952 22.6421 46.5 18.5 46.5C14.3579 46.5 11 49.8952 11 54.0833C11 58.2715 14.3579 61.6667 18.5 61.6667ZM71 54.0833C71 58.2715 67.6421 61.6667 63.5 61.6667C59.3579 61.6667 56 58.2715 56 54.0833C56 49.8952 59.3579 46.5 63.5 46.5C67.6421 46.5 71 49.8952 71 54.0833ZM41 46.5C36.8579 46.5 33.5 49.8952 33.5 54.0833V76.8333C33.5 85.2096 40.2157 92 48.5 92C56.7843 92 63.5 85.2096 63.5 76.8333C63.5 68.457 56.7843 61.6667 48.5 61.6667V54.0833C48.5 49.8952 45.1421 46.5 41 46.5Z" fill="#FD6D16"/>
<path d="M20.9141 14.0703V14.8789C20.9141 16.1758 20.7383 17.3398 20.3867 18.3711C20.0352 19.4023 19.5391 20.2812 18.8984 21.0078C18.2578 21.7266 17.4922 22.2773 16.6016 22.6602C15.7188 23.043 14.7383 23.2344 13.6602 23.2344C12.5898 23.2344 11.6094 23.043 10.7188 22.6602C9.83594 22.2773 9.07031 21.7266 8.42188 21.0078C7.77344 20.2812 7.26953 19.4023 6.91016 18.3711C6.55859 17.3398 6.38281 16.1758 6.38281 14.8789V14.0703C6.38281 12.7656 6.55859 11.6016 6.91016 10.5781C7.26172 9.54688 7.75781 8.66797 8.39844 7.94141C9.04688 7.21484 9.8125 6.66016 10.6953 6.27734C11.5859 5.89453 12.5664 5.70312 13.6367 5.70312C14.7148 5.70312 15.6953 5.89453 16.5781 6.27734C17.4688 6.66016 18.2344 7.21484 18.875 7.94141C19.5234 8.66797 20.0234 9.54688 20.375 10.5781C20.7344 11.6016 20.9141 12.7656 20.9141 14.0703ZM17.3633 14.8789V14.0469C17.3633 13.1406 17.2812 12.3438 17.1172 11.6562C16.9531 10.9688 16.7109 10.3906 16.3906 9.92188C16.0703 9.45312 15.6797 9.10156 15.2188 8.86719C14.7578 8.625 14.2305 8.50391 13.6367 8.50391C13.043 8.50391 12.5156 8.625 12.0547 8.86719C11.6016 9.10156 11.2148 9.45312 10.8945 9.92188C10.582 10.3906 10.3438 10.9688 10.1797 11.6562C10.0156 12.3438 9.93359 13.1406 9.93359 14.0469V14.8789C9.93359 15.7773 10.0156 16.5742 10.1797 17.2695C10.3438 17.957 10.5859 18.5391 10.9062 19.0156C11.2266 19.4844 11.6172 19.8398 12.0781 20.082C12.5391 20.3242 13.0664 20.4453 13.6602 20.4453C14.2539 20.4453 14.7812 20.3242 15.2422 20.082C15.7031 19.8398 16.0898 19.4844 16.4023 19.0156C16.7148 18.5391 16.9531 17.957 17.1172 17.2695C17.2812 16.5742 17.3633 15.7773 17.3633 14.8789ZM32.8672 5.9375H36.3711V17.2109C36.3711 18.5234 36.0898 19.6289 35.5273 20.5273C34.9727 21.4258 34.2031 22.1016 33.2188 22.5547C32.2422 23.0078 31.1172 23.2344 29.8438 23.2344C28.5703 23.2344 27.4375 23.0078 26.4453 22.5547C25.4609 22.1016 24.6875 21.4258 24.125 20.5273C23.5703 19.6289 23.293 18.5234 23.293 17.2109V5.9375H26.8086V17.2109C26.8086 17.9766 26.9297 18.6016 27.1719 19.0859C27.4141 19.5703 27.7617 19.9258 28.2148 20.1523C28.6758 20.3789 29.2188 20.4922 29.8438 20.4922C30.4844 20.4922 31.0273 20.3789 31.4727 20.1523C31.9258 19.9258 32.2695 19.5703 32.5039 19.0859C32.7461 18.6016 32.8672 17.9766 32.8672 17.2109V5.9375ZM46.8945 5.9375V23H43.3906V5.9375H46.8945ZM52.1445 5.9375V8.69141H38.2227V5.9375H52.1445Z" fill="#FD6D16"/>
</svg>
