<svg width="42" height="42" viewBox="0 0 42 42" fill="none" xmlns="http://www.w3.org/2000/svg">
<path fill-rule="evenodd" clip-rule="evenodd" d="M21 11.3898C24.1233 11.3898 26.6552 8.84013 26.6552 5.69492C26.6552 2.5497 24.1233 0 21 0C17.8767 0 15.3448 2.5497 15.3448 5.69492C15.3448 8.84013 17.8767 11.3898 21 11.3898ZM16.1968 13.344C16.2088 13.5107 16.2149 13.6791 16.2149 13.849C16.2149 16.8004 14.3731 19.308 11.8103 20.2159V20.6441H12.5172C13.4955 20.6441 14.4274 20.8442 15.2746 21.206C16.3832 19.1741 18.5315 17.7966 21 17.7966C23.4685 17.7966 25.6168 19.1741 26.7254 21.206C27.5726 20.8442 28.5045 20.6441 29.4828 20.6441H30.1897V20.2159C27.6269 19.308 25.7851 16.8004 25.7851 13.849C25.7851 13.6791 25.7912 13.5107 25.8032 13.344C24.976 13.0021 24.0702 12.8136 23.1207 12.8136H18.8793C17.9298 12.8136 17.024 13.0021 16.1968 13.344ZM11.8103 21.3559C12.9121 21.3559 13.9549 21.6097 14.8844 22.0625C14.6196 22.7759 14.4748 23.5482 14.4748 24.3544C14.4748 27.2301 16.3166 29.6734 18.8793 30.5581V30.6102H18.1724C16.5807 30.6102 15.1119 31.1399 13.9303 32.0339H0.5V28.4746C0.5 24.5431 3.66489 21.3559 7.56897 21.3559H11.8103ZM28.0697 32.0339H41.5V28.4746C41.5 24.5431 38.3351 21.3559 34.431 21.3559H30.1897C29.0879 21.3559 28.0451 21.6097 27.1156 22.0625C27.3804 22.7759 27.5252 23.5482 27.5252 24.3544C27.5252 27.2301 25.6834 29.6734 23.1207 30.5581V30.6102H23.8276C25.4193 30.6102 26.8881 31.1399 28.0697 32.0339ZM32.3103 19.9322C35.4336 19.9322 37.9655 17.3825 37.9655 14.2373C37.9655 11.0921 35.4336 8.54237 32.3103 8.54237C29.1871 8.54237 26.6552 11.0921 26.6552 14.2373C26.6552 17.3825 29.1871 19.9322 32.3103 19.9322ZM15.3448 14.2373C15.3448 17.3825 12.8129 19.9322 9.68966 19.9322C6.56639 19.9322 4.03448 17.3825 4.03448 14.2373C4.03448 11.0921 6.56639 8.54237 9.68966 8.54237C12.8129 8.54237 15.3448 11.0921 15.3448 14.2373ZM11.8103 38.4407C11.8103 34.5092 14.9752 31.322 18.8793 31.322H23.1207C27.0248 31.322 30.1897 34.5092 30.1897 38.4407V42H11.8103V38.4407ZM21 29.8983C24.1233 29.8983 26.6552 27.3486 26.6552 24.2034C26.6552 21.0582 24.1233 18.5085 21 18.5085C17.8767 18.5085 15.3448 21.0582 15.3448 24.2034C15.3448 27.3486 17.8767 29.8983 21 29.8983Z" fill="white"/>
</svg>
