<svg width="72" height="72" viewBox="0 0 72 72" fill="none" xmlns="http://www.w3.org/2000/svg">
<path d="M72 36C72 55.8822 55.8822 72 36 72C16.1177 72 0 55.8822 0 36C0 16.1177 16.1177 0 36 0C55.8822 0 72 16.1177 72 36Z" fill="#E70055"/>
<path fill-rule="evenodd" clip-rule="evenodd" d="M36.0009 39.4842C43.6972 39.4842 49.9364 33.2451 49.9364 25.5488C49.9364 17.8524 43.6972 11.6133 36.0009 11.6133C28.3045 11.6133 22.0654 17.8524 22.0654 25.5488C22.0654 33.2451 28.3045 39.4842 36.0009 39.4842ZM15.0977 49.9359C15.0977 45.4952 18.8054 41.5838 24.4323 39.2947C27.38 42.2796 31.4744 44.1294 36.0009 44.1294C40.5274 44.1294 44.6218 42.2796 47.5695 39.2947C53.1963 41.5838 56.9041 45.4952 56.9041 49.9359C56.9041 56.9909 47.5454 62.7101 36.0009 62.7101C24.4563 62.7101 15.0977 56.9909 15.0977 49.9359Z" fill="white"/>
<path d="M60.3853 53.4192C60.3853 58.5501 56.2259 62.7096 51.095 62.7096C45.9641 62.7096 41.8047 58.5501 41.8047 53.4192C41.8047 48.2883 45.9641 44.1289 51.095 44.1289C56.2259 44.1289 60.3853 48.2883 60.3853 53.4192Z" fill="#E70055"/>
<path d="M51.0955 46.4512L52.6598 51.2658H57.7222L53.6266 54.2413L55.191 59.0559L51.0955 56.0804L46.9999 59.0559L48.5643 54.2413L44.4688 51.2658H49.5311L51.0955 46.4512Z" fill="white"/>
</svg>
