<svg width="18" height="18" viewBox="0 0 18 18" fill="none" xmlns="http://www.w3.org/2000/svg">
<path fill-rule="evenodd" clip-rule="evenodd" d="M5.65104 0C5.10244 0 4.65627 0.441984 4.65109 0.990561L4.50005 16.9906C4.4948 17.5465 4.94403 18 5.5 18H12.4807C13.0368 18 13.4861 17.5463 13.4807 16.9902L13.3244 0.990235C13.319 0.441786 12.8729 0 12.3245 0H5.65104ZM9 16.5C10.6569 16.5 12 15.1569 12 13.5C12 11.8431 10.6569 10.5 9 10.5C7.34315 10.5 6 11.8431 6 13.5C6 15.1569 7.34315 16.5 9 16.5Z" fill="#FD6D16"/>
<rect x="6.5" y="13" width="5" height="1" fill="#FD6D16"/>
</svg>
