<svg width="21" height="21" viewBox="0 0 21 21" fill="none" xmlns="http://www.w3.org/2000/svg">
<path fill-rule="evenodd" clip-rule="evenodd" d="M9.76047 17.5815C13.8188 17.6316 16.6203 14.7233 17.233 11.4253C17.2497 11.3356 17.2839 11.25 17.3336 11.1735C17.3834 11.097 17.4477 11.0311 17.523 10.9794C17.5982 10.9278 17.6829 10.8915 17.7722 10.8726C17.8614 10.8537 17.9535 10.8525 18.0433 10.8692C18.133 10.8859 18.2185 10.9201 18.295 10.9699C18.3715 11.0196 18.4375 11.084 18.4891 11.1592C18.5407 11.2344 18.577 11.3191 18.5959 11.4084C18.6149 11.4976 18.616 11.5898 18.5993 11.6795C17.8795 15.5522 14.5643 19.0302 9.74332 18.9708C7.69415 18.9455 6.0951 17.9937 4.88462 16.8906C4.01698 16.0999 3.31471 15.1991 2.77827 14.4751L2.75135 16.6563C2.74917 16.8331 2.67684 17.0018 2.55029 17.1253C2.42373 17.2487 2.2533 17.3169 2.07651 17.3147C1.89971 17.3125 1.73102 17.2402 1.60755 17.1136C1.48408 16.9871 1.41594 16.8166 1.41812 16.6398L1.46748 12.6401C1.46966 12.4634 1.54198 12.2947 1.66854 12.1712C1.7951 12.0477 1.96552 11.9796 2.14232 11.9818L6.14201 12.0311C6.31881 12.0333 6.4875 12.1056 6.61097 12.2322C6.73445 12.3587 6.80259 12.5292 6.8004 12.706C6.79822 12.8828 6.7259 13.0514 6.59934 13.1749C6.47278 13.2984 6.30236 13.3665 6.12556 13.3644L3.66442 13.334L3.66707 13.3353C4.23094 14.105 4.92207 15.0443 5.82005 15.8621C6.8802 16.8286 8.16725 17.5619 9.75913 17.5815L9.76047 17.5815ZM10.4845 2.77867C6.46882 2.72911 3.68549 5.57498 3.03195 8.82983C3.0154 8.92057 2.98094 9.0071 2.93059 9.08438C2.88025 9.16166 2.81501 9.22814 2.7387 9.27994C2.66238 9.33175 2.57652 9.36783 2.48611 9.3861C2.3957 9.40436 2.30256 9.40444 2.21212 9.38632C2.12168 9.3682 2.03576 9.33226 1.95936 9.28058C1.88296 9.22891 1.81761 9.16254 1.76714 9.08534C1.71666 9.00814 1.68207 8.92166 1.66537 8.83095C1.64867 8.74024 1.6502 8.64712 1.66988 8.557C2.43711 4.73418 5.73269 1.33059 10.5017 1.38944C12.5508 1.41473 14.1485 2.36651 15.3604 3.46955C16.228 4.26032 16.9303 5.16105 17.4667 5.88506L17.4936 3.70389C17.4958 3.5271 17.5681 3.35841 17.6947 3.23493C17.8213 3.11146 17.9917 3.04332 18.1685 3.0455C18.3453 3.04769 18.514 3.12001 18.6374 3.24657C18.7609 3.37313 18.829 3.54355 18.8269 3.72035L18.7775 7.72004C18.7753 7.89684 18.703 8.06553 18.5764 8.189C18.4499 8.31247 18.2795 8.38061 18.1027 8.37843L14.103 8.32907C13.9262 8.32689 13.7575 8.25457 13.634 8.12801C13.5105 8.00145 13.4424 7.83103 13.4446 7.65423C13.4468 7.47743 13.5191 7.30874 13.6456 7.18527C13.7722 7.0618 13.9426 6.99366 14.1194 6.99584L16.5792 7.0262L16.5793 7.02353C16.0127 6.25515 15.3229 5.31456 14.4236 4.49807C13.3648 3.5316 12.0777 2.79833 10.4845 2.77867Z" fill="white"/>
</svg>
