<svg width="50" height="50" viewBox="0 0 50 50" fill="none" xmlns="http://www.w3.org/2000/svg">
<path d="M50 25C50 38.8071 38.8071 50 25 50C11.1929 50 0 38.8071 0 25C0 11.1929 11.1929 0 25 0C38.8071 0 50 11.1929 50 25Z" fill="#FF001C"/>
<path d="M27.4456 32.1898H23.5949L23.2952 8.09448H27.7684L27.4456 32.1898ZM23.1338 39.5222C23.1338 38.8304 23.3413 38.254 23.7563 37.7928C24.1868 37.3163 24.817 37.078 25.6471 37.078C26.4772 37.078 27.1074 37.3163 27.5378 37.7928C27.9682 38.254 28.1834 38.8304 28.1834 39.5222C28.1834 40.2139 27.9682 40.7903 27.5378 41.2515C27.1074 41.6973 26.4772 41.9202 25.6471 41.9202C24.817 41.9202 24.1868 41.6973 23.7563 41.2515C23.3413 40.7903 23.1338 40.2139 23.1338 39.5222Z" fill="white"/>
</svg>
