<svg width="13" height="16" viewBox="0 0 13 16" fill="none" xmlns="http://www.w3.org/2000/svg">
<path fill-rule="evenodd" clip-rule="evenodd" d="M13 2C13 3.10457 12.1046 4 11 4C10.5993 4 10.2261 3.88216 9.91322 3.67924L3.91672 7.42705C3.9709 7.60855 4 7.80088 4 8C4 8.33504 3.91762 8.65084 3.772 8.92825L9.6006 12.5711C9.9613 12.2178 10.4552 12 11 12C12.1046 12 13 12.8954 13 14C13 15.1046 12.1046 16 11 16C9.89543 16 9 15.1046 9 14C9 13.8009 9.0291 13.6086 9.08328 13.427L3.08678 9.67924C2.77389 9.88216 2.40071 10 2 10C0.895431 10 0 9.10457 0 8C0 6.89543 0.895431 6 2 6C2.54479 6 3.0387 6.21782 3.3994 6.57113L9.228 2.92825C9.08238 2.65084 9 2.33504 9 2C9 0.895431 9.89543 0 11 0C12.1046 0 13 0.895431 13 2Z" fill="#E6E7E6"/>
</svg>
