<svg width="20" height="20" viewBox="0 0 20 20" fill="none" xmlns="http://www.w3.org/2000/svg">
<path fill-rule="evenodd" clip-rule="evenodd" d="M7.26176 13.0191L7.44694 11.5636L16.6562 2.30867L17.7198 3.36702L8.62441 12.7905L7.26176 13.0191ZM9.26272 14.2044L7.06403 14.5732L7.06307 14.5733L6.89881 14.6009L5.91715 14.7655C5.7188 14.7988 5.54454 14.6313 5.56992 14.4318L5.69555 13.4444L5.71657 13.2792L5.71669 13.2782L6.0105 10.969C6.01886 10.9032 6.04873 10.8422 6.09545 10.7952L15.9456 0.896206C16.3352 0.504717 16.9684 0.503153 17.3598 0.892711L19.1269 2.65109C19.5142 3.03646 19.5205 3.66131 19.1411 4.05441L9.42894 14.1169C9.38433 14.1631 9.32607 14.1938 9.26272 14.2044ZM9.54102 3.39492H2.07031V17.8949H16.5703V10.7074C16.5703 10.2932 16.9061 9.95742 17.3203 9.95742C17.7345 9.95742 18.0703 10.2932 18.0703 10.7074V18.1449C18.0703 18.8353 17.5107 19.3949 16.8203 19.3949H1.82031C1.12996 19.3949 0.570312 18.8353 0.570312 18.1449V3.14492C0.570312 2.45457 1.12996 1.89492 1.82031 1.89492H9.54102C9.95523 1.89492 10.291 2.23071 10.291 2.64492C10.291 3.05914 9.95523 3.39492 9.54102 3.39492Z" fill="white"/>
</svg>
