<svg width="22" height="22" viewBox="0 0 22 22" fill="none" xmlns="http://www.w3.org/2000/svg">
<path fill-rule="evenodd" clip-rule="evenodd" d="M17.2574 6.95859H18.8945V5.45859H14.1504V3C14.1504 2.44772 13.7027 2 13.1504 2H9.15039C8.59811 2 8.15039 2.44772 8.15039 3V5.45859H3.15039V6.95859H4.78749L4.80814 7.33031L5.51201 20H15.7457H16.5329L17.2368 7.33031L17.2574 6.95859ZM9.65039 5.45859V3.5H12.6504V5.45859H9.65039ZM6.31045 7.33031L6.93099 18.5H15.1139L15.7345 7.33031H6.31045ZM8.66084 8.97901V16.0639H10.1608V8.97901H8.66084ZM12.2033 16.0639V8.97901H13.7033V16.0639H12.2033Z" fill="white"/>
</svg>
