<svg width="21" height="20" viewBox="0 0 21 20" fill="none" xmlns="http://www.w3.org/2000/svg">
<path d="M17.9197 10.5284L9.72656 2.33665C9.62328 2.23128 9.50023 2.14732 9.36446 2.08955C9.22868 2.03179 9.08285 2.00135 8.9353 2H3.36844C3.07078 2 2.7853 2.11823 2.57482 2.32867C2.36434 2.53912 2.24609 2.82454 2.24609 3.12215V8.68804C2.24735 8.98517 2.36642 9.26968 2.57719 9.47916L10.7703 17.6709C10.8746 17.7752 10.9984 17.858 11.1346 17.9145C11.2709 17.9709 11.4169 18 11.5644 18C11.7119 18 11.858 17.9709 11.9942 17.9145C12.1305 17.858 12.2542 17.7752 12.3585 17.6709L17.9141 12.1162C18.0188 12.0124 18.1021 11.8889 18.159 11.7529C18.216 11.6168 18.2456 11.4709 18.2461 11.3235C18.2466 11.176 18.2181 11.0299 18.1621 10.8934C18.1061 10.757 18.0237 10.633 17.9197 10.5284ZM5.41673 6.10147C5.23249 6.10147 5.05239 6.04685 4.89919 5.94451C4.746 5.84216 4.6266 5.6967 4.55609 5.52651C4.48559 5.35632 4.46714 5.16905 4.50308 4.98838C4.53903 4.80771 4.62775 4.64175 4.75803 4.5115C4.88831 4.38124 5.05429 4.29253 5.235 4.25659C5.4157 4.22066 5.603 4.2391 5.77322 4.3096C5.94344 4.38009 6.08893 4.49947 6.19129 4.65263C6.29365 4.8058 6.34829 4.98587 6.34829 5.17009C6.34829 5.41711 6.25014 5.65401 6.07544 5.82868C5.90074 6.00335 5.6638 6.10147 5.41673 6.10147Z" fill="white"/>
</svg>
