<svg width="26" height="16" viewBox="0 0 26 16" fill="none" xmlns="http://www.w3.org/2000/svg">
<path fill-rule="evenodd" clip-rule="evenodd" d="M5.77071 15.4199C5.89857 15.5441 6.04489 15.6223 6.19594 15.6605C6.3339 15.7395 6.49374 15.7847 6.66413 15.7847H21.7562C22.2771 15.7847 22.6994 15.3624 22.6994 14.8414V3.99403C22.6994 3.47309 22.2771 3.05078 21.7562 3.05078H6.66412C6.49374 3.05078 6.3339 3.09596 6.19595 3.17499C6.04489 3.21313 5.89857 3.29138 5.77071 3.41552L0.286158 8.74102C-0.0953856 9.11149 -0.0953862 9.72398 0.286157 10.0945L5.77071 15.4199ZM4.48045 10.5968C5.13163 10.5968 5.65952 10.0689 5.65952 9.41774C5.65952 8.76656 5.13163 8.23867 4.48045 8.23867C3.82927 8.23867 3.30138 8.76656 3.30138 9.41774C3.30138 10.0689 3.82927 10.5968 4.48045 10.5968Z" fill="#D259C8"/>
<path fill-rule="evenodd" clip-rule="evenodd" d="M7.98438 1.64012C8.015 1.63712 8.04605 1.63558 8.07745 1.63558H23.1695C23.6904 1.63558 24.1128 2.05789 24.1128 2.57883V12.9546H25.056C25.5769 12.9546 25.9993 12.5323 25.9993 12.0114V1.16396C25.9993 0.643012 25.5769 0.220703 25.056 0.220703H9.96396C9.79357 0.220703 9.63374 0.26588 9.49578 0.344909C9.34473 0.383055 9.1984 0.461297 9.07055 0.585445L7.98438 1.64012Z" fill="#D259C8"/>
</svg>
