<svg width="18" height="18" viewBox="0 0 18 18" fill="none" xmlns="http://www.w3.org/2000/svg">
<path fill-rule="evenodd" clip-rule="evenodd" d="M4.76628 3.33333C5.54868 3.33333 6.18294 2.69907 6.18294 1.91667C6.18294 1.13426 5.54868 0.5 4.76628 0.5C3.98387 0.5 3.34961 1.13426 3.34961 1.91667C3.34961 2.69907 3.98387 3.33333 4.76628 3.33333ZM9.01628 3.33333C9.79868 3.33333 10.4329 2.69907 10.4329 1.91667C10.4329 1.13426 9.79868 0.5 9.01628 0.5C8.23387 0.5 7.59961 1.13426 7.59961 1.91667C7.59961 2.69907 8.23387 3.33333 9.01628 3.33333ZM14.6829 1.91667C14.6829 2.69907 14.0487 3.33333 13.2663 3.33333C12.4839 3.33333 11.8496 2.69907 11.8496 1.91667C11.8496 1.13426 12.4839 0.5 13.2663 0.5C14.0487 0.5 14.6829 1.13426 14.6829 1.91667ZM13.2663 7.58333C14.0487 7.58333 14.6829 6.94907 14.6829 6.16667C14.6829 5.38426 14.0487 4.75 13.2663 4.75C12.4839 4.75 11.8496 5.38426 11.8496 6.16667C11.8496 6.94907 12.4839 7.58333 13.2663 7.58333ZM10.4329 6.16667C10.4329 6.94907 9.79868 7.58333 9.01628 7.58333C8.23387 7.58333 7.59961 6.94907 7.59961 6.16667C7.59961 5.38426 8.23387 4.75 9.01628 4.75C9.79868 4.75 10.4329 5.38426 10.4329 6.16667ZM4.76628 7.58333C5.54868 7.58333 6.18294 6.94907 6.18294 6.16667C6.18294 5.38426 5.54868 4.75 4.76628 4.75C3.98387 4.75 3.34961 5.38426 3.34961 6.16667C3.34961 6.94907 3.98387 7.58333 4.76628 7.58333ZM6.18294 10.4167C6.18294 11.1991 5.54868 11.8333 4.76628 11.8333C3.98387 11.8333 3.34961 11.1991 3.34961 10.4167C3.34961 9.63426 3.98387 9 4.76628 9C5.54868 9 6.18294 9.63426 6.18294 10.4167ZM13.2663 11.8333C14.0487 11.8333 14.6829 11.1991 14.6829 10.4167C14.6829 9.63426 14.0487 9 13.2663 9C12.4839 9 11.8496 9.63426 11.8496 10.4167C11.8496 11.1991 12.4839 11.8333 13.2663 11.8333ZM7.59961 10.4167C7.59961 9.63426 8.23387 9 9.01628 9C9.79868 9 10.4329 9.63426 10.4329 10.4167V11.8333C11.9977 11.8333 13.2663 13.1019 13.2663 14.6667C13.2663 16.2315 11.9977 17.5 10.4329 17.5C8.86814 17.5 7.59961 16.2315 7.59961 14.6667V10.4167Z" fill="#FD6D16"/>
</svg>
