<svg width="28" height="18" viewBox="0 0 28 18" fill="none" xmlns="http://www.w3.org/2000/svg">
<path fill-rule="evenodd" clip-rule="evenodd" d="M12.392 14.5146C12.8544 14.8216 13.4067 15 14 15H25.0526C26.6804 15 28 13.6569 28 12V6C28 4.34315 26.6804 3 25.0526 3H21.1153L19.4107 5.25H25.0526C25.4596 5.25 25.7895 5.58578 25.7895 6V12C25.7895 12.4142 25.4596 12.75 25.0526 12.75H14C13.9159 12.75 13.835 12.7357 13.7597 12.7092L12.392 14.5146ZM14.8652 11.25H16.9474V8.5016L14.8652 11.25ZM15.6878 3.54024L14.3318 5.33014C14.232 5.27888 14.1193 5.25 14 5.25H2.94737C2.54042 5.25 2.21053 5.58578 2.21053 6V12C2.21053 12.4142 2.54042 12.75 2.94737 12.75H8.7106L7.00604 15H2.94737C1.31958 15 0 13.6569 0 12V6C0 4.34315 1.31958 3 2.94737 3H14C14.6278 3 15.2097 3.19976 15.6878 3.54024ZM11.0526 9.65854V6.75H13.2561L11.0526 9.65854Z" fill="#D259C8"/>
<path d="M20 1.00391L8.00008 17.0035" stroke="#D259C8" stroke-width="2" stroke-linecap="round"/>
</svg>
