<svg width="14" height="18" viewBox="0 0 14 18" fill="none" xmlns="http://www.w3.org/2000/svg">
<path fill-rule="evenodd" clip-rule="evenodd" d="M3 1.5C3 2.32843 2.32843 3 1.5 3C0.671573 3 0 2.32843 0 1.5C0 0.671573 0.671573 0 1.5 0C2.32843 0 3 0.671573 3 1.5ZM4 2.25L14 2.25V0.750001L4 0.75V2.25ZM4 7.25L14 7.25V5.75L4 5.75V7.25ZM14 12.25L4 12.25V10.75L14 10.75V12.25ZM4 17.25H14V15.75H4V17.25ZM1.5 8C2.32843 8 3 7.32843 3 6.5C3 5.67157 2.32843 5 1.5 5C0.671573 5 0 5.67157 0 6.5C0 7.32843 0.671573 8 1.5 8ZM3 11.5C3 12.3284 2.32843 13 1.5 13C0.671573 13 0 12.3284 0 11.5C0 10.6716 0.671573 10 1.5 10C2.32843 10 3 10.6716 3 11.5ZM1.5 18C2.32843 18 3 17.3284 3 16.5C3 15.6716 2.32843 15 1.5 15C0.671573 15 0 15.6716 0 16.5C0 17.3284 0.671573 18 1.5 18Z" fill="#9D9999"/>
</svg>
