<svg width="14" height="18" viewBox="0 0 14 18" fill="none" xmlns="http://www.w3.org/2000/svg">
<path fill-rule="evenodd" clip-rule="evenodd" d="M0 0.705882C0 0.316034 0.311366 0 0.695455 0H4.86818C5.25227 0 5.56364 0.316034 5.56364 0.705882V4.23529C5.56364 4.62514 5.25227 4.94118 4.86818 4.94118H0.695455C0.311366 4.94118 0 4.62514 0 4.23529V0.705882ZM2.08636 15.5294V5.64706H3.47727V8.47059H7.65V9.88235H3.47727V14.8235H3.825H4.52045H7.65V16.2353H4.52045H3.825H3.47727H2.78182H2.08636V15.5294ZM8.34545 7.05882C8.34545 6.66898 8.65682 6.35294 9.04091 6.35294H13.2136C13.5977 6.35294 13.9091 6.66898 13.9091 7.05882V10.5882C13.9091 10.9781 13.5977 11.2941 13.2136 11.2941H9.04091C8.65682 11.2941 8.34545 10.9781 8.34545 10.5882V7.05882ZM9.04091 13.0588C8.65682 13.0588 8.34545 13.3749 8.34545 13.7647V17.2941C8.34545 17.684 8.65682 18 9.04091 18H13.2136C13.5977 18 13.9091 17.684 13.9091 17.2941V13.7647C13.9091 13.3749 13.5977 13.0588 13.2136 13.0588H9.04091Z" fill="#9D9999"/>
</svg>
