<svg width="20" height="20" viewBox="0 0 20 20" fill="none" xmlns="http://www.w3.org/2000/svg">
<g opacity="0.3">
<path d="M16 13C16 16.3137 13.3137 19 10 19C6.68629 19 4 16.3137 4 13C4 9.68629 6.68629 7 10 7C13.3137 7 16 9.68629 16 13Z" fill="black"/>
<path fill-rule="evenodd" clip-rule="evenodd" d="M7 9V5C7 3.34315 5.65685 2 4 2C2.34315 2 1 3.34315 1 5V9H0V5C0 2.79086 1.79086 1 4 1C6.20914 1 8 2.79086 8 5V9H7Z" fill="black"/>
</g>
<path fill-rule="evenodd" clip-rule="evenodd" d="M12.9743 10.5245L12.2182 9.7684L9.9498 12.0368L7.6814 9.76837L6.92528 10.5245L9.19368 12.7929L6.92529 15.0613L7.68142 15.8174L9.9498 13.549L12.2182 15.8174L12.9743 15.0612L10.7059 12.7929L12.9743 10.5245Z" fill="#E00000"/>
</svg>
