<svg width="72" height="72" viewBox="0 0 72 72" fill="none" xmlns="http://www.w3.org/2000/svg">
<path d="M72 36C72 55.8822 55.8822 72 36 72C16.1177 72 0 55.8822 0 36C0 16.1177 16.1177 0 36 0C55.8822 0 72 16.1177 72 36Z" fill="#E70055"/>
<path fill-rule="evenodd" clip-rule="evenodd" d="M36.0009 39.4838C43.6972 39.4838 49.9364 33.2446 49.9364 25.5483C49.9364 17.8519 43.6972 11.6128 36.0009 11.6128C28.3045 11.6128 22.0654 17.8519 22.0654 25.5483C22.0654 33.2446 28.3045 39.4838 36.0009 39.4838ZM15.0977 49.9354C15.0977 45.4948 18.8054 41.5833 24.4323 39.2942C27.38 42.2791 31.4744 44.1289 36.0009 44.1289C40.5274 44.1289 44.6218 42.2791 47.5695 39.2942C53.1963 41.5833 56.9041 45.4948 56.9041 49.9354C56.9041 56.9904 47.5454 62.7096 36.0009 62.7096C24.4563 62.7096 15.0977 56.9904 15.0977 49.9354Z" fill="white"/>
<path d="M60.3873 53.4192C60.3873 58.5501 56.2279 62.7096 51.097 62.7096C45.9661 62.7096 41.8066 58.5501 41.8066 53.4192C41.8066 48.2883 45.9661 44.1289 51.097 44.1289C56.2279 44.1289 60.3873 48.2883 60.3873 53.4192Z" fill="#E70055"/>
<path d="M51.0955 46.4517L52.6598 51.2663H57.7222L53.6266 54.2418L55.191 59.0564L51.0955 56.0808L46.9999 59.0564L48.5643 54.2418L44.4688 51.2663H49.5311L51.0955 46.4517Z" fill="white"/>
</svg>
