<svg width="21" height="20" viewBox="0 0 21 20" fill="none" xmlns="http://www.w3.org/2000/svg">
<path d="M16.2461 13.5C16.2461 16.8137 13.5598 19.5 10.2461 19.5C6.93239 19.5 4.24609 16.8137 4.24609 13.5C4.24609 10.1863 6.93239 7.5 10.2461 7.5C13.5598 7.5 16.2461 10.1863 16.2461 13.5Z" fill="white"/>
<path fill-rule="evenodd" clip-rule="evenodd" d="M7.24609 9V5C7.24609 3.34315 5.90295 2 4.24609 2C2.58924 2 1.24609 3.34315 1.24609 5V9H0.246094V5C0.246094 2.79086 2.03695 1 4.24609 1C6.45523 1 8.24609 2.79086 8.24609 5V9H7.24609Z" fill="white"/>
</svg>
