<svg width="37" height="16" viewBox="0 0 37 16" fill="none" xmlns="http://www.w3.org/2000/svg">
<path d="M36.7071 8.70711C37.0976 8.31659 37.0976 7.68342 36.7071 7.2929L30.3431 0.928931C29.9526 0.538407 29.3195 0.538406 28.9289 0.928931C28.5384 1.31945 28.5384 1.95262 28.9289 2.34314L34.5858 8L28.9289 13.6569C28.5384 14.0474 28.5384 14.6805 28.9289 15.0711C29.3195 15.4616 29.9526 15.4616 30.3431 15.0711L36.7071 8.70711ZM32 9L36 9L36 7L32 7L32 9Z" fill="#FF5555"/>
<path fill-rule="evenodd" clip-rule="evenodd" d="M24.6563 9H35V7H24.6581L23.6573 8.00087L24.6563 9ZM11.3431 7L12.3437 8.00068L11.3444 9H0L1.89189 7H11.3431Z" fill="#FF5555"/>
<path fill-rule="evenodd" clip-rule="evenodd" d="M13.7071 2.29289C13.3166 1.90237 12.6834 1.90237 12.2929 2.29289C11.9024 2.68342 11.9024 3.31658 12.2929 3.70711L16.5867 8.00091L12.2929 12.2947C11.9024 12.6852 11.9024 13.3184 12.2929 13.7089C12.6834 14.0995 13.3166 14.0995 13.7071 13.7089L18.0009 9.41513L22.2947 13.7089C22.6852 14.0994 23.3184 14.0994 23.7089 13.7089C24.0994 13.3184 24.0994 12.6852 23.7089 12.2947L19.4151 8.00091L23.7089 3.70716C24.0994 3.31663 24.0994 2.68347 23.7089 2.29294C23.3184 1.90242 22.6852 1.90242 22.2947 2.29294L18.0009 6.5867L13.7071 2.29289Z" fill="#FF5555"/>
</svg>
