<svg width="51" height="13" viewBox="0 0 51 13" fill="none" xmlns="http://www.w3.org/2000/svg">
<path fill-rule="evenodd" clip-rule="evenodd" d="M0 7H0.980769V6H0V7ZM2.94231 7H4.90385V6H2.94231V7ZM6.86538 7H8.82692V6H6.86538V7ZM10.7885 7H12.75V6H10.7885V7ZM14.7115 7H16.6731V6H14.7115V7ZM18.6346 7H20.5962V6H18.6346V7ZM30.4038 7H32.3654V6H30.4038V7ZM34.3269 7H36.2885V6H34.3269V7ZM38.25 7H40.2115V6H38.25V7ZM42.1731 7H44.1346V6H42.1731V7ZM46.0962 7H48.0577V6H46.0962V7ZM50.0192 7H51V6H50.0192V7Z" fill="#D259C8"/>
<path fill-rule="evenodd" clip-rule="evenodd" d="M21.2071 0.792893C20.8166 0.402369 20.1834 0.402369 19.7929 0.792893C19.4024 1.18342 19.4024 1.81658 19.7929 2.20711L24.0868 6.50098L19.7929 10.7948C19.4024 11.1854 19.4024 11.8185 19.7929 12.2091C20.1834 12.5996 20.8166 12.5996 21.2071 12.2091L25.501 7.91519L29.7947 12.2089C30.1852 12.5994 30.8184 12.5994 31.2089 12.2089C31.5994 11.8184 31.5994 11.1852 31.2089 10.7947L26.9152 6.50098L31.2089 2.20728C31.5994 1.81676 31.5994 1.18359 31.2089 0.793067C30.8184 0.402543 30.1852 0.402542 29.7947 0.793067L25.501 5.08676L21.2071 0.792893Z" fill="#D259C8"/>
</svg>
