<svg width="22" height="22" viewBox="0 0 22 22" fill="none" xmlns="http://www.w3.org/2000/svg">
<path fill-rule="evenodd" clip-rule="evenodd" d="M20.5 11C20.5 16.2467 16.2467 20.5 11 20.5C5.75329 20.5 1.5 16.2467 1.5 11C1.5 5.75329 5.75329 1.5 11 1.5C16.2467 1.5 20.5 5.75329 20.5 11ZM22 11C22 17.0751 17.0751 22 11 22C4.92487 22 0 17.0751 0 11C0 4.92487 4.92487 0 11 0C17.0751 0 22 4.92487 22 11ZM11.8559 17V7.49023H10.2211V17H11.8559ZM10.3354 4.2998C10.1771 4.48145 10.098 4.7041 10.098 4.96777C10.098 5.21973 10.1771 5.43652 10.3354 5.61816C10.4994 5.79395 10.7396 5.88184 11.0561 5.88184C11.3666 5.88184 11.6039 5.79395 11.768 5.61816C11.9379 5.43652 12.0229 5.21973 12.0229 4.96777C12.0229 4.7041 11.9379 4.48145 11.768 4.2998C11.6039 4.11816 11.3666 4.02734 11.0561 4.02734C10.7396 4.02734 10.4994 4.11816 10.3354 4.2998Z" fill="white"/>
</svg>
