<svg width="14" height="14" viewBox="0 0 14 14" fill="none" xmlns="http://www.w3.org/2000/svg">
<g clip-path="url(#clip0_3711_426490)">
<path d="M13.1476 4.74777C13.1819 4.70453 13.1747 4.64155 13.1311 4.60764C11.3796 3.24477 9.22349 2.50268 7.00229 2.50001C4.78109 2.49733 2.62321 3.23422 0.868385 4.59285C0.824716 4.62666 0.817345 4.68962 0.85159 4.73295L1.33184 5.3406C1.36609 5.38393 1.42897 5.39122 1.47268 5.35746C3.0551 4.13503 4.99963 3.47211 7.00111 3.47452C9.0026 3.47694 10.9455 4.14454 12.525 5.37078C12.5686 5.40465 12.6315 5.39751 12.6659 5.35426L13.1476 4.74777Z" fill="black"/>
<path d="M11.4952 6.72353C11.5312 6.68169 11.5266 6.61847 11.4842 6.58301C10.227 5.53024 8.63898 4.95155 6.99705 4.94995C5.35512 4.94836 3.76599 5.52395 2.5067 6.57427C2.46429 6.60964 2.4595 6.67286 2.49548 6.71476L3.00446 7.30759C3.04043 7.34949 3.10354 7.35421 3.14603 7.31893C4.22706 6.42154 5.58903 5.92993 6.99609 5.9313C8.40316 5.93267 9.76417 6.42694 10.8434 7.32643C10.8859 7.36178 10.949 7.35719 10.985 7.31536L11.4952 6.72353Z" fill="black"/>
<path d="M9.92941 8.62557C9.9663 8.58447 9.96296 8.52115 9.92105 8.48518C9.11032 7.78932 8.07736 7.40387 7.00678 7.39993C5.9362 7.396 4.90043 7.77384 4.08461 8.46372C4.04243 8.49938 4.03863 8.56268 4.07522 8.60405L4.6062 9.2044C4.64279 9.24577 4.7059 9.24951 4.7483 9.21412C5.37991 8.68686 6.17821 8.39837 7.0031 8.4014C7.82798 8.40443 8.62414 8.69879 9.25186 9.23068C9.29399 9.26638 9.35714 9.2631 9.39403 9.222L9.92941 8.62557Z" fill="black"/>
<circle cx="6.98438" cy="10.635" r="0.875" fill="black"/>
</g>
<defs>
<clipPath id="clip0_3711_426490">
<rect width="14" height="14" fill="white"/>
</clipPath>
</defs>
</svg>
