<svg width="22" height="22" viewBox="0 0 22 22" fill="none" xmlns="http://www.w3.org/2000/svg">
<path fill-rule="evenodd" clip-rule="evenodd" d="M4.5 3.16667C4.5 2.79848 4.79101 2.5 5.15 2.5H9.05C9.40899 2.5 9.7 2.79848 9.7 3.16667V6.5C9.7 6.86819 9.40899 7.16667 9.05 7.16667H5.15C4.79101 7.16667 4.5 6.86819 4.5 6.5V3.16667ZM6.45 17.1667V7.83333H7.75V10.5H11.65V11.8333H7.75V16.5H8.075H8.725H11.65V17.8333H8.725H8.075H7.75H7.1H6.45V17.1667ZM12.3 9.16667C12.3 8.79848 12.591 8.5 12.95 8.5H16.85C17.209 8.5 17.5 8.79848 17.5 9.16667V12.5C17.5 12.8682 17.209 13.1667 16.85 13.1667H12.95C12.591 13.1667 12.3 12.8682 12.3 12.5V9.16667ZM12.95 14.8333C12.591 14.8333 12.3 15.1318 12.3 15.5V18.8333C12.3 19.2015 12.591 19.5 12.95 19.5H16.85C17.209 19.5 17.5 19.2015 17.5 18.8333V15.5C17.5 15.1318 17.209 14.8333 16.85 14.8333H12.95Z" fill="white"/>
</svg>
