<svg width="28" height="28" viewBox="0 0 28 28" fill="none" xmlns="http://www.w3.org/2000/svg">
<path fill-rule="evenodd" clip-rule="evenodd" d="M13.9043 23.5333H13.9042C8.68492 23.5333 4.45389 19.2651 4.45389 14C4.45389 8.73489 8.68492 4.46667 13.9042 4.46667C19.1234 4.46667 23.3544 8.73489 23.3544 14C23.3544 16.0254 22.7283 17.9032 21.6608 19.4473L18.6015 17.6655L19.7792 23.0611L25 21.3922L22.924 20.183C24.1132 18.421 24.8083 16.2924 24.8083 14C24.8083 7.92487 19.9264 3 13.9042 3C7.88196 3 3 7.92487 3 14C3 20.0751 7.88196 25 13.9042 25H13.9043L13.9043 23.5333ZM7.85576 14.7305V16.2H7.00387V12.0292H8.61678C8.92724 12.0292 9.19985 12.0865 9.43459 12.201C9.67122 12.3156 9.85296 12.4789 9.9798 12.6909C10.1066 12.901 10.1701 13.1406 10.1701 13.4099C10.1701 13.8186 10.0309 14.1413 9.75263 14.3781C9.47624 14.613 9.09289 14.7305 8.60258 14.7305H7.85576ZM7.85576 14.0344H8.61678C8.84205 14.0344 9.01338 13.9809 9.13075 13.874C9.25001 13.767 9.30964 13.6142 9.30964 13.4156C9.30964 13.2113 9.25001 13.0461 9.13075 12.9201C9.01148 12.794 8.84679 12.7291 8.63665 12.7253H7.85576V14.0344ZM12.5866 15.3406H11.0929L10.809 16.2H9.90313L11.4422 12.0292H12.2316L13.7792 16.2H12.8734L12.5866 15.3406ZM11.3229 14.6445H12.3566L11.8369 13.0833L11.3229 14.6445ZM16.3093 15.1057C16.3093 14.9434 16.2525 14.8193 16.1389 14.7333C16.0254 14.6455 15.8209 14.5538 15.5256 14.4583C15.2303 14.3609 14.9965 14.2655 14.8242 14.1719C14.3547 13.916 14.12 13.5713 14.12 13.1378C14.12 12.9124 14.1824 12.7119 14.3074 12.5362C14.4342 12.3586 14.615 12.2201 14.8498 12.1208C15.0864 12.0215 15.3514 11.9719 15.6448 11.9719C15.9402 11.9719 16.2033 12.0263 16.4343 12.1352C16.6652 12.2421 16.8441 12.3939 16.971 12.5906C17.0997 12.7873 17.164 13.0108 17.164 13.2609H16.3122C16.3122 13.07 16.2525 12.922 16.1333 12.8169C16.014 12.71 15.8465 12.6565 15.6306 12.6565C15.4224 12.6565 15.2605 12.7014 15.1451 12.7911C15.0296 12.879 14.9719 12.9955 14.9719 13.1406C14.9719 13.2762 15.0391 13.3898 15.1735 13.4815C15.3098 13.5732 15.5095 13.6591 15.7726 13.7393C16.2573 13.8864 16.6103 14.0688 16.8318 14.2865C17.0533 14.5042 17.164 14.7753 17.164 15.1C17.164 15.4609 17.0287 15.7445 16.758 15.9508C16.4873 16.1551 16.1228 16.2573 15.6647 16.2573C15.3467 16.2573 15.057 16.199 14.7958 16.0826C14.5346 15.9641 14.3348 15.8028 14.1966 15.5984C14.0603 15.3941 13.9922 15.1573 13.9922 14.888H14.8469C14.8469 15.3483 15.1195 15.5784 15.6647 15.5784C15.8673 15.5784 16.0254 15.5373 16.1389 15.4552C16.2525 15.3712 16.3093 15.2547 16.3093 15.1057ZM19.8872 15.1057C19.8872 14.9434 19.8305 14.8193 19.7169 14.7333C19.6033 14.6455 19.3988 14.5538 19.1035 14.4583C18.8082 14.3609 18.5744 14.2655 18.4021 14.1719C17.9326 13.916 17.6979 13.5713 17.6979 13.1378C17.6979 12.9124 17.7604 12.7119 17.8853 12.5362C18.0121 12.3586 18.1929 12.2201 18.4277 12.1208C18.6643 12.0215 18.9293 11.9719 19.2228 11.9719C19.5181 11.9719 19.7812 12.0263 20.0122 12.1352C20.2431 12.2421 20.422 12.3939 20.5489 12.5906C20.6776 12.7873 20.742 13.0108 20.742 13.2609H19.8901C19.8901 13.07 19.8305 12.922 19.7112 12.8169C19.5919 12.71 19.4244 12.6565 19.2086 12.6565C19.0003 12.6565 18.8385 12.7014 18.723 12.7911C18.6075 12.879 18.5498 12.9955 18.5498 13.1406C18.5498 13.2762 18.617 13.3898 18.7514 13.4815C18.8877 13.5732 19.0874 13.6591 19.3506 13.7393C19.8352 13.8864 20.1882 14.0688 20.4097 14.2865C20.6312 14.5042 20.742 14.7753 20.742 15.1C20.742 15.4609 20.6066 15.7445 20.3359 15.9508C20.0652 16.1551 19.7008 16.2573 19.2426 16.2573C18.9246 16.2573 18.635 16.199 18.3737 16.0826C18.1125 15.9641 17.9128 15.8028 17.7746 15.5984C17.6383 15.3941 17.5701 15.1573 17.5701 14.888H18.4248C18.4248 15.3483 18.6974 15.5784 19.2426 15.5784C19.4452 15.5784 19.6033 15.5373 19.7169 15.4552C19.8305 15.3712 19.8872 15.2547 19.8872 15.1057Z" fill="white"/>
</svg>
