<svg width="24" height="24" viewBox="0 0 24 24" fill="none" xmlns="http://www.w3.org/2000/svg">
<path d="M16 2H8C6.9 2 6.01 2.9 6.01 4L6 20C6 21.1 6.89 22 7.99 22H20C21.1 22 22 21.1 22 20V8L16 2ZM8 20V4H15V9H20V20H8Z" fill="white"/>
<rect x="1" y="9" width="12" height="6" rx="1" fill="white"/>
<path d="M5.34229 12.4858V13H3.73169V12.4858H5.34229ZM3.94482 9.80078V13H3.28564V9.80078H3.94482ZM5.57959 11.8354V11.7893C5.57959 11.615 5.60449 11.4546 5.6543 11.3081C5.7041 11.1602 5.77661 11.032 5.87183 10.9236C5.96704 10.8152 6.08423 10.731 6.22339 10.6709C6.36255 10.6094 6.52222 10.5786 6.70239 10.5786C6.88257 10.5786 7.04297 10.6094 7.18359 10.6709C7.32422 10.731 7.44214 10.8152 7.53735 10.9236C7.63403 11.032 7.70728 11.1602 7.75708 11.3081C7.80688 11.4546 7.83179 11.615 7.83179 11.7893V11.8354C7.83179 12.0083 7.80688 12.1687 7.75708 12.3167C7.70728 12.4631 7.63403 12.5913 7.53735 12.7012C7.44214 12.8096 7.32495 12.8938 7.18579 12.9539C7.04663 13.0139 6.88696 13.0439 6.70679 13.0439C6.52661 13.0439 6.36621 13.0139 6.22559 12.9539C6.08643 12.8938 5.96851 12.8096 5.87183 12.7012C5.77661 12.5913 5.7041 12.4631 5.6543 12.3167C5.60449 12.1687 5.57959 12.0083 5.57959 11.8354ZM6.2124 11.7893V11.8354C6.2124 11.9351 6.22119 12.0281 6.23877 12.1145C6.25635 12.2009 6.28418 12.2771 6.32227 12.343C6.36182 12.4075 6.41309 12.458 6.47607 12.4946C6.53906 12.5312 6.61597 12.5496 6.70679 12.5496C6.79468 12.5496 6.87012 12.5312 6.93311 12.4946C6.99609 12.458 7.04663 12.4075 7.08472 12.343C7.1228 12.2771 7.15063 12.2009 7.16821 12.1145C7.18726 12.0281 7.19678 11.9351 7.19678 11.8354V11.7893C7.19678 11.6926 7.18726 11.6018 7.16821 11.5168C7.15063 11.4304 7.12207 11.3542 7.08252 11.2883C7.04443 11.2209 6.9939 11.1682 6.93091 11.1301C6.86792 11.092 6.79175 11.073 6.70239 11.073C6.61304 11.073 6.53687 11.092 6.47388 11.1301C6.41235 11.1682 6.36182 11.2209 6.32227 11.2883C6.28418 11.3542 6.25635 11.4304 6.23877 11.5168C6.22119 11.6018 6.2124 11.6926 6.2124 11.7893ZM9.72583 10.6226H10.2993V12.9209C10.2993 13.1377 10.251 13.3215 10.1543 13.4724C10.0591 13.6248 9.92578 13.7397 9.75439 13.8174C9.58301 13.8965 9.38379 13.936 9.15674 13.936C9.05713 13.936 8.95166 13.9229 8.84033 13.8965C8.73047 13.8701 8.625 13.8291 8.52393 13.7734C8.42432 13.7178 8.34082 13.6475 8.27344 13.5625L8.55249 13.189C8.62573 13.2739 8.71069 13.3398 8.80737 13.3867C8.90405 13.4351 9.01099 13.4592 9.12817 13.4592C9.24243 13.4592 9.33911 13.438 9.41821 13.3955C9.49731 13.3545 9.55811 13.2937 9.60059 13.2131C9.64307 13.134 9.66431 13.0381 9.66431 12.9253V11.1719L9.72583 10.6226ZM8.12622 11.8398V11.7937C8.12622 11.6121 8.14819 11.4473 8.19214 11.2993C8.23755 11.1499 8.30127 11.0217 8.3833 10.9148C8.4668 10.8079 8.56787 10.7251 8.68652 10.6665C8.80518 10.6079 8.93921 10.5786 9.08862 10.5786C9.24683 10.5786 9.37939 10.6079 9.48633 10.6665C9.59326 10.7251 9.68115 10.8086 9.75 10.917C9.81885 11.0239 9.87231 11.1506 9.9104 11.2971C9.94995 11.4421 9.98071 11.6011 10.0027 11.7739V11.875C9.98071 12.0405 9.94775 12.1943 9.90381 12.3364C9.85986 12.4785 9.802 12.603 9.73022 12.71C9.65845 12.8154 9.56909 12.8975 9.46216 12.9561C9.35669 13.0146 9.23071 13.0439 9.08423 13.0439C8.93774 13.0439 8.80518 13.0139 8.68652 12.9539C8.56934 12.8938 8.46899 12.8096 8.3855 12.7012C8.302 12.5928 8.23755 12.4653 8.19214 12.3188C8.14819 12.1724 8.12622 12.0127 8.12622 11.8398ZM8.75903 11.7937V11.8398C8.75903 11.938 8.76855 12.0295 8.7876 12.1145C8.80664 12.1995 8.83594 12.2749 8.87549 12.3408C8.9165 12.4053 8.96704 12.4558 9.0271 12.4924C9.08862 12.5276 9.16113 12.5452 9.24463 12.5452C9.36035 12.5452 9.45483 12.521 9.52808 12.4727C9.60132 12.4229 9.65625 12.3547 9.69287 12.2683C9.72949 12.1819 9.75073 12.0823 9.75659 11.9695V11.6816C9.75366 11.5894 9.74121 11.5066 9.71924 11.4333C9.69727 11.3586 9.6665 11.2949 9.62695 11.2422C9.5874 11.1895 9.53613 11.1484 9.47314 11.1191C9.41016 11.0898 9.33545 11.0752 9.24902 11.0752C9.16553 11.0752 9.09302 11.0942 9.03149 11.1323C8.97144 11.1689 8.9209 11.2195 8.87988 11.2839C8.84033 11.3484 8.8103 11.4246 8.78979 11.5125C8.76929 11.5989 8.75903 11.6926 8.75903 11.7937Z" fill="#FD6D16"/>
</svg>
