<svg width="28" height="28" viewBox="0 0 28 28" fill="none" xmlns="http://www.w3.org/2000/svg">
<path fill-rule="evenodd" clip-rule="evenodd" d="M11.931 12.731C14.2164 12.731 16.069 10.8784 16.069 8.59309C16.069 6.30778 14.2164 4.45516 11.931 4.45516C9.64572 4.45516 7.7931 6.30778 7.7931 8.59309C7.7931 10.8784 9.64572 12.731 11.931 12.731ZM11.931 14.3862C15.1305 14.3862 17.7241 11.7925 17.7241 8.59309C17.7241 5.39365 15.1305 2.79999 11.931 2.79999C8.73159 2.79999 6.13793 5.39365 6.13793 8.59309C6.13793 11.7925 8.73159 14.3862 11.931 14.3862ZM18.001 14.987C17.8231 14.9053 17.6411 14.8313 17.4552 14.7654C16.7938 14.5308 16.0842 14.3984 15.3451 14.387C14.3224 14.9154 13.1616 15.2138 11.931 15.2138C10.7005 15.2138 9.53968 14.9154 8.51696 14.387C4.90829 14.4424 2 17.385 2 21.0069V23.4897C2 24.4038 2.74105 25.1448 3.65517 25.1448H16.4316C15.9637 24.6903 15.6023 24.1285 15.342 23.4897H3.65517V21.0069C3.65517 18.414 5.64275 16.2851 8.17701 16.0609C9.32326 16.5803 10.5954 16.869 11.931 16.869C13.2668 16.869 14.5389 16.5803 15.6852 16.0608C16.0249 16.0908 16.3544 16.1549 16.6705 16.2497C16.65 16.3003 16.63 16.3512 16.6105 16.4023C17.0257 15.8922 17.4958 15.4129 18.001 14.987ZM21.7438 14.3862H21.9803C22.8291 14.3862 23.5172 15.0743 23.5172 15.9232V17.8148C23.5172 17.8391 23.5167 17.8633 23.5156 17.8874H20.2086C20.2075 17.8633 20.2069 17.8391 20.2069 17.8148V15.9232C20.2069 15.0743 20.895 14.3862 21.7438 14.3862ZM19.3804 17.8874C19.3797 17.8633 19.3793 17.8391 19.3793 17.8148V15.9232C19.3793 14.6173 20.4379 13.5586 21.7438 13.5586H21.9803C23.2862 13.5586 24.3448 14.6173 24.3448 15.9232V17.8148C24.3448 17.8391 24.3445 17.8633 24.3437 17.8874H25.1724C25.6295 17.8874 26 18.2579 26 18.715V24.317C26 24.774 25.6295 25.1445 25.1724 25.1445H18.5517C18.0947 25.1445 17.7241 24.774 17.7241 24.317V18.715C17.7241 18.2579 18.0947 17.8874 18.5517 17.8874H19.3804ZM22.1489 21.837C22.5807 21.7061 22.8965 21.2873 22.8965 20.7909C22.8965 20.1897 22.4333 19.7023 21.862 19.7023C21.2906 19.7023 20.8275 20.1897 20.8275 20.7909C20.8275 21.2872 21.1432 21.706 21.5748 21.837L20.966 24.0564H22.7578L22.1489 21.837Z" fill="white"/>
</svg>
