<svg width="24" height="38" viewBox="0 0 24 38" fill="none" xmlns="http://www.w3.org/2000/svg">
<path fill-rule="evenodd" clip-rule="evenodd" d="M12 0.5C7.68113 0.5 4.18 4.02016 4.18 8.3625V14.375H3.26C1.73569 14.375 0.5 15.6174 0.5 17.15V34.725C0.5 36.2576 1.73569 37.5 3.26 37.5H20.74C22.2643 37.5 23.5 36.2576 23.5 34.725V17.15C23.5 15.6174 22.2643 14.375 20.74 14.375H19.82V8.3625C19.82 4.02016 16.3189 0.5 12 0.5ZM6.02 13.9125C6.02 14.0681 6.02588 14.2224 6.03743 14.375H17.9626C17.9741 14.2224 17.98 14.0681 17.98 13.9125V8.3625C17.98 5.04189 15.3027 2.35 12 2.35C8.69734 2.35 6.02 5.04189 6.02 8.3625V13.9125ZM15.22 24.0875C15.22 25.4919 14.3306 26.6875 13.0872 27.1358L13.8591 30.8323H10.1409L10.9128 27.1358C9.66941 26.6875 8.78 25.4919 8.78 24.0875C8.78 22.2995 10.2216 20.85 12 20.85C13.7784 20.85 15.22 22.2995 15.22 24.0875Z" fill="white"/>
</svg>
