<svg width="26" height="26" viewBox="0 0 26 26" fill="none" xmlns="http://www.w3.org/2000/svg">
<path fill-rule="evenodd" clip-rule="evenodd" d="M18.8642 0.909118C20.2755 1.19675 21.5817 1.86358 22.6424 2.83793C23.7031 3.81227 24.4781 5.05729 24.8843 6.43912C25.2605 7.70612 25.3165 9.04662 25.047 10.3416C24.6575 12.1158 23.6772 13.7053 22.2666 14.8498C20.856 15.9943 19.0987 16.626 17.2822 16.6416C16.5157 16.6416 15.7527 16.5314 15.0195 16.3091L13.6195 17.9506L12.9563 18.2569H11.25V20.8819L10.375 21.7569H7.75V24.3819L6.875 25.2569H1.625L0.75 24.3819V20.3446L1.0055 19.7269L9.71 11.0224C9.46297 10.2267 9.34481 9.39662 9.36 8.56362C9.37595 7.39818 9.6488 6.25061 10.1591 5.20271C10.6694 4.15482 11.4046 3.2324 12.3123 2.50122C13.22 1.77003 14.2778 1.24809 15.4103 0.972587C16.5428 0.697087 17.7221 0.674819 18.8642 0.907368V0.909118ZM21.1707 13.5091C22.2701 12.6189 23.0346 11.3818 23.339 10.0004L23.346 10.0091C23.5628 8.99902 23.5238 7.95076 23.2325 6.95957C22.9412 5.96839 22.4068 5.0657 21.678 4.33354C20.9491 3.60137 20.0489 3.06294 19.059 2.76715C18.0691 2.47137 17.0211 2.42762 16.01 2.63987C14.6464 2.94253 13.4232 3.6927 12.5352 4.77094C11.6473 5.84918 11.1456 7.19351 11.11 8.58987C11.0925 9.38787 11.2325 10.1789 11.5282 10.9174L11.3357 11.8676L2.5 20.7069V23.5069H6V20.8819L6.875 20.0069H9.5V17.3819L10.375 16.5069H12.5537L14.0868 14.7289L15.0685 14.4839C15.7762 14.7604 16.5295 14.9017 17.2892 14.9004C18.7033 14.8895 20.0718 14.399 21.1707 13.5091ZM19.7043 8.72812C19.8422 8.53746 19.9403 8.32092 19.9927 8.09146C20.0451 7.86201 20.0506 7.62435 20.009 7.39271C19.9674 7.16106 19.8794 6.94019 19.7505 6.74331C19.6215 6.54643 19.4542 6.37758 19.2585 6.24687C19.0628 6.11615 18.8427 6.02626 18.6114 5.98257C18.3802 5.93887 18.1425 5.94228 17.9126 5.99257C17.6826 6.04287 17.4652 6.13903 17.2733 6.27529C17.0814 6.41155 16.919 6.58512 16.7957 6.78562C16.5586 7.1713 16.4802 7.63386 16.577 8.07613C16.6737 8.51841 16.9381 8.90598 17.3146 9.15742C17.6911 9.40887 18.1504 9.50462 18.596 9.42457C19.0416 9.34452 19.4388 9.09489 19.7043 8.72812Z" fill="white"/>
</svg>
