<svg width="14" height="12" viewBox="0 0 14 12" fill="none" xmlns="http://www.w3.org/2000/svg">
<path opacity="0.3" d="M13.1476 2.74777C13.1819 2.70453 13.1747 2.64155 13.1311 2.60764C11.3796 1.24477 9.22349 0.502685 7.00229 0.500007C4.78109 0.49733 2.62321 1.23422 0.868385 2.59285C0.824716 2.62666 0.817345 2.68962 0.85159 2.73295L1.33184 3.3406C1.36609 3.38393 1.42897 3.39122 1.47268 3.35746C3.0551 2.13503 4.99963 1.47211 7.00111 1.47452C9.0026 1.47694 10.9455 2.14454 12.525 3.37078C12.5686 3.40465 12.6315 3.39751 12.6659 3.35426L13.1476 2.74777Z" fill="black"/>
<path opacity="0.3" d="M11.4952 4.72377C11.5312 4.68194 11.5266 4.61871 11.4842 4.58325C10.227 3.53048 8.63898 2.9518 6.99705 2.9502C5.35512 2.9486 3.76599 3.52419 2.5067 4.57451C2.46429 4.60989 2.4595 4.6731 2.49548 4.71501L3.00446 5.30783C3.04043 5.34973 3.10354 5.35445 3.14603 5.31918C4.22706 4.42179 5.58903 3.93017 6.99609 3.93154C8.40316 3.93291 9.76417 4.42718 10.8434 5.32667C10.8859 5.36203 10.949 5.35743 10.985 5.3156L11.4952 4.72377Z" fill="black"/>
<path d="M9.92941 6.62557C9.9663 6.58447 9.96296 6.52115 9.92105 6.48518C9.11032 5.78932 8.07736 5.40387 7.00678 5.39993C5.9362 5.396 4.90043 5.77384 4.08461 6.46372C4.04243 6.49938 4.03863 6.56268 4.07522 6.60405L4.6062 7.2044C4.64279 7.24577 4.7059 7.24951 4.7483 7.21412C5.37991 6.68686 6.17821 6.39837 7.0031 6.4014C7.82798 6.40443 8.62414 6.69879 9.25186 7.23068C9.29399 7.26638 9.35714 7.2631 9.39403 7.222L9.92941 6.62557Z" fill="black"/>
<circle cx="6.98438" cy="8.63477" r="0.875" fill="black"/>
</svg>
