<svg width="41" height="36" viewBox="0 0 41 36" fill="none" xmlns="http://www.w3.org/2000/svg">
<path d="M18.4996 1.89613C19.4586 0.261186 21.856 0.261184 22.815 1.89613L40.0767 31.3252C41.0357 32.9601 39.837 35.0038 37.919 35.0038H3.39562C1.47765 35.0038 0.278924 32.9601 1.23791 31.3252L18.4996 1.89613Z" fill="#FFC200"/>
<path fill-rule="evenodd" clip-rule="evenodd" d="M37.919 32.5514L20.6573 3.12234L3.39562 32.5514H37.919ZM22.815 1.89613C21.856 0.261184 19.4586 0.261186 18.4996 1.89613L1.23791 31.3252C0.278924 32.9601 1.47765 35.0038 3.39562 35.0038H37.919C39.837 35.0038 41.0357 32.9601 40.0767 31.3252L22.815 1.89613Z" fill="black"/>
<path d="M21.8622 23.587C21.8223 23.1946 21.8223 22.9984 21.8223 22.763C21.8223 22.4883 21.8223 22.4883 21.8622 21.3308L22.1412 14.6602C22.1811 13.8165 22.2608 12.7963 22.3206 12.2666H19.0518C19.1315 12.8159 19.1913 13.7969 19.2311 14.6602L19.5102 21.3308C19.57 22.5275 19.57 22.5275 19.57 22.7433C19.57 22.9788 19.5501 23.175 19.5301 23.587H21.8622ZM22.1412 27.8836V25.1958H19.2511V27.8836H22.1412Z" fill="black"/>
</svg>
