<svg width="28" height="28" viewBox="0 0 28 28" fill="none" xmlns="http://www.w3.org/2000/svg">
<path fill-rule="evenodd" clip-rule="evenodd" d="M27.0231 7.36354C20.3633 0.226615 8.71841 0.19045 1.00811 7.38527C0.806211 7.57366 0.489818 7.56272 0.301421 7.36083C0.113025 7.15893 0.123967 6.84254 0.325862 6.65414C8.39162 -0.872369 20.6741 -0.906109 27.7542 6.68129C27.9426 6.88319 27.9317 7.19958 27.7298 7.38798C27.5279 7.57637 27.2115 7.56543 27.0231 7.36354ZM24.4864 10.0561C19.1501 4.33743 9.80985 4.3015 3.61912 10.0783C3.41723 10.2667 3.10083 10.2558 2.91244 10.0539C2.72404 9.85201 2.73498 9.53561 2.93688 9.34722C9.48307 3.23868 19.4608 3.20471 25.2175 9.37385C25.4059 9.57574 25.395 9.89213 25.1931 10.0805C24.9912 10.2689 24.6748 10.258 24.4864 10.0561ZM6.21894 12.6831C10.8685 8.34442 17.8711 8.38011 21.8652 12.6603C22.0536 12.8622 22.37 12.8731 22.5719 12.6847C22.7738 12.4964 22.7847 12.18 22.5963 11.9781C18.1819 7.24739 10.5417 7.2816 5.53669 11.952C5.3348 12.1404 5.32386 12.4568 5.51225 12.6586C5.70065 12.8605 6.01704 12.8715 6.21894 12.6831ZM18.9548 15.1201C16.3775 12.3581 11.842 12.3227 8.81911 15.1434C8.61721 15.3318 8.30082 15.3209 8.11242 15.119C7.92403 14.9171 7.93497 14.6007 8.13686 14.4123C11.5152 11.2599 16.6882 11.2254 19.6859 14.4378C19.8743 14.6397 19.8634 14.9561 19.6615 15.1445C19.4596 15.3329 19.1432 15.322 18.9548 15.1201ZM14 16.4497C20.1952 16.4497 25.5385 20.4471 28.0001 26.217H0C2.46158 20.4471 7.8049 16.4497 14 16.4497Z" fill="white"/>
</svg>
