<svg width="23" height="23" viewBox="0 0 23 23" fill="none" xmlns="http://www.w3.org/2000/svg">
<path fill-rule="evenodd" clip-rule="evenodd" d="M19.4444 8.19444L21.3889 8.81944C21.875 8.95833 22.2222 9.44444 22.2222 9.93055V12.2917C22.2222 12.7778 21.875 13.1944 21.4583 13.3333L19.4444 13.9583L19.0278 15L20 16.8056C20.2083 17.2222 20.1389 17.7778 19.7917 18.125L18.125 19.7917C17.7778 20.1389 17.2222 20.2083 16.8056 20L15 19.0278L13.9583 19.4444L13.3333 21.4583C13.1944 21.875 12.7778 22.2222 12.2917 22.2222H9.93056C9.44444 22.2222 9.02778 21.875 8.88889 21.4583L8.26389 19.4444L7.22222 19.0278L5.41667 20C5 20.2083 4.44444 20.1389 4.09722 19.7917L2.43056 18.125C2.08333 17.7778 2.01389 17.2222 2.22222 16.8056L3.19444 15L2.77778 13.9583L0.833333 13.3333C0.347222 13.1944 0 12.7778 0 12.2917V9.93055C0 9.44444 0.347222 9.02778 0.763889 8.88889L2.70833 8.26389C2.77778 8.09028 2.84722 7.89931 2.91667 7.70833C2.98611 7.51736 3.05556 7.32639 3.125 7.15278L2.22222 5.41667C2.01389 5 2.08333 4.44444 2.43056 4.09722L4.09722 2.43056C4.44444 2.08333 5 2.01389 5.41667 2.22222L7.22222 3.19444C7.56944 2.98611 7.91667 2.84722 8.33333 2.77778L8.95833 0.833333C9.02778 0.347222 9.44444 0 9.93056 0H12.2917C12.7778 0 13.1944 0.347222 13.3333 0.763889L13.9583 2.70833L15 3.125L16.8056 2.15278C17.2222 1.94444 17.7778 2.01389 18.125 2.36111L19.7917 4.02778C20.1389 4.375 20.2083 4.93055 20 5.34722L19.0278 7.15278L19.4444 8.19444ZM18.3333 12.8472L20.8333 12.0833V10.1389L18.3333 9.375L18.2639 9.02778C18.125 8.54167 17.9167 8.05555 17.6389 7.56944L17.4306 7.22222L18.6806 4.93056L17.2917 3.54167L15 4.79167L14.6528 4.58333C14.1667 4.30556 13.6806 4.09722 13.1944 3.95833L12.8472 3.81944L12.0833 1.38889H10.1389L9.375 3.81944L9.02778 3.95833C8.47222 4.09722 7.98611 4.30556 7.5 4.58333L7.15278 4.79167L4.93056 3.54167L3.54167 4.93056L4.72222 7.22222L4.51389 7.56944C4.23611 8.05555 4.02778 8.54167 3.88889 9.09722L3.75 9.44444L1.38889 10.1389V12.0833L3.88889 12.8472L3.95833 13.1944C4.09722 13.6806 4.30556 14.1667 4.58333 14.6528L4.79167 15L3.54167 17.2917L4.93056 18.6806L7.22222 17.4306L7.56944 17.6389L9.02778 18.2639L9.375 18.3333L10.1389 20.8333H12.0833L12.8472 18.3333L13.1944 18.2639C13.6806 18.125 14.1667 17.9167 14.6528 17.6389L15 17.4306L17.2917 18.6806L18.6806 17.2917L17.4306 15L17.6389 14.6528L18.2639 13.1944L18.3333 12.8472ZM6.31927 11.1109C6.31927 8.40261 8.47205 6.24983 11.1804 6.24983C13.8887 6.24983 16.0415 8.40261 16.0415 11.1109C16.0415 13.8193 13.8887 15.9721 11.1804 15.9721C8.47205 15.9721 6.31927 13.8193 6.31927 11.1109ZM7.70816 11.1109C7.70816 13.0554 9.23594 14.5832 11.1804 14.5832C13.1248 14.5832 14.6526 13.0554 14.6526 11.1109C14.6526 9.1665 13.1248 7.63872 11.1804 7.63872C9.23594 7.63872 7.70816 9.1665 7.70816 11.1109Z" fill="white"/>
</svg>
