<svg width="22" height="22" viewBox="0 0 22 22" fill="none" xmlns="http://www.w3.org/2000/svg">
<path fill-rule="evenodd" clip-rule="evenodd" d="M12.5 5C12.5 5.82843 11.8284 6.5 11 6.5C10.1716 6.5 9.5 5.82843 9.5 5C9.5 4.17157 10.1716 3.5 11 3.5C11.8284 3.5 12.5 4.17157 12.5 5ZM12.5 11C12.5 11.8284 11.8284 12.5 11 12.5C10.1716 12.5 9.5 11.8284 9.5 11C9.5 10.1716 10.1716 9.5 11 9.5C11.8284 9.5 12.5 10.1716 12.5 11ZM11 18.5C11.8284 18.5 12.5 17.8284 12.5 17C12.5 16.1716 11.8284 15.5 11 15.5C10.1716 15.5 9.5 16.1716 9.5 17C9.5 17.8284 10.1716 18.5 11 18.5Z" fill="white"/>
</svg>
