<svg width="58" height="58" viewBox="0 0 58 58" fill="none" xmlns="http://www.w3.org/2000/svg">
<path fill-rule="evenodd" clip-rule="evenodd" d="M51 29C51 41.1503 41.1503 51 29 51C16.8497 51 7 41.1503 7 29C7 16.8497 16.8497 7 29 7C41.1503 7 51 16.8497 51 29ZM58 29C58 45.0163 45.0163 58 29 58C12.9837 58 0 45.0163 0 29C0 12.9837 12.9837 0 29 0C45.0163 0 58 12.9837 58 29ZM31.67 35.1949C31.67 35.7349 31.67 36.1849 31.76 37.0849H26.495C26.5115 36.738 26.528 36.4577 26.5423 36.2153C26.567 35.7973 26.585 35.4916 26.585 35.1499C26.585 35.0743 26.585 35.0102 26.5845 34.9462C26.5819 34.5909 26.5644 34.2357 26.45 31.9099L25.82 16.6099C25.73 14.6299 25.595 12.3799 25.415 11.1199H32.795C32.66 12.3349 32.48 14.6749 32.39 16.6099L31.76 31.9099C31.6873 34.0558 31.6733 34.4673 31.6706 34.8788C31.67 34.9765 31.67 35.0741 31.67 35.1949ZM32.39 40.7749V46.9399H25.865V40.7749H32.39Z" fill="white"/>
</svg>
