<svg xmlns="http://www.w3.org/2000/svg"  viewBox="0 0 100 100" width="100px" height="100px"><path fill="#c8ede6" d="M86.703,55.884c0.3-0.616,0.566-1.264,0.796-1.943c2.633-7.77-1.349-17.078-9.733-19.325c-0.906-11.384-8.906-19.193-17.941-20.526c-10.341-1.525-19.814,5.044-22.966,15.485c-3.799-1.346-7.501-1.182-10.99,0.857c-1.583,0.732-3.031,1.812-4.33,3.233c-1.907,2.086-3.147,4.719-3.652,7.495c-0.748,0.118-1.483,0.236-2.176,0.484c-4.04,1.449-6.589,4.431-7.288,8.923c-0.435,2.797,0.443,5.587,0.933,6.714c1.935,4.455,6.422,6.98,10.981,6.312c0.227-0.033,0.557,0.069,0.752,0.233c0.241,7.12,3.698,13.417,8.884,17.014c8.321,5.772,19.027,3.994,25.781-3.921c2.894,2.96,6.338,4.398,10.384,3.876c4.023-0.519,7.147-2.739,9.426-6.349c1.053,0.283,2.051,0.691,3.083,0.804c4.042,0.442,7.297-1.184,9.732-4.8c0.083-0.124,0.203-0.219,0.306-0.328c0.348-0.798,0.696-1.596,1.044-2.394c0.155-1.211,0.429-2.423,0.443-3.632C90.211,60.841,88.88,57.874,86.703,55.884z"/><path fill="#fdfcef" d="M78.528,68.063c0,0,11.691,0,11.762,0c2.7,0,4.888-2.189,4.888-4.889c0-2.355-1.666-4.321-3.884-4.784c0.026-0.206,0.043-0.415,0.043-0.628c0-2.796-2.267-5.063-5.063-5.063c-1.651,0-3.113,0.794-4.037,2.017c-0.236-3.113-3.017-5.514-6.27-5.116c-2.379,0.291-4.346,2.13-4.784,4.486c-0.14,0.756-0.126,1.489,0.014,2.177c-0.638-0.687-1.546-1.119-2.557-1.119c-1.85,0-3.361,1.441-3.48,3.261c-0.84-0.186-1.754-0.174-2.717,0.188c-1.84,0.691-3.15,2.423-3.227,4.387c-0.109,2.789,2.12,5.085,4.885,5.085c0.21,0,0.948,0,1.118,0h10.151"/><path fill="#472b29" d="M90.29,68.563H78.528c-0.276,0-0.5-0.224-0.5-0.5s0.224-0.5,0.5-0.5H90.29c2.42,0,4.389-1.969,4.389-4.389c0-2.066-1.466-3.873-3.486-4.295c-0.255-0.053-0.426-0.292-0.394-0.55c0.023-0.187,0.039-0.375,0.039-0.567c0-2.516-2.047-4.563-4.563-4.563c-1.438,0-2.765,0.663-3.638,1.818c-0.125,0.166-0.339,0.239-0.54,0.178c-0.199-0.059-0.342-0.234-0.357-0.441c-0.104-1.377-0.779-2.671-1.851-3.549c-1.082-0.887-2.453-1.282-3.86-1.109c-2.166,0.265-3.956,1.943-4.353,4.081c-0.124,0.667-0.12,1.335,0.013,1.986c0.044,0.22-0.062,0.442-0.262,0.544c-0.2,0.102-0.443,0.06-0.595-0.104c-0.575-0.619-1.353-0.959-2.19-0.959c-1.569,0-2.878,1.227-2.981,2.794c-0.01,0.146-0.083,0.28-0.199,0.367c-0.117,0.087-0.268,0.119-0.408,0.088c-0.842-0.187-1.638-0.132-2.433,0.167c-1.669,0.626-2.835,2.208-2.903,3.938c-0.047,1.207,0.387,2.35,1.222,3.218c0.835,0.868,1.958,1.347,3.163,1.347h11.269c0.276,0,0.5,0.224,0.5,0.5s-0.224,0.5-0.5,0.5H64.102c-1.479,0-2.858-0.587-3.884-1.654c-1.025-1.066-1.558-2.469-1.5-3.95c0.083-2.126,1.51-4.069,3.55-4.835c0.801-0.3,1.628-0.399,2.468-0.299c0.377-1.823,1.998-3.182,3.905-3.182c0.684,0,1.354,0.18,1.944,0.51c0-0.385,0.035-0.772,0.106-1.159c0.477-2.562,2.621-4.573,5.215-4.891c1.677-0.205,3.319,0.266,4.615,1.328c1.004,0.823,1.716,1.951,2.038,3.193c1.012-0.916,2.319-1.425,3.714-1.425c3.067,0,5.563,2.496,5.563,5.563c0,0.083-0.002,0.166-0.007,0.249c2.254,0.673,3.848,2.777,3.848,5.164C95.678,66.145,93.261,68.563,90.29,68.563z"/><path fill="#fdfcef" d="M75.695,57.294c-1.808-0.119-3.365,1.13-3.476,2.789c-0.014,0.206-0.005,0.409,0.025,0.606c-0.349-0.394-0.865-0.661-1.458-0.7c-1.085-0.071-2.022,0.645-2.158,1.62c-0.197-0.054-0.403-0.09-0.616-0.104c-1.582-0.104-2.944,0.989-3.042,2.441"/><path fill="#472b29" d="M64.97,64.195c-0.006,0-0.012,0-0.017,0c-0.138-0.009-0.242-0.128-0.233-0.266c0.107-1.586,1.58-2.783,3.308-2.673c0.135,0.009,0.271,0.026,0.408,0.053c0.274-0.968,1.258-1.636,2.365-1.568c0.426,0.028,0.824,0.161,1.164,0.382c0-0.019,0.002-0.037,0.003-0.055c0.121-1.794,1.795-3.139,3.742-3.022c0.138,0.009,0.242,0.128,0.233,0.266c-0.009,0.137-0.117,0.241-0.266,0.233c-1.664-0.111-3.108,1.038-3.21,2.557c-0.012,0.184-0.004,0.37,0.023,0.552c0.017,0.109-0.041,0.217-0.141,0.264c-0.1,0.047-0.22,0.022-0.293-0.061c-0.318-0.359-0.787-0.584-1.288-0.617c-0.94-0.062-1.775,0.556-1.894,1.405c-0.01,0.071-0.05,0.134-0.11,0.174c-0.06,0.04-0.133,0.051-0.204,0.033c-0.189-0.052-0.38-0.084-0.566-0.096c-1.437-0.104-2.688,0.895-2.776,2.208C65.211,64.094,65.101,64.195,64.97,64.195z"/><path fill="#fdfcef" d="M92.269,58.963c-1.699-0.801-3.664-0.234-4.389,1.267c-0.09,0.186-0.157,0.379-0.201,0.574"/><path fill="#472b29" d="M87.679,61.053c-0.018,0-0.037-0.002-0.056-0.006c-0.135-0.031-0.219-0.165-0.188-0.299c0.049-0.217,0.124-0.428,0.22-0.627c0.783-1.622,2.902-2.243,4.72-1.384c0.125,0.059,0.179,0.208,0.12,0.333c-0.059,0.126-0.209,0.178-0.333,0.12c-1.573-0.741-3.394-0.227-4.057,1.149c-0.08,0.165-0.142,0.34-0.183,0.521C87.897,60.975,87.794,61.053,87.679,61.053z"/><path fill="#fff" d="M23.578 63.789h-10.03c-.276 0-.5-.224-.5-.5s.224-.5.5-.5h10.03c.276 0 .5.224.5.5S23.855 63.789 23.578 63.789zM26.46 63.789h-1.446c-.276 0-.5-.224-.5-.5s.224-.5.5-.5h1.446c.276 0 .5.224.5.5S26.736 63.789 26.46 63.789zM30.514 63.789h-2.545c-.276 0-.5-.224-.5-.5s.224-.5.5-.5h2.545c.276 0 .5.224.5.5S30.79 63.789 30.514 63.789zM30.514 65.655h-9.616c-.276 0-.5-.224-.5-.5s.224-.5.5-.5h9.616c.276 0 .5.224.5.5S30.79 65.655 30.514 65.655zM19.166 65.655h-.58c-.276 0-.5-.224-.5-.5s.224-.5.5-.5h.58c.276 0 .5.224.5.5S19.443 65.655 19.166 65.655zM16.789 65.655h-1.456c-.276 0-.5-.224-.5-.5s.224-.5.5-.5h1.456c.276 0 .5.224.5.5S17.066 65.655 16.789 65.655zM25.925 61.925h-5.027c-.276 0-.5-.224-.5-.5s.224-.5.5-.5h5.027c.276 0 .5.224.5.5S26.201 61.925 25.925 61.925zM25.925 60.06h-1.257c-.276 0-.5-.224-.5-.5s.224-.5.5-.5h1.257c.276 0 .5.224.5.5S26.201 60.06 25.925 60.06zM22.656 67.519h-1.759c-.276 0-.5-.224-.5-.5s.224-.5.5-.5h1.759c.276 0 .5.224.5.5S22.933 67.519 22.656 67.519z"/><g><path fill="#fdfcef" d="M38.537,53.18c1.883,0,3.517,0,3.54,0c2.11,0,3.821-1.674,3.821-3.739c0-1.802-1.302-3.305-3.035-3.66c0.02-0.158,0.034-0.317,0.034-0.48c0-2.139-1.772-3.873-3.957-3.873c-1.29,0-2.433,0.607-3.155,1.543c-0.185-2.381-2.358-4.218-4.9-3.913c-1.859,0.223-3.397,1.629-3.739,3.431c-0.11,0.578-0.098,1.139,0.011,1.665c-0.498-0.525-1.208-0.856-1.998-0.856c-1.446,0-2.627,1.102-2.72,2.494c-0.657-0.142-1.371-0.133-2.123,0.143c-1.438,0.528-2.462,1.853-2.522,3.356c-0.085,2.133,1.657,3.889,3.818,3.889c0.164,0,0.741,0,0.874,0h7.934 M32.06,53.18h0.36"/><path fill="#472b29" d="M42.077,53.68h-3.541c-0.276,0-0.5-0.224-0.5-0.5s0.224-0.5,0.5-0.5h3.541c1.831,0,3.32-1.453,3.32-3.239c0-1.524-1.108-2.857-2.635-3.17c-0.256-0.052-0.429-0.293-0.396-0.553c0.018-0.137,0.029-0.276,0.029-0.417c0-1.86-1.551-3.373-3.457-3.373c-1.092,0-2.098,0.491-2.759,1.348c-0.127,0.164-0.34,0.232-0.539,0.173c-0.198-0.059-0.339-0.234-0.355-0.44c-0.079-1.019-0.565-1.944-1.37-2.604c-0.828-0.679-1.884-0.982-2.973-0.852c-1.646,0.197-3.006,1.442-3.307,3.028c-0.094,0.494-0.091,0.988,0.01,1.471c0.045,0.219-0.06,0.441-0.258,0.544c-0.198,0.104-0.44,0.063-0.595-0.099c-0.428-0.452-1.009-0.7-1.636-0.7c-1.169,0-2.145,0.891-2.221,2.027c-0.01,0.145-0.082,0.279-0.198,0.366c-0.116,0.087-0.263,0.119-0.407,0.089c-0.638-0.139-1.241-0.098-1.845,0.124c-1.262,0.464-2.144,1.632-2.195,2.906c-0.035,0.875,0.283,1.708,0.895,2.345c0.635,0.661,1.496,1.024,2.423,1.024h8.808c0.276,0,0.5,0.224,0.5,0.5s-0.224,0.5-0.5,0.5H21.61c-1.185,0-2.331-0.485-3.145-1.332c-0.802-0.835-1.218-1.928-1.172-3.077c0.066-1.674,1.211-3.203,2.849-3.805c0.61-0.224,1.24-0.305,1.88-0.245c0.344-1.396,1.629-2.424,3.135-2.424c0.493,0,0.977,0.113,1.414,0.323c0.009-0.242,0.037-0.484,0.083-0.726c0.381-2.009,2.097-3.586,4.17-3.834c1.36-0.161,2.685,0.218,3.726,1.072c0.748,0.613,1.278,1.409,1.546,2.302c0.791-0.648,1.786-1.007,2.843-1.007c2.458,0,4.457,1.961,4.457,4.373c0,0.034,0,0.068-0.001,0.102c1.764,0.555,3.003,2.188,3.003,4.038C46.398,51.778,44.46,53.68,42.077,53.68z M32.419,53.68H32.06c-0.276,0-0.5-0.224-0.5-0.5s0.224-0.5,0.5-0.5h0.359c0.276,0,0.5,0.224,0.5,0.5S32.696,53.68,32.419,53.68z"/><path fill="#472b29" d="M40.369,47.876c-0.018,0-0.037-0.002-0.055-0.006c-0.135-0.03-0.219-0.165-0.188-0.299c0.038-0.167,0.095-0.327,0.169-0.479c0.604-1.224,2.275-1.675,3.722-1.007c0.125,0.058,0.18,0.207,0.122,0.332c-0.059,0.125-0.206,0.18-0.332,0.122c-1.201-0.555-2.578-0.208-3.063,0.774c-0.058,0.116-0.101,0.24-0.13,0.367C40.587,47.798,40.484,47.876,40.369,47.876z"/><g><path fill="#472b29" d="M35.211,53.68h-1.107c-0.276,0-0.5-0.224-0.5-0.5s0.224-0.5,0.5-0.5h1.107c0.276,0,0.5,0.224,0.5,0.5S35.487,53.68,35.211,53.68z"/></g></g><g><path fill="#fff" d="M69.546 21.643h-10.03c-.276 0-.5-.224-.5-.5s.224-.5.5-.5h10.03c.276 0 .5.224.5.5S69.822 21.643 69.546 21.643zM72.427 21.643h-1.446c-.276 0-.5-.224-.5-.5s.224-.5.5-.5h1.446c.276 0 .5.224.5.5S72.704 21.643 72.427 21.643zM76.482 21.643h-2.546c-.276 0-.5-.224-.5-.5s.224-.5.5-.5h2.546c.276 0 .5.224.5.5S76.758 21.643 76.482 21.643zM74.456 17.914H64.84c-.276 0-.5-.224-.5-.5s.224-.5.5-.5h9.617c.276 0 .5.224.5.5S74.733 17.914 74.456 17.914zM63.108 17.914h-.58c-.276 0-.5-.224-.5-.5s.224-.5.5-.5h.58c.276 0 .5.224.5.5S63.384 17.914 63.108 17.914zM60.731 17.914h-1.456c-.276 0-.5-.224-.5-.5s.224-.5.5-.5h1.456c.276 0 .5.224.5.5S61.008 17.914 60.731 17.914zM71.893 19.778h-5.027c-.276 0-.5-.224-.5-.5s.224-.5.5-.5h5.027c.276 0 .5.224.5.5S72.169 19.778 71.893 19.778z"/><path fill="#fff" d="M71.893 17.914h-1.257c-.276 0-.5-.224-.5-.5s.224-.5.5-.5h1.257c.276 0 .5.224.5.5S72.169 17.914 71.893 17.914zM65.41 19.778h-1.759c-.276 0-.5-.224-.5-.5s.224-.5.5-.5h1.759c.276 0 .5.224.5.5S65.687 19.778 65.41 19.778z"/></g><g><path fill="#edf7f5" d="M39.737,27.268h-0.795c-3.011,0-5.474,2.408-5.474,5.35v37.7c0,2.943,2.463,5.35,5.474,5.35h27.289c3.011,0,5.474-2.408,5.474-5.35V39.673c-4.936-4.824-7.756-7.581-12.692-12.405H47.258"/><path fill="#472b29" d="M66.231,76.369H38.942c-3.404,0-6.174-2.714-6.174-6.05V32.618c0-3.336,2.77-6.05,6.174-6.05h0.794c0.387,0,0.7,0.313,0.7,0.7s-0.313,0.7-0.7,0.7h-0.794c-2.632,0-4.773,2.085-4.773,4.649v37.701c0,2.564,2.141,4.65,4.773,4.65h27.289c2.632,0,4.773-2.086,4.773-4.65V39.967L58.728,27.968H47.259c-0.387,0-0.7-0.313-0.7-0.7s0.313-0.7,0.7-0.7h11.754c0.183,0,0.358,0.072,0.489,0.2l12.691,12.405c0.135,0.132,0.211,0.312,0.211,0.5v30.646C72.405,73.654,69.635,76.369,66.231,76.369z"/><path fill="#85cfcc" d="M58.855,27.574v6.73c0,3.038,2.396,5.523,5.325,5.523h7.08"/><path fill="#472b29" d="M71.26 40.203H64.18c-3.143 0-5.7-2.646-5.7-5.898v-6.73c0-.207.168-.375.375-.375s.375.168.375.375v6.73c0 2.838 2.221 5.148 4.95 5.148h7.081c.207 0 .375.168.375.375S71.468 40.203 71.26 40.203zM68.257 51.23c-.207 0-.375-.168-.375-.375v-1.838c0-.207.168-.375.375-.375s.375.168.375.375v1.838C68.632 51.062 68.464 51.23 68.257 51.23zM68.257 56.132c-.207 0-.375-.168-.375-.375V52.08c0-.207.168-.375.375-.375s.375.168.375.375v3.676C68.632 55.964 68.464 56.132 68.257 56.132zM63.77 72.674H41.403c-2.681 0-4.862-2.144-4.862-4.78V35.629c0-1.586.804-3.068 2.15-3.962.172-.114.405-.068.52.105.114.172.067.405-.105.52-1.137.755-1.815 2.003-1.815 3.337v32.265c0 2.222 1.845 4.03 4.112 4.03H63.77c2.267 0 4.112-1.808 4.112-4.03V56.982c0-.207.168-.375.375-.375s.375.168.375.375v10.912C68.632 70.53 66.451 72.674 63.77 72.674z"/><path fill="#472b29" d="M46.394 28.493l-.057 7.084c0 1.354-1.206 2.412-2.429 2.412-1.223 0-2.529-1.078-2.529-2.432l.019-7.491c0-.8.897-1.523 1.646-1.523.749 0 1.47.704 1.47 1.504v6.417c0 0-.299.613-.617.613s-.717-.218-.637-.555v-6.031h-.627l-.021 5.916c0 .845.464 1.225 1.3 1.225.836 0 1.228-.437 1.228-1.283V28.1c0-1.391-.853-2.144-2.154-2.144-1.301 0-2.234.773-2.234 2.164l.02 7.419c0 1.862 1.331 3.006 3.114 3.006s3.134-1.048 3.134-2.91v-7.141H46.394zM54.467 51.843H40.05c-.207 0-.375-.168-.375-.375s.168-.375.375-.375h14.417c.207 0 .375.168.375.375S54.674 51.843 54.467 51.843zM48.825 56.132H40.05c-.207 0-.375-.168-.375-.375s.168-.375.375-.375h8.775c.207 0 .375.168.375.375S49.032 56.132 48.825 56.132zM65.123 56.132H50.079c-.207 0-.375-.168-.375-.375s.168-.375.375-.375h15.043c.207 0 .375.168.375.375S65.33 56.132 65.123 56.132z"/><g><path fill="#472b29" d="M59.481 60.42h-6.895c-.207 0-.375-.168-.375-.375s.168-.375.375-.375h6.895c.207 0 .375.168.375.375S59.688 60.42 59.481 60.42zM65.75 60.42h-5.015c-.207 0-.375-.168-.375-.375s.168-.375.375-.375h5.015c.207 0 .375.168.375.375S65.957 60.42 65.75 60.42zM51.333 60.42H40.05c-.207 0-.375-.168-.375-.375s.168-.375.375-.375h11.283c.207 0 .375.168.375.375S51.54 60.42 51.333 60.42z"/></g><g><path fill="#472b29" d="M65.123 64.709h-8.148c-.207 0-.375-.168-.375-.375s.168-.375.375-.375h8.148c.207 0 .375.168.375.375S65.33 64.709 65.123 64.709zM55.093 64.709H40.05c-.207 0-.375-.168-.375-.375s.168-.375.375-.375h15.043c.207 0 .375.168.375.375S55.301 64.709 55.093 64.709z"/></g></g><g><path fill="#472b29" d="M50.103,78.328c-0.128,0-0.256-0.049-0.354-0.146c-0.195-0.195-0.195-0.512,0-0.707l2.785-2.785c0.195-0.195,0.512-0.195,0.707,0s0.195,0.512,0,0.707l-2.785,2.785C50.359,78.279,50.231,78.328,50.103,78.328z"/><path fill="#88ae45" d="M38.233,89.829l-0.131-0.131c-1.058-1.058-1.058-2.79,0-3.848l8.088-8.088c1.058-1.058,2.79-1.058,3.848,0l0.131,0.131c1.058,1.058,1.058,2.79,0,3.848l-8.088,8.088C41.023,90.887,39.291,90.887,38.233,89.829z"/><path fill="#472b29" d="M40.156,91.122c-0.862,0-1.671-0.333-2.277-0.94c0,0,0,0,0,0l-0.13-0.131c-0.606-0.605-0.939-1.415-0.939-2.277s0.333-1.671,0.94-2.277l8.087-8.088c1.256-1.256,3.299-1.256,4.555,0l0.13,0.13c0.607,0.606,0.94,1.416,0.94,2.278c0,0.863-0.333,1.672-0.94,2.278l-8.088,8.088C41.828,90.789,41.019,91.122,40.156,91.122z M38.587,89.476c0.867,0.865,2.275,0.866,3.141,0l8.088-8.088c0.866-0.866,0.866-2.275,0-3.141l-0.13-0.13c-0.866-0.866-2.275-0.867-3.142,0l-8.087,8.088c-0.866,0.866-0.866,2.275,0,3.141L38.587,89.476z"/><path fill="#d1dc82" d="M49.807,78.113c-0.923-0.923-2.374-0.984-3.223-0.135l-0.154,0.154l0.336,0.336l3.022,3.022l0.154-0.154C50.791,80.487,50.731,79.036,49.807,78.113z"/><path fill="#472b29" d="M49.794,82.269c-0.096,0-0.192-0.037-0.265-0.11l-3.581-3.581c-0.146-0.146-0.146-0.384,0-0.53s0.384-0.146,0.53,0l3.581,3.581c0.146,0.146,0.146,0.384,0,0.53C49.986,82.233,49.89,82.269,49.794,82.269z"/><path fill="#77cbd2" d="M61.667 56.416999999999994A9.847 9.847 0 1 0 61.667 76.11099999999999A9.847 9.847 0 1 0 61.667 56.416999999999994Z" opacity=".74" transform="rotate(-45.001 61.666 66.265)"/><path fill="#fdfcef" d="M70.394,57.537c-4.834-4.834-12.672-4.834-17.506,0c-4.834,4.834-4.834,12.672,0,17.506c4.834,4.834,12.672,4.834,17.506,0C75.228,70.209,75.228,62.371,70.394,57.537z M68.604,73.252c-3.845,3.845-10.08,3.845-13.925,0c-3.845-3.845-3.845-10.08,0-13.925c3.845-3.845,10.08-3.845,13.925,0C72.449,63.173,72.449,69.407,68.604,73.252z"/><path fill="#472b29" d="M61.641 79.162c-3.298 0-6.596-1.255-9.106-3.766-2.433-2.432-3.772-5.667-3.772-9.106s1.34-6.674 3.772-9.106c5.021-5.021 13.191-5.021 18.213 0l0 0c5.021 5.021 5.021 13.191 0 18.213C68.238 77.907 64.939 79.162 61.641 79.162zM61.641 54.417c-3.042 0-6.084 1.158-8.399 3.473-2.244 2.244-3.479 5.227-3.479 8.399s1.236 6.156 3.479 8.399c4.63 4.63 12.167 4.631 16.799 0 4.631-4.631 4.631-12.167 0-16.799l0 0C67.725 55.575 64.683 54.417 61.641 54.417zM61.641 76.632c-2.65 0-5.299-1.009-7.316-3.026-4.034-4.034-4.034-10.598 0-14.632 4.034-4.034 10.598-4.035 14.632 0 4.034 4.034 4.034 10.599 0 14.632C66.94 75.623 64.291 76.632 61.641 76.632zM61.641 56.947c-2.394 0-4.787.911-6.609 2.733-3.644 3.645-3.644 9.574 0 13.218 3.645 3.645 9.574 3.644 13.218 0s3.644-9.574 0-13.218C66.428 57.859 64.034 56.947 61.641 56.947zM39.535 90.673c-.053 0-.102-.034-.119-.087l-1.378-4.28c-.021-.065.015-.136.081-.157.065-.02.136.015.157.081l1.378 4.28c.021.065-.015.136-.081.157C39.56 90.671 39.548 90.673 39.535 90.673zM40.407 90.375c-.054 0-.104-.035-.12-.089l-1.561-5.244c-.02-.066.018-.136.084-.155.068-.02.136.019.155.084l1.561 5.244c.02.066-.018.136-.084.155C40.431 90.374 40.419 90.375 40.407 90.375zM40.933 88.533c-.054 0-.104-.035-.12-.089l-1.307-4.389c-.02-.066.018-.136.084-.155.067-.022.136.018.155.084l1.307 4.389c.02.066-.018.136-.084.155C40.957 88.531 40.945 88.533 40.933 88.533zM41.465 86.608c-.054 0-.104-.035-.12-.089l-.921-3.094c-.02-.066.018-.136.084-.155.065-.02.136.018.155.084l.921 3.094c.02.066-.018.136-.084.155C41.489 86.607 41.477 86.608 41.465 86.608z"/></g></svg>